<?xml version="1.0" encoding="utf-8"?>
<!-- Generator: Adobe Illustrator 22.1.0, SVG Export Plug-In . SVG Version: 6.00 Build 0)  -->
<svg version="1.1" id="Layer_1" xmlns="http://www.w3.org/2000/svg" xmlns:xlink="http://www.w3.org/1999/xlink" x="0px" y="0px"
	 viewBox="0 0 256 256" style="enable-background:new 0 0 256 256;" xml:space="preserve">
<style type="text/css">
	.st0{fill:#A56021;}
	.st1{fill:#E58D23;}
	.st2{fill:#FCE575;}
	.st3{fill:#FFF4C1;}
	.st4{fill:#FFD551;}
	.st5{fill:#BF6C0D;}
	.st6{fill:#8C4C17;}
	.st7{fill:#FF624B;}
	.st8{fill:#FF4B34;}
	.st9{fill:#DB9C2E;}
	.st10{fill:#FFC34C;}
	.st11{fill:#F9BB32;}
	.st12{fill:#FF9079;}
	.st13{fill:#FCDA4F;}
	.st14{fill:#EACF32;}
	.st15{fill:#CCC033;}
	.st16{fill:#99AF17;}
	.st17{fill:#FFA730;}
	.st18{fill:#FFB74B;}
	.st19{fill:#FFDF74;}
	.st20{fill:#FFD59A;}
	.st21{fill:#FCF9DE;}
	.st22{fill:#FFEACF;}
	.st23{fill:#FFEA63;}
	.st24{fill:#FFEEA4;}
	.st25{fill:#FFF9DC;}
</style>
<g>
	<g>
		<g>
			<path class="st14" d="M122,155.815H92c-30.327,0-55-24.673-55-55V47.82c0-8.284,6.716-15,15-15s15,6.716,15,15v52.995
				c0,13.785,11.215,25,25,25h30c8.284,0,15,6.716,15,15S130.284,155.815,122,155.815z"/>
		</g>
	</g>
	<g>
		<path class="st15" d="M164.522,248h-75V45.5c0-20.711,16.789-37.5,37.5-37.5h0c20.711,0,37.5,16.789,37.5,37.5V248z"/>
	</g>
	<g>
		<path class="st4" d="M153.451,27.91c-0.863,0-1.73-0.296-2.438-0.902c-1.573-1.348-1.755-3.715-0.408-5.287l7.473-8.723
			c1.347-1.574,3.713-1.758,5.288-0.408c1.573,1.348,1.755,3.715,0.408,5.287L156.3,26.6
			C155.559,27.466,154.508,27.91,153.451,27.91z"/>
	</g>
	<g>
		<path class="st17" d="M92.743,95.549H81.257c-2.071,0-3.75-1.679-3.75-3.75s1.679-3.75,3.75-3.75h11.486
			c2.071,0,3.75,1.679,3.75,3.75S94.814,95.549,92.743,95.549z"/>
	</g>
	<g>
		<path class="st17" d="M95.266,65.083H83.779c-2.071,0-3.75-1.679-3.75-3.75s1.679-3.75,3.75-3.75h11.486
			c2.071,0,3.75,1.679,3.75,3.75S97.337,65.083,95.266,65.083z"/>
	</g>
	<g>
		<path class="st4" d="M160.76,45.701c-1.446,0-2.824-0.842-3.439-2.252c-0.828-1.898,0.04-4.108,1.938-4.937l10.528-4.591
			c1.899-0.829,4.108,0.039,4.937,1.938c0.828,1.898-0.04,4.108-1.938,4.937l-10.528,4.591
			C161.769,45.601,161.261,45.701,160.76,45.701z"/>
	</g>
	<g>
		<path class="st4" d="M170.266,75.75h-11.486c-2.071,0-3.75-1.679-3.75-3.75s1.679-3.75,3.75-3.75h11.486
			c2.071,0,3.75,1.679,3.75,3.75S172.337,75.75,170.266,75.75z"/>
	</g>
	<g>
		<path class="st4" d="M174.766,120.75h-11.486c-2.071,0-3.75-1.679-3.75-3.75s1.679-3.75,3.75-3.75h11.486
			c2.071,0,3.75,1.679,3.75,3.75S176.837,120.75,174.766,120.75z"/>
	</g>
	<g>
		<path class="st17" d="M99.327,29.292c-0.959,0-1.919-0.366-2.652-1.099l-8.122-8.122c-1.464-1.464-1.464-3.839,0-5.303
			c1.465-1.465,3.839-1.465,5.304,0l8.122,8.122c1.464,1.464,1.464,3.839,0,5.303C101.246,28.926,100.286,29.292,99.327,29.292z"/>
	</g>
	<g>
		<path class="st4" d="M223.743,133.417h-11.486c-2.071,0-3.75-1.679-3.75-3.75s1.679-3.75,3.75-3.75h11.486
			c2.071,0,3.75,1.679,3.75,3.75S225.814,133.417,223.743,133.417z"/>
	</g>
	<g>
		<path class="st4" d="M209.081,87.609c-0.863,0-1.73-0.296-2.438-0.902c-1.573-1.348-1.755-3.715-0.408-5.287l7.473-8.723
			c1.346-1.574,3.713-1.758,5.288-0.408c1.573,1.348,1.755,3.715,0.408,5.287l-7.473,8.723
			C211.189,87.165,210.138,87.609,209.081,87.609z"/>
	</g>
	<g>
		<path class="st4" d="M216.39,102.4c-1.446,0-2.824-0.842-3.439-2.252c-0.828-1.898,0.04-4.108,1.938-4.937l10.529-4.591
			c1.899-0.829,4.108,0.04,4.937,1.938c0.828,1.898-0.04,4.108-1.938,4.937l-10.529,4.591C217.399,102.3,216.891,102.4,216.39,102.4
			z"/>
	</g>
	<g>
		<path class="st17" d="M43.743,88.417H32.257c-2.071,0-3.75-1.679-3.75-3.75s1.679-3.75,3.75-3.75h11.486
			c2.071,0,3.75,1.679,3.75,3.75S45.814,88.417,43.743,88.417z"/>
	</g>
	<g>
		<path class="st17" d="M46.919,42.609c-1.058,0-2.108-0.444-2.85-1.311l-7.473-8.723c-1.348-1.572-1.165-3.939,0.408-5.287
			c1.573-1.348,3.94-1.166,5.288,0.408l7.473,8.723c1.348,1.572,1.165,3.939-0.408,5.287C48.65,42.313,47.782,42.609,46.919,42.609z
			"/>
	</g>
	<g>
		<path class="st17" d="M39.61,57.4c-0.5,0-1.009-0.101-1.497-0.313l-10.529-4.591c-1.898-0.828-2.766-3.038-1.938-4.937
			c0.828-1.897,3.038-2.766,4.937-1.938l10.529,4.591c1.898,0.828,2.766,3.038,1.938,4.937C42.434,56.559,41.056,57.4,39.61,57.4z"
			/>
	</g>
	<g>
		<path class="st17" d="M92.743,185.549H81.257c-2.071,0-3.75-1.679-3.75-3.75s1.679-3.75,3.75-3.75h11.486
			c2.071,0,3.75,1.679,3.75,3.75S94.814,185.549,92.743,185.549z"/>
	</g>
	<g>
		<path class="st4" d="M174.766,210.75h-11.486c-2.071,0-3.75-1.679-3.75-3.75s1.679-3.75,3.75-3.75h11.486
			c2.071,0,3.75,1.679,3.75,3.75S176.837,210.75,174.766,210.75z"/>
	</g>
	<g>
		<path class="st4" d="M128.022,109.386c-2.071,0-3.75-1.679-3.75-3.75V94.149c0-2.071,1.679-3.75,3.75-3.75s3.75,1.679,3.75,3.75
			v11.486C131.772,107.707,130.094,109.386,128.022,109.386z"/>
	</g>
	<g>
		<path class="st4" d="M140.022,76.569c-2.071,0-3.75-1.679-3.75-3.75V61.333c0-2.071,1.679-3.75,3.75-3.75s3.75,1.679,3.75,3.75
			v11.486C143.772,74.891,142.094,76.569,140.022,76.569z"/>
	</g>
	<g>
		<path class="st15" d="M107,143.815c-30.327,0-55-24.673-55-55V35.82c0-1.025,0.104-2.025,0.299-2.992
			C52.199,32.825,52.1,32.82,52,32.82c-8.284,0-15,6.716-15,15v52.995c0,30.327,24.673,55,55,55h30c7.257,0,13.31-5.153,14.699-12
			H107z"/>
	</g>
	<g>
		<path class="st16" d="M142.022,11.129c-4.594-2.008-9.665-3.129-15-3.129l0,0c-20.711,0-37.5,16.789-37.5,37.5V248h30V45.5
			C119.522,30.124,128.78,16.917,142.022,11.129z"/>
	</g>
	<g>
		<path class="st15" d="M203,77.82c-8.284,0-15,6.716-15,15v52.995c0,13.273-10.399,24.159-23.478,24.949v30.029
			c29.626-0.809,53.478-25.16,53.478-54.978V92.82C218,84.535,211.284,77.82,203,77.82z"/>
	</g>
	<g>
		<path class="st14" d="M209,148.814c-1.657,0-3-1.343-3-3v-41.481c0-1.657,1.343-3,3-3s3,1.343,3,3v41.481
			C212,147.472,210.657,148.814,209,148.814z"/>
	</g>
	<g>
		<path class="st16" d="M203,77.82c-8.284,0-15,6.716-15,15v52.995c0,13.273-10.399,24.159-23.478,24.949v9.051H175
			c13.785,0,25-11.215,25-25V101.82c0-8.284,6.716-15,15-15c0.609,0,1.208,0.041,1.799,0.111
			C214.509,81.574,209.194,77.82,203,77.82z"/>
	</g>
	<g>
		<path class="st4" d="M143.022,173.886c-2.071,0-3.75-1.679-3.75-3.75v-11.486c0-2.071,1.679-3.75,3.75-3.75s3.75,1.679,3.75,3.75
			v11.486C146.772,172.207,145.094,173.886,143.022,173.886z"/>
	</g>
	<g>
		<path class="st17" d="M108.522,152.886c-2.071,0-3.75-1.679-3.75-3.75v-11.486c0-2.071,1.679-3.75,3.75-3.75s3.75,1.679,3.75,3.75
			v11.486C112.272,151.207,110.594,152.886,108.522,152.886z"/>
	</g>
	<g>
		<path class="st17" d="M105.522,218.886c-2.071,0-3.75-1.679-3.75-3.75v-11.486c0-2.071,1.679-3.75,3.75-3.75s3.75,1.679,3.75,3.75
			v11.486C109.272,217.207,107.594,218.886,105.522,218.886z"/>
	</g>
	<g>
		<circle class="st16" cx="131.272" cy="234.9" r="8.75"/>
	</g>
	<g>
		<circle class="st16" cx="137.272" cy="35.4" r="8.75"/>
	</g>
</g>
</svg>
