<?xml version="1.0" encoding="utf-8"?>
<!-- Generator: Adobe Illustrator 22.1.0, SVG Export Plug-In . SVG Version: 6.00 Build 0)  -->
<svg version="1.1" id="Layer_1" xmlns="http://www.w3.org/2000/svg" xmlns:xlink="http://www.w3.org/1999/xlink" x="0px" y="0px"
	 viewBox="0 0 256 256" style="enable-background:new 0 0 256 256;" xml:space="preserve">
<style type="text/css">
	.st0{fill:#A56021;}
	.st1{fill:#E58D23;}
	.st2{fill:#FCE575;}
	.st3{fill:#FFF4C1;}
	.st4{fill:#FFD551;}
	.st5{fill:#BF6C0D;}
	.st6{fill:#8C4C17;}
	.st7{fill:#FF624B;}
	.st8{fill:#FF4B34;}
	.st9{fill:#DB9C2E;}
	.st10{fill:#FFC34C;}
	.st11{fill:#F9BB32;}
	.st12{fill:#FF9079;}
	.st13{fill:#FCDA4F;}
	.st14{fill:#EACF32;}
	.st15{fill:#CCC033;}
	.st16{fill:#99AF17;}
	.st17{fill:#FFA730;}
	.st18{fill:#FFB74B;}
	.st19{fill:#FFDF74;}
	.st20{fill:#FFD59A;}
	.st21{fill:#FCF9DE;}
	.st22{fill:#FFEACF;}
	.st23{fill:#FFEA63;}
	.st24{fill:#FFEEA4;}
	.st25{fill:#FFF9DC;}
</style>
<g>
	<g>
		<g>
			<path class="st15" d="M246.522,243.274c-0.812,0-1.635-0.198-2.397-0.616l-46.679-25.566c-5.09-2.788-9.75-6.281-13.853-10.384
				l-94.064-94.064c-1.953-1.953-1.953-5.119,0-7.071c1.953-1.953,5.118-1.953,7.071,0l94.064,94.064
				c3.431,3.431,7.329,6.353,11.585,8.685l46.679,25.566c2.422,1.326,3.31,4.365,1.983,6.787
				C250.003,242.334,248.29,243.274,246.522,243.274z"/>
		</g>
	</g>
	<g>
		<path class="st16" d="M249.522,238.774c-0.812,0-1.635-0.198-2.397-0.616l-46.679-25.566c-5.09-2.788-9.75-6.281-13.853-10.384
			l-94.064-94.064c-0.997-0.997-1.482-2.31-1.461-3.616c-0.558,0.243-1.083,0.589-1.539,1.045c-1.953,1.953-1.953,5.119,0,7.071
			l94.064,94.064c4.103,4.103,8.763,7.597,13.853,10.384l46.679,25.566c0.762,0.417,1.585,0.616,2.397,0.616
			c1.768,0,3.481-0.939,4.39-2.599c0.405-0.739,0.601-1.536,0.613-2.323C250.895,238.625,250.213,238.774,249.522,238.774z"/>
	</g>
	<g>
		<path class="st15" d="M229.618,125.187c-0.056-1.433-0.965-2.301-1.978-1.901c-37.418,14.766-45.747,43.65-45.747,43.65v0
			c-2.023,5.759-2.976,12.164-2.497,18.507c1.272,16.816,12.132,26.821,24.256,22.346c0.612-0.226,1.215-0.486,1.81-0.775
			C230.957,196.929,230.131,138.322,229.618,125.187z"/>
	</g>
	<g>
		<path class="st14" d="M209.269,193.261c-0.74,0-1.482-0.272-2.063-0.822c-1.203-1.14-1.254-3.039-0.114-4.241
			c4.913-5.184,8.501-18.369,9.846-36.176c0.124-1.651,1.568-2.892,3.217-2.766c1.652,0.124,2.891,1.564,2.766,3.217
			c-1.038,13.753-3.871,31.83-11.473,39.852C210.857,192.947,210.063,193.261,209.269,193.261z"/>
	</g>
	<g>
		<path class="st16" d="M192.725,189.701c-0.48-6.342,0.473-12.747,2.497-18.506c0,0,6.618-22.948,34.555-38.392
			c-0.015-3.215-0.089-5.835-0.159-7.615c-0.056-1.433-0.965-2.301-1.978-1.901c-37.418,14.766-45.747,43.65-45.747,43.65
			c-2.023,5.759-2.976,12.164-2.497,18.506c1.162,15.362,10.327,25.033,21.146,23.18
			C196.285,204.557,193.349,197.952,192.725,189.701z"/>
	</g>
	<g>
		<path class="st10" d="M116.569,20.676c0,0,3.057-3.605,6.842-4.198c0.655-0.103,1.218,0.477,1.125,1.134l-0.611,4.301
			l-0.009,0.034c-0.038,0.143-0.053,0.286-0.057,0.428l-0.003,0.025l0.004,0.001c-0.007,0.807,0.522,1.548,1.337,1.767
			c0.967,0.259,1.961-0.315,2.22-1.282l1.682-4.061c0.252-0.608,1.021-0.822,1.536-0.412c3.043,2.426,3.833,7.219,3.833,7.219
			s7.186,51.059-22.578,81.539l-8.949-2.478l-8.949-2.478C84.143,60.767,116.569,20.676,116.569,20.676z"/>
	</g>
	<g>
		<path class="st18" d="M108.991,102.214c-9.848-41.448,22.578-81.539,22.578-81.539s0.215-0.252,0.595-0.629
			c-0.432-0.599-0.937-1.162-1.529-1.634c-0.515-0.41-1.284-0.196-1.536,0.412l-1.682,4.061c-0.259,0.967-1.253,1.541-2.22,1.282
			c-0.815-0.219-1.344-0.96-1.337-1.767l-0.004-0.001l0.003-0.025c0.003-0.142,0.018-0.285,0.057-0.428l0.009-0.034l0.61-4.302
			c0.093-0.657-0.469-1.236-1.125-1.134c-3.785,0.593-6.842,4.198-6.842,4.198s-32.426,40.091-22.578,81.539l8.949,2.478
			l8.949,2.478c1.055-1.08,2.058-2.188,3.022-3.317L108.991,102.214z"/>
	</g>
	<g>
		<path class="st10" d="M140.619,28.826c0,0,3.886-2.691,7.695-2.284c0.659,0.07,1.053,0.776,0.793,1.386l-1.703,3.997l-0.018,0.031
			c-0.074,0.128-0.125,0.263-0.165,0.399l-0.01,0.023l0.004,0.002c-0.216,0.777,0.103,1.631,0.834,2.053
			c0.867,0.5,1.975,0.203,2.476-0.663l2.676-3.487c0.401-0.522,1.199-0.53,1.59,0c2.312,3.131,1.834,7.965,1.834,7.965
			s-6.274,51.18-42.912,72.917l-8.003-4.71l-8.003-4.71C98.922,59.158,140.619,28.826,140.619,28.826z"/>
	</g>
	<g>
		<g>
			<path class="st10" d="M140.619,28.826c0,0,3.886-2.691,7.695-2.284c0.659,0.07,1.053,0.776,0.793,1.386l-1.703,3.997
				l-0.018,0.031c-0.074,0.128-0.125,0.263-0.165,0.399l-0.01,0.023l0.004,0.002c-0.216,0.777,0.103,1.631,0.834,2.053
				c0.867,0.5,1.975,0.203,2.476-0.663l2.676-3.487c0.401-0.522,1.199-0.53,1.59,0c2.312,3.131,1.834,7.965,1.834,7.965
				s-6.274,51.18-42.912,72.917l-8.003-4.71l-8.003-4.71C98.922,59.158,140.619,28.826,140.619,28.826z"/>
		</g>
	</g>
	<g>
		<g>
			<path class="st18" d="M112.707,101.742c0.9-31.538,24-56.351,35.926-67.104c-0.199-0.036-0.397-0.1-0.583-0.207
				c-0.731-0.422-1.05-1.275-0.834-2.052l-0.004-0.002l0.01-0.023c0.04-0.136,0.091-0.27,0.165-0.399l0.018-0.031l1.703-3.997
				c0.26-0.61-0.133-1.316-0.793-1.386c-3.809-0.407-7.695,2.284-7.695,2.284s-41.697,30.332-42.913,72.917l8.003,4.71l8.003,4.71
				c2.451-1.454,4.763-3.044,6.949-4.738L112.707,101.742z"/>
		</g>
	</g>
	<g>
		<g>
			<path class="st10" d="M161.016,42.665c0,0,4.45-1.594,8.024-0.215c0.619,0.239,0.816,1.022,0.407,1.544l-2.68,3.42l-0.025,0.025
				c-0.105,0.105-0.189,0.221-0.263,0.342l-0.015,0.02l0.004,0.003c-0.409,0.695-0.322,1.602,0.275,2.199
				c0.708,0.708,1.855,0.708,2.563,0l3.487-2.676c0.522-0.401,1.296-0.201,1.536,0.411c1.423,3.622-0.29,8.168-0.29,8.168
				s-19.306,47.812-60.322,59.325l-6.511-6.621l-6.511-6.621C112.888,61.172,161.016,42.665,161.016,42.665z"/>
		</g>
	</g>
	<g>
		<path class="st18" d="M122.205,108.612l-6.511-6.621c8.942-29.93,37.201-47.863,51.642-55.301l2.111-2.695
			c0.409-0.522,0.212-1.305-0.407-1.544c-3.575-1.379-8.024,0.215-8.024,0.215s-48.127,18.506-60.322,59.325l6.511,6.621
			l6.511,6.621c3.839-1.078,7.488-2.474,10.949-4.119L122.205,108.612z"/>
	</g>
	<g>
		<path class="st10" d="M175.515,61.899c0,0,4.711-0.387,7.806,1.869c0.536,0.391,0.524,1.198-0.006,1.597l-3.473,2.61l-0.031,0.018
			c-0.128,0.074-0.24,0.165-0.342,0.263l-0.02,0.015l0.003,0.004c-0.575,0.565-0.726,1.464-0.304,2.195
			c0.5,0.867,1.609,1.164,2.476,0.663l4.061-1.682c0.608-0.252,1.303,0.141,1.377,0.795c0.437,3.867-2.395,7.815-2.395,7.815
			s-31.023,41.186-73.621,41.691l-4.576-8.081l-4.576-8.08C124.237,67.319,175.515,61.899,175.515,61.899z"/>
	</g>
	<g>
		<path class="st18" d="M121.469,111.671l-4.576-8.08c16.879-27.4,50.264-37.193,65.587-40.345c-3.04-1.663-6.966-1.347-6.966-1.347
			s-51.277,5.42-73.622,41.691l4.576,8.08l4.576,8.08c4.851-0.057,9.55-0.647,14.072-1.639L121.469,111.671z"/>
	</g>
	<g>
		<path class="st10" d="M183.441,84.411c0,0,4.651,0.845,7.057,3.826c0.417,0.516,0.196,1.293-0.42,1.541l-4.031,1.622l-0.034,0.009
			c-0.143,0.038-0.274,0.097-0.399,0.165l-0.023,0.009l0.002,0.004c-0.702,0.397-1.08,1.226-0.861,2.041
			c0.259,0.967,1.253,1.541,2.22,1.282l4.358-0.574c0.653-0.086,1.223,0.473,1.125,1.124c-0.579,3.848-4.336,6.929-4.336,6.929
			s-40.626,31.753-81.903,21.216l-2.329-8.99l-2.329-8.989C132.508,76.375,183.441,84.411,183.441,84.411z"/>
	</g>
	<g>
		<path class="st18" d="M121.195,123.606l-2.329-8.99l-2.329-8.989c17.34-16.377,40.934-21.066,58.347-22.021
			c-15.828-0.878-50.173,0.133-73.347,22.021l2.329,8.989l2.329,8.99c8.506,2.171,16.983,2.544,25.083,1.772
			C127.936,125.041,124.568,124.467,121.195,123.606z"/>
	</g>
	<g>
		<g>
			<path class="st10" d="M187.418,106.532c0,0,4.273,2.02,5.826,5.522c0.269,0.606-0.146,1.3-0.804,1.38l-4.313,0.523h-0.036
				c-0.148,0-0.29,0.023-0.428,0.056l-0.025,0.003l0.001,0.004c-0.781,0.202-1.36,0.905-1.36,1.749c0,1.001,0.812,1.813,1.813,1.813
				l4.358,0.573c0.653,0.086,1.058,0.774,0.795,1.377c-1.555,3.567-5.981,5.571-5.981,5.571s-47.46,20.157-84.604-0.705l0.077-9.286
				l0.077-9.286C140.301,85.587,187.418,106.532,187.418,106.532z"/>
		</g>
	</g>
	<g>
		<path class="st18" d="M117.659,124.399l0.078-9.286l0.077-9.286c9.806-5.294,20.269-7.767,30.376-8.538
			c-14.302-1.02-30.588,0.553-45.376,8.538l-0.077,9.286l-0.078,9.286c15.243,8.561,32.221,10.212,46.945,9.185
			C138.981,132.794,127.926,130.165,117.659,124.399z"/>
	</g>
	<g>
		<path class="st10" d="M184.786,128.381c0,0,3.605,3.057,4.198,6.842c0.103,0.655-0.477,1.218-1.134,1.125l-4.301-0.611
			l-0.034-0.009c-0.143-0.038-0.286-0.053-0.428-0.056l-0.025-0.003l-0.001,0.004c-0.807-0.007-1.548,0.522-1.767,1.337
			c-0.259,0.967,0.315,1.961,1.282,2.22l4.061,1.682c0.608,0.252,0.822,1.021,0.412,1.536c-2.426,3.043-7.219,3.833-7.219,3.833
			s-51.059,7.186-81.539-22.578l2.478-8.949l2.478-8.949C144.696,95.955,184.786,128.381,184.786,128.381z"/>
	</g>
	<g>
		<path class="st18" d="M113.884,124.36l2.478-8.949l2.478-8.949c2.96-0.703,5.912-1.184,8.844-1.484
			c-7.704-0.746-15.747-0.44-23.844,1.484l-2.478,8.949l-2.478,8.949c23.961,23.399,60.636,23.961,75.228,23.132
			C156.54,146.529,131.699,141.757,113.884,124.36z"/>
	</g>
	<g>
		<path class="st10" d="M177.229,151.59c0,0,2.691,3.886,2.284,7.695c-0.07,0.659-0.776,1.053-1.386,0.793l-3.997-1.703
			l-0.031-0.018c-0.128-0.074-0.263-0.125-0.399-0.165l-0.023-0.01l-0.002,0.004c-0.777-0.216-1.631,0.103-2.053,0.834
			c-0.5,0.867-0.203,1.975,0.663,2.476l3.487,2.676c0.522,0.401,0.53,1.199,0,1.59c-3.131,2.312-7.965,1.834-7.965,1.834
			s-51.18-6.274-72.917-42.912l4.71-8.003l4.71-8.003C146.896,109.892,177.229,151.59,177.229,151.59z"/>
	</g>
	<g>
		<path class="st18" d="M109.892,124.683l4.71-8.003l3.626-6.16c-4.466-1.049-9.112-1.705-13.916-1.843l-4.71,8.003l-4.71,8.003
			c21.737,36.639,72.917,42.912,72.917,42.912s4.208,0.414,7.315-1.408C160.007,162.855,126.431,152.559,109.892,124.683z"/>
	</g>
	<g>
		<path class="st10" d="M163.389,171.986c0,0,1.594,4.45,0.215,8.024c-0.239,0.619-1.022,0.816-1.544,0.407l-3.42-2.68l-0.025-0.025
			c-0.105-0.105-0.221-0.189-0.342-0.263l-0.02-0.015l-0.003,0.004c-0.695-0.409-1.602-0.322-2.199,0.275
			c-0.708,0.708-0.708,1.855,0,2.563l2.676,3.487c0.401,0.522,0.201,1.296-0.411,1.536c-3.622,1.423-8.168-0.29-8.168-0.29
			s-47.812-19.306-59.326-60.322l6.621-6.511l6.621-6.511C144.882,123.859,163.389,171.986,163.389,171.986z"/>
	</g>
	<g>
		<path class="st18" d="M156.448,180.793c-14.341-7.706-42.201-26.093-50.626-56.107l6.621-6.511l2.331-2.292
			c-3.383-1.667-6.951-3.096-10.71-4.219l-6.621,6.511l-6.621,6.511c11.514,41.016,59.326,60.322,59.326,60.322
			s4.546,1.713,8.168,0.291c0.613-0.241,0.812-1.014,0.411-1.536L156.448,180.793z"/>
	</g>
	<g>
		<path class="st10" d="M145.655,186.485c0,0,0.387,4.711-1.869,7.806c-0.391,0.536-1.198,0.524-1.597-0.006l-2.61-3.473
			l-0.018-0.031c-0.074-0.128-0.165-0.24-0.263-0.342l-0.015-0.02l-0.003,0.003c-0.565-0.575-1.464-0.726-2.195-0.304
			c-0.867,0.5-1.164,1.609-0.663,2.476l1.682,4.061c0.252,0.608-0.141,1.303-0.795,1.377c-3.867,0.437-7.815-2.395-7.815-2.395
			s-41.186-31.023-41.691-73.621l8.081-4.576l8.08-4.576C140.236,135.208,145.655,186.485,145.655,186.485z"/>
	</g>
	<g>
		<g>
			<path class="st18" d="M136.422,192.593c-0.5-0.867-0.203-1.976,0.664-2.476c0.228-0.131,0.472-0.201,0.716-0.226
				c-11.687-10.852-34.622-36.152-34.999-67.876l7.85-4.445c-2.104-1.676-4.33-3.253-6.689-4.707l-8.08,4.576l-8.081,4.576
				c0.505,42.599,41.691,73.621,41.691,73.621s3.948,2.831,7.815,2.395c0.654-0.074,1.047-0.769,0.795-1.377L136.422,192.593z"/>
		</g>
		<g>
			<path class="st18" d="M141.125,192.869l1.064,1.416c0.258,0.343,0.686,0.466,1.062,0.367
				C142.7,194.205,141.983,193.609,141.125,192.869z"/>
		</g>
	</g>
	<g>
		<path class="st10" d="M126.143,195.911c0,0-0.845,4.651-3.826,7.057c-0.516,0.417-1.293,0.196-1.541-0.42l-1.622-4.031
			l-0.009-0.034c-0.038-0.143-0.097-0.274-0.165-0.399l-0.009-0.023l-0.004,0.002c-0.397-0.702-1.226-1.08-2.041-0.862
			c-0.967,0.259-1.541,1.253-1.282,2.22l0.574,4.358c0.086,0.653-0.473,1.223-1.124,1.125c-3.848-0.579-6.929-4.336-6.929-4.336
			s-31.753-40.626-21.216-81.903l8.99-2.329l8.989-2.329C134.179,144.979,126.143,195.911,126.143,195.911z"/>
	</g>
	<g>
		<path class="st18" d="M123.165,200.569c0,0-31.753-40.625-21.216-81.903l5.777-1.497c-0.894-1.073-1.824-2.129-2.798-3.161
			l-8.989,2.329l-8.989,2.329c-10.537,41.278,21.216,81.903,21.216,81.903s3.081,3.757,6.929,4.336
			c0.651,0.098,1.21-0.472,1.124-1.125l-0.574-4.358c-0.259-0.967,0.314-1.961,1.281-2.22c0.815-0.218,1.645,0.16,2.042,0.862
			l0.004-0.002l0.01,0.023c0.068,0.124,0.126,0.256,0.165,0.399l0.009,0.034l1.622,4.031c0.248,0.615,1.024,0.836,1.541,0.419
			c0.595-0.48,1.102-1.051,1.537-1.655C123.416,200.872,123.165,200.569,123.165,200.569z"/>
	</g>
	<g>
		<path class="st10" d="M93.777,199.887c0,0,2.02,4.273,5.522,5.826c0.606,0.269,1.3-0.146,1.38-0.804l0.523-4.313v-0.036
			c0-0.148,0.023-0.29,0.056-0.428l0.003-0.025l0.004,0.001c0.202-0.781,0.905-1.36,1.749-1.36c1.001,0,1.813,0.812,1.813,1.813
			l0.573,4.358c0.086,0.653,0.774,1.058,1.377,0.795c3.567-1.555,5.571-5.981,5.571-5.981s20.157-47.46-0.705-84.604l-9.286,0.077
			l-9.286,0.077C72.832,152.77,93.777,199.887,93.777,199.887z"/>
	</g>
	<g>
		<path class="st18" d="M105.777,199.887c0,0-20.945-47.117-0.705-84.604l6.625-0.055c-0.019-0.033-0.035-0.067-0.054-0.1
			l-9.286,0.077l-9.286,0.077c-20.24,37.487,0.705,84.604,0.705,84.604s2.02,4.273,5.522,5.826c0.606,0.269,1.3-0.146,1.379-0.804
			l0.523-4.313v-0.036c0-0.148,0.023-0.29,0.056-0.428l0.003-0.025l0.004,0c0.202-0.781,0.905-1.36,1.749-1.36
			c1.001,0,1.813,0.812,1.813,1.813l0.574,4.358c0.085,0.653,0.773,1.058,1.377,0.795c0.846-0.369,1.6-0.901,2.264-1.495
			C106.946,202.352,105.777,199.887,105.777,199.887z"/>
	</g>
	<g>
		<path class="st10" d="M71.656,195.91c0,0,0.845,4.651,3.826,7.057c0.516,0.417,1.293,0.196,1.541-0.42l1.622-4.031l0.009-0.034
			c0.038-0.143,0.097-0.274,0.165-0.399l0.009-0.023l0.004,0.002c0.397-0.702,1.226-1.08,2.041-0.861
			c0.967,0.259,1.541,1.253,1.282,2.22l-0.574,4.358c-0.086,0.653,0.473,1.223,1.124,1.125c3.848-0.579,6.929-4.336,6.929-4.336
			s31.753-40.626,21.216-81.903l-8.99-2.329l-8.989-2.329C63.62,144.978,71.656,195.91,71.656,195.91z"/>
	</g>
	<g>
		<g>
			<path class="st18" d="M83.657,195.91c0,0-7.608-48.248,18.958-79.38l-0.753-0.195l-8.989-2.329
				C63.62,144.978,71.657,195.91,71.657,195.91s0.845,4.65,3.826,7.057c0.516,0.417,1.293,0.196,1.541-0.42l1.622-4.031l0.009-0.034
				c0.038-0.143,0.097-0.274,0.165-0.399l0.01-0.023l0.004,0.002c0.397-0.702,1.226-1.08,2.042-0.861
				c0.967,0.259,1.541,1.253,1.282,2.22l-0.574,4.358c-0.086,0.652,0.473,1.222,1.124,1.125c1.758-0.265,3.351-1.192,4.568-2.122
				C84.467,200.331,83.657,195.91,83.657,195.91z"/>
		</g>
	</g>
	<g>
		<path class="st10" d="M52.144,186.484c0,0-0.387,4.711,1.869,7.806c0.391,0.536,1.198,0.524,1.597-0.006l2.61-3.473l0.018-0.031
			c0.074-0.128,0.165-0.24,0.263-0.342l0.015-0.02l0.004,0.003c0.565-0.575,1.464-0.726,2.195-0.304
			c0.867,0.5,1.164,1.609,0.663,2.476l-1.682,4.061c-0.252,0.608,0.141,1.303,0.795,1.377c3.867,0.437,7.815-2.395,7.815-2.395
			s41.186-31.023,41.691-73.621l-8.081-4.576l-8.08-4.576C57.564,135.207,52.144,186.484,52.144,186.484z"/>
	</g>
	<g>
		<path class="st18" d="M74.214,190.116c-0.731-0.422-1.629-0.271-2.195,0.304l-0.003-0.003L72,190.437
			c-0.098,0.103-0.188,0.214-0.263,0.343l-0.018,0.031l-2.61,3.474c-0.398,0.53-1.206,0.542-1.597,0.006
			c-2.257-3.096-1.87-7.806-1.87-7.806s4.807-45.44,35.632-69.408l-7.44-4.213c-36.271,22.344-41.691,73.622-41.691,73.622
			s-0.387,4.711,1.87,7.806c0.391,0.536,1.198,0.524,1.597-0.006l2.61-3.474l0.018-0.031c0.074-0.128,0.165-0.24,0.263-0.343
			l0.015-0.02l0.003,0.003c0.565-0.575,1.464-0.726,2.195-0.304c0.867,0.5,1.164,1.609,0.664,2.476l-1.683,4.061
			c-0.252,0.608,0.141,1.304,0.795,1.377c3.867,0.437,7.815-2.395,7.815-2.395s2.474-1.865,6.211-5.3
			C74.425,190.254,74.324,190.18,74.214,190.116z"/>
	</g>
	<g>
		<path class="st10" d="M34.411,171.985c0,0-1.594,4.45-0.215,8.024c0.239,0.619,1.022,0.816,1.544,0.407l3.42-2.68l0.025-0.025
			c0.105-0.105,0.221-0.189,0.342-0.263l0.02-0.015l0.003,0.004c0.695-0.409,1.602-0.322,2.199,0.275
			c0.708,0.708,0.708,1.855,0,2.563l-2.676,3.487c-0.401,0.522-0.201,1.296,0.411,1.536c3.622,1.423,8.168-0.29,8.168-0.29
			s47.812-19.306,59.326-60.322l-6.621-6.511l-6.621-6.511C52.917,123.857,34.411,171.985,34.411,171.985z"/>
	</g>
	<g>
		<path class="st18" d="M56.749,180.274c0.708-0.708,0.708-1.855,0-2.563c-0.597-0.597-1.504-0.684-2.199-0.274l-0.003-0.004
			l-0.02,0.015c-0.121,0.074-0.237,0.158-0.342,0.263l-0.025,0.025l-3.419,2.679c-0.522,0.409-1.306,0.212-1.544-0.407
			c-1.379-3.574,0.215-8.024,0.215-8.024s15.257-39.67,48.615-56.103l-4.29-4.219c-40.819,12.195-59.325,60.322-59.325,60.322
			s-1.594,4.45-0.215,8.024c0.239,0.619,1.022,0.816,1.544,0.407l3.419-2.679l0.025-0.025c0.105-0.105,0.221-0.189,0.342-0.263
			l0.02-0.015l0.003,0.004c0.695-0.409,1.602-0.322,2.199,0.274c0.708,0.708,0.708,1.855,0,2.563l-2.676,3.487
			c-0.401,0.522-0.202,1.295,0.411,1.536c3.623,1.422,8.168-0.291,8.168-0.291s3.443-1.391,8.7-4.216L56.749,180.274z"/>
	</g>
	<g>
		<path class="st10" d="M20.571,151.588c0,0-2.691,3.886-2.284,7.695c0.07,0.659,0.776,1.053,1.386,0.793l3.997-1.703l0.031-0.018
			c0.128-0.074,0.263-0.125,0.399-0.165l0.023-0.01l0.002,0.004c0.777-0.216,1.631,0.103,2.053,0.834
			c0.5,0.867,0.203,1.975-0.663,2.476l-3.487,2.676c-0.522,0.401-0.53,1.199,0,1.59c3.131,2.312,7.965,1.834,7.965,1.834
			s51.18-6.274,72.917-42.912l-4.71-8.003l-4.71-8.003C50.903,109.891,20.571,151.588,20.571,151.588z"/>
	</g>
	<g>
		<path class="st18" d="M40.025,164.17l3.487-2.675c0.867-0.5,1.164-1.609,0.664-2.476c-0.422-0.731-1.275-1.05-2.053-0.834
			l-0.001-0.004l-0.023,0.01c-0.136,0.04-0.271,0.091-0.399,0.165l-0.031,0.018l-3.997,1.703c-0.61,0.26-1.316-0.133-1.386-0.793
			c-0.407-3.809,2.284-7.695,2.284-7.695s22.7-31.197,56.392-40.406l-1.475-2.507c-42.584,1.215-72.917,42.913-72.917,42.913
			s-2.691,3.886-2.284,7.695c0.07,0.659,0.776,1.053,1.386,0.793l3.997-1.703l0.031-0.018c0.128-0.074,0.263-0.125,0.399-0.165
			l0.023-0.01l0.001,0.004c0.777-0.216,1.631,0.103,2.053,0.834c0.5,0.867,0.204,1.976-0.664,2.476l-3.487,2.675
			c-0.522,0.401-0.53,1.199,0,1.59c3.13,2.312,7.965,1.834,7.965,1.834s3.875-0.477,9.938-1.926
			C39.505,165.255,39.54,164.543,40.025,164.17z"/>
	</g>
	<g>
		<path class="st10" d="M12.421,129.038c0,0-3.605,3.057-4.198,6.842c-0.103,0.655,0.477,1.218,1.134,1.125l4.301-0.611l0.034-0.009
			c0.143-0.038,0.286-0.053,0.428-0.057l0.025-0.003l0.001,0.004c0.807-0.007,1.548,0.522,1.767,1.337
			c0.259,0.967-0.315,1.961-1.282,2.22l-4.061,1.682c-0.608,0.252-0.822,1.021-0.412,1.536c2.426,3.043,7.219,3.833,7.219,3.833
			s51.059,7.186,81.539-22.578l-2.478-8.949l-2.478-8.949C52.512,96.612,12.421,129.038,12.421,129.038z"/>
	</g>
	<g>
		<path class="st18" d="M35.377,146.937c0,0-4.793-0.79-7.219-3.833c-0.41-0.515-0.196-1.284,0.412-1.536l4.061-1.682
			c0.967-0.259,1.541-1.253,1.281-2.22c-0.218-0.815-0.96-1.344-1.767-1.337l0-0.004l-0.025,0.003
			c-0.142,0.003-0.285,0.018-0.428,0.057l-0.034,0.009l-4.302,0.611c-0.656,0.093-1.236-0.469-1.133-1.125
			c0.593-3.785,4.198-6.842,4.198-6.842s25.125-20.316,56.157-23.899c-38.699-4.776-74.157,23.899-74.157,23.899
			s-3.605,3.057-4.198,6.842c-0.103,0.655,0.477,1.218,1.133,1.125l4.302-0.611l0.034-0.009c0.143-0.039,0.286-0.053,0.428-0.057
			l0.025-0.003l0,0.004c0.807-0.007,1.548,0.522,1.767,1.337c0.259,0.967-0.314,1.961-1.281,2.22l-4.061,1.682
			c-0.608,0.252-0.822,1.021-0.412,1.536c2.426,3.043,7.219,3.833,7.219,3.833s9.543,1.341,22.838,0.462
			C37.145,147.185,35.377,146.937,35.377,146.937z"/>
	</g>
	<g>
		<path class="st10" d="M10.381,106.531c0,0-4.273,2.02-5.826,5.522c-0.269,0.606,0.146,1.3,0.804,1.38l4.313,0.523h0.036
			c0.148,0,0.29,0.023,0.428,0.056l0.025,0.003l-0.001,0.004c0.781,0.202,1.36,0.905,1.36,1.749c0,1.001-0.812,1.813-1.813,1.813
			l-4.358,0.573c-0.653,0.086-1.058,0.774-0.795,1.377c1.555,3.567,5.981,5.571,5.981,5.571s47.46,20.157,84.604-0.705l-0.077-9.286
			l-0.077-9.286C57.499,85.586,10.381,106.531,10.381,106.531z"/>
	</g>
	<g>
		<path class="st18" d="M28.536,125.102c0,0-4.426-2.003-5.981-5.571c-0.263-0.604,0.143-1.291,0.795-1.377l4.358-0.573
			c1.001,0,1.813-0.812,1.813-1.813c0-0.844-0.58-1.547-1.361-1.749l0.001-0.004l-0.025-0.003c-0.138-0.033-0.28-0.056-0.428-0.056
			h-0.036l-4.313-0.523c-0.659-0.08-1.073-0.773-0.804-1.38c1.552-3.502,5.826-5.522,5.826-5.522s16.471-7.32,37.682-9.122
			c-29.11-2.688-55.682,9.122-55.682,9.122s-4.273,2.02-5.826,5.522c-0.269,0.606,0.146,1.3,0.804,1.38l4.313,0.523h0.036
			c0.148,0,0.29,0.023,0.428,0.056l0.025,0.003l-0.001,0.004c0.781,0.202,1.361,0.905,1.361,1.749c0,1.001-0.812,1.813-1.813,1.813
			l-4.358,0.573c-0.653,0.086-1.059,0.774-0.795,1.377c1.555,3.567,5.981,5.571,5.981,5.571s25.721,10.922,54.112,8.363
			C44.239,131.769,28.536,125.102,28.536,125.102z"/>
	</g>
	<g>
		<path class="st10" d="M14.358,84.41c0,0-4.651,0.845-7.057,3.826c-0.417,0.516-0.196,1.293,0.42,1.541l4.031,1.622l0.034,0.009
			c0.143,0.038,0.274,0.097,0.399,0.165l0.023,0.009l-0.002,0.004c0.702,0.397,1.08,1.226,0.861,2.041
			c-0.259,0.967-1.253,1.541-2.22,1.282L6.49,94.336c-0.653-0.086-1.223,0.473-1.125,1.124c0.579,3.848,4.336,6.929,4.336,6.929
			s40.625,31.753,81.903,21.216l2.329-8.99l2.329-8.989C65.291,76.374,14.358,84.41,14.358,84.41z"/>
	</g>
	<g>
		<path class="st18" d="M26.201,102.389c0,0-3.757-3.081-4.336-6.929c-0.098-0.651,0.472-1.21,1.125-1.124l4.357,0.574
			c0.967,0.259,1.961-0.315,2.22-1.281c0.218-0.815-0.16-1.644-0.862-2.042l0.002-0.004l-0.023-0.01
			c-0.125-0.068-0.256-0.127-0.399-0.165l-0.035-0.009l-4.03-1.622c-0.615-0.248-0.836-1.025-0.419-1.541
			c2.406-2.981,7.056-3.826,7.056-3.826s2.933-0.461,7.81-0.76c-14.078-0.852-24.31,0.76-24.31,0.76s-4.65,0.845-7.056,3.826
			c-0.417,0.516-0.196,1.293,0.419,1.541l4.03,1.622l0.035,0.009c0.143,0.038,0.274,0.097,0.399,0.165l0.023,0.01l-0.002,0.004
			c0.702,0.397,1.08,1.226,0.862,2.042c-0.259,0.967-1.253,1.541-2.22,1.281L6.49,94.336c-0.653-0.086-1.223,0.473-1.125,1.124
			c0.579,3.848,4.336,6.929,4.336,6.929s34.71,27.126,72.562,22.91C51.396,122.076,26.201,102.389,26.201,102.389z"/>
	</g>
	<g>
		<path class="st10" d="M22.285,61.898c0,0-4.711-0.387-7.806,1.869c-0.536,0.391-0.524,1.198,0.006,1.597l3.473,2.61l0.031,0.018
			c0.128,0.074,0.24,0.165,0.342,0.263l0.02,0.015l-0.003,0.004c0.575,0.565,0.726,1.464,0.304,2.195
			c-0.5,0.867-1.609,1.164-2.476,0.663l-4.061-1.682c-0.608-0.252-1.303,0.141-1.377,0.795c-0.437,3.867,2.395,7.815,2.395,7.815
			s31.023,41.186,73.621,41.691l4.576-8.081l4.576-8.08C73.562,67.317,22.285,61.898,22.285,61.898z"/>
	</g>
	<g>
		<path class="st18" d="M25.133,78.058c0,0-2.832-3.948-2.395-7.815c0.074-0.654,0.77-1.047,1.377-0.795l4.061,1.682
			c0.867,0.5,1.976,0.203,2.476-0.664c0.422-0.731,0.271-1.629-0.304-2.195l0.003-0.004l-0.02-0.015
			c-0.103-0.098-0.214-0.188-0.343-0.262l-0.031-0.018l-3.473-2.61c-0.53-0.398-0.542-1.206-0.007-1.597
			c0.534-0.389,1.116-0.694,1.713-0.942c-3.696-0.693-5.906-0.928-5.906-0.928s-4.711-0.387-7.807,1.87
			c-0.536,0.391-0.523,1.198,0.007,1.597l3.473,2.61l0.031,0.018c0.128,0.074,0.24,0.165,0.343,0.262l0.02,0.015l-0.003,0.004
			c0.575,0.565,0.726,1.464,0.304,2.195c-0.5,0.867-1.609,1.164-2.476,0.664l-4.061-1.682c-0.608-0.252-1.303,0.141-1.377,0.795
			c-0.437,3.867,2.395,7.815,2.395,7.815s31.022,41.186,73.621,41.691l0.623-1.099C50.744,112.055,25.133,78.058,25.133,78.058z"/>
	</g>
	<g>
		<path class="st10" d="M36.784,42.664c0,0-4.45-1.594-8.024-0.215c-0.619,0.239-0.816,1.022-0.407,1.544l2.68,3.42l0.025,0.025
			c0.105,0.105,0.189,0.221,0.263,0.342l0.015,0.02l-0.004,0.003c0.409,0.695,0.322,1.602-0.275,2.199
			c-0.708,0.708-1.855,0.708-2.563,0l-3.487-2.676c-0.522-0.401-1.296-0.201-1.536,0.411c-1.423,3.622,0.29,8.168,0.29,8.168
			s19.306,47.812,60.322,59.325l6.511-6.621l6.511-6.621C84.911,61.171,36.784,42.664,36.784,42.664z"/>
	</g>
	<g>
		<path class="st18" d="M35.761,55.906c0,0-1.713-4.546-0.29-8.168c0.24-0.613,1.014-0.812,1.536-0.411l3.487,2.676
			c0.708,0.708,1.855,0.708,2.563,0c0.597-0.597,0.684-1.504,0.275-2.198l0.003-0.003l-0.015-0.02
			c-0.074-0.121-0.158-0.238-0.263-0.342l-0.025-0.025l-2.427-3.098c-2.406-1.107-3.821-1.651-3.821-1.651s-4.45-1.594-8.024-0.215
			c-0.619,0.239-0.816,1.022-0.407,1.544l2.68,3.42l0.025,0.025c0.105,0.105,0.189,0.221,0.263,0.342l0.015,0.02l-0.003,0.003
			c0.409,0.695,0.322,1.602-0.275,2.198c-0.708,0.708-1.855,0.708-2.563,0l-3.487-2.676c-0.522-0.401-1.296-0.201-1.536,0.411
			c-1.423,3.622,0.29,8.168,0.29,8.168s19.306,47.812,60.322,59.326l3.125-3.177C52.278,96.8,35.761,55.906,35.761,55.906z"/>
	</g>
	<g>
		<path class="st10" d="M57.18,28.824c0,0-3.886-2.691-7.695-2.284c-0.659,0.07-1.053,0.776-0.793,1.386l1.703,3.997l0.018,0.031
			c0.074,0.128,0.125,0.263,0.165,0.399l0.01,0.023l-0.004,0.002c0.216,0.777-0.103,1.631-0.834,2.053
			c-0.867,0.5-1.975,0.203-2.476-0.663l-2.676-3.487c-0.401-0.522-1.199-0.53-1.59,0c-2.312,3.131-1.834,7.965-1.834,7.965
			s6.274,51.18,42.912,72.917l8.003-4.71l8.003-4.71C98.878,59.157,57.18,28.824,57.18,28.824z"/>
	</g>
	<g>
		<path class="st18" d="M53.174,38.244c0,0-0.478-4.835,1.834-7.965c0.391-0.53,1.189-0.522,1.59,0l2.676,3.487
			c0.5,0.867,1.609,1.164,2.476,0.663c0.458-0.265,0.754-0.698,0.858-1.177c-3.301-2.88-5.428-4.429-5.428-4.429
			s-3.886-2.691-7.695-2.284c-0.659,0.07-1.053,0.776-0.793,1.386l1.703,3.997l0.018,0.031c0.074,0.128,0.125,0.262,0.165,0.399
			l0.01,0.023l-0.004,0.002c0.216,0.777-0.103,1.631-0.834,2.053c-0.867,0.5-1.975,0.203-2.476-0.663l-2.676-3.487
			c-0.401-0.522-1.199-0.53-1.59,0c-2.312,3.131-1.834,7.965-1.834,7.965s6.273,51.18,42.912,72.917l6.365-3.746
			C58.798,84.073,53.174,38.244,53.174,38.244z"/>
	</g>
	<g>
		<path class="st10" d="M81.23,20.675c0,0-3.057-3.605-6.842-4.198c-0.655-0.103-1.218,0.477-1.125,1.134l0.611,4.301l0.009,0.034
			c0.038,0.143,0.053,0.286,0.056,0.428l0.003,0.025l-0.004,0.001c0.007,0.807-0.522,1.548-1.337,1.767
			c-0.967,0.259-1.961-0.315-2.22-1.282L68.7,18.823c-0.252-0.608-1.021-0.822-1.536-0.412c-3.043,2.426-3.833,7.219-3.833,7.219
			S56.145,76.69,85.91,107.169l8.949-2.478l8.949-2.478C113.656,60.765,81.23,20.675,81.23,20.675z"/>
	</g>
	<g>
		<g>
			<path class="st18" d="M73.832,25.631c0,0,0.79-4.794,3.833-7.219c0.231-0.184,0.513-0.237,0.777-0.19
				c-1.135-0.781-2.533-1.507-4.053-1.745c-0.655-0.103-1.218,0.477-1.125,1.134l0.611,4.302l0.009,0.034
				c0.038,0.143,0.053,0.286,0.056,0.428l0.003,0.025l-0.004,0.001c0.007,0.807-0.522,1.548-1.337,1.767
				c-0.967,0.259-1.961-0.315-2.22-1.282L68.7,18.823c-0.252-0.608-1.021-0.822-1.536-0.412c-3.043,2.426-3.833,7.219-3.833,7.219
				s-7.186,51.059,22.578,81.539l8.354-2.313C67.004,74.18,73.832,25.631,73.832,25.631z"/>
		</g>
	</g>
	<g>
		<path class="st10" d="M108.237,18.635c0,0-2.02-4.273-5.522-5.826c-0.606-0.269-1.3,0.146-1.38,0.804l-0.523,4.313v0.036
			c0,0.148-0.023,0.29-0.056,0.428l-0.003,0.025l-0.004-0.001c-0.202,0.781-0.905,1.36-1.749,1.36c-1.001,0-1.813-0.812-1.813-1.813
			l-0.573-4.358c-0.086-0.653-0.774-1.058-1.377-0.795c-3.567,1.555-5.571,5.981-5.571,5.981s-20.157,47.46,0.705,84.604
			l9.286-0.077l9.286-0.077C129.182,65.752,108.237,18.635,108.237,18.635z"/>
	</g>
	<g>
		<g>
			<path class="st18" d="M99.856,19.557c-0.254,0.138-0.545,0.218-0.856,0.218c-1.001,0-1.813-0.812-1.813-1.813l-0.573-4.358
				c-0.086-0.653-0.773-1.059-1.377-0.795c-3.567,1.555-5.571,5.981-5.571,5.981s-20.157,47.46,0.705,84.604l9.286-0.077l1.167-0.01
				C81.586,68.933,97.4,25.778,99.856,19.557z"/>
		</g>
	</g>
	<g>
		<path class="st17" d="M112.599,137.413L112.599,137.413c-13.832,5.668-29.64-0.95-35.308-14.782l0,0
			c-5.668-13.832,0.95-29.64,14.782-35.308l0,0c13.832-5.668,29.64,0.95,35.308,14.782l0,0
			C133.049,115.937,126.431,131.745,112.599,137.413z"/>
	</g>
	<g>
		<path class="st5" d="M99.747,131.77c-6.194-0.815-11.685-4.603-14.634-10.11c-5.559-10.38-0.81-23.048,9.803-27.397
			c3.185-1.305,6.577-1.748,10.008-1.297c6.194,0.815,11.685,4.603,14.634,10.11c5.559,10.38,0.81,23.048-9.803,27.397
			C106.57,131.778,103.178,132.222,99.747,131.77z"/>
	</g>
	<g>
		<path class="st1" d="M96.791,122.631L96.791,122.631c-5.668-13.832,0.95-29.64,14.782-35.308l0,0
			c0.171-0.07,0.343-0.129,0.514-0.196c-6.227-2.407-13.349-2.536-20.014,0.196l0,0c-13.832,5.668-20.45,21.476-14.782,35.308l0,0
			c5.598,13.661,21.086,20.277,34.794,14.978C105.389,135.021,99.727,129.798,96.791,122.631z"/>
	</g>
	<g>
		<path class="st0" d="M103.112,92.824c-0.262-0.01-0.522-0.029-0.787-0.029c-2.539,0-5.032,0.494-7.409,1.468
			c-9.983,4.091-14.777,15.541-10.686,25.524c3.025,7.383,10.136,12.154,18.115,12.154c0.259,0,0.518-0.009,0.776-0.019
			c-2.661-2.541-4.845-5.667-6.331-9.292C92.45,112.039,95.321,100.293,103.112,92.824z"/>
	</g>
	<g>
		<circle class="st0" cx="106.209" cy="116.644" r="8.75"/>
	</g>
</g>
</svg>
