<?xml version="1.0" encoding="utf-8"?>
<!-- Generator: Adobe Illustrator 22.0.1, SVG Export Plug-In . SVG Version: 6.00 Build 0)  -->
<svg version="1.1" id="Layer_1" xmlns="http://www.w3.org/2000/svg" xmlns:xlink="http://www.w3.org/1999/xlink" x="0px" y="0px"
	 viewBox="0 0 128 128" style="enable-background:new 0 0 128 128;" xml:space="preserve">
<style type="text/css">
	.st0{fill:#3A2C60;}
	.st1{fill:#E6E7E8;}
	.st2{fill:#FA759E;}
	.st3{fill:#FFFFFF;}
	.st4{fill:#6DC9F7;}
	.st5{fill:#FFD7E5;}
	.st6{fill:#0089EF;}
	.st7{fill:#D4FBFF;}
	.st8{fill:#F5F6F9;}
	.st9{fill:#D0D2D3;}
</style>
<g>
	<path class="st1" d="M95.838,87.848l0.002-0.009c-0.002,0.001-0.004,0.003-0.006,0.004c-2.998-3.508-6.831-6.277-11.194-8.001
		c1.641-1.092,3.111-2.134,4.232-3.04c8.199-6.63,13.482-17.039,13.482-28.743c0-17.773-12.186-32.55-28.264-35.651
		c0.234-0.588,0.371-1.225,0.371-1.896c0-2.844-2.305-5.149-5.149-5.149c-2.844,0-5.149,2.305-5.149,5.149
		c0,0.513,0.098,0.998,0.237,1.465C46.923,13.773,33.266,29.24,33.266,48.058c0,12.272,5.808,23.12,14.695,29.681
		c0.913,0.674,2.055,1.45,3.325,2.277c-4.181,1.734-7.856,4.437-10.752,7.826c-0.002-0.001-0.004-0.003-0.006-0.004l0.002,0.009
		c-4.247,4.973-6.817,11.422-6.817,18.475v2.454v14.37v2.454H48.23h40.873h13.552v-2.454v-14.37v-2.454
		C102.656,99.27,100.086,92.821,95.838,87.848z"/>
	<g>
		<g>
			<g>
				<g>
					<path class="st3" d="M77.195,77.068c-6.902,4.421-17.307,9.867-17.307,9.867s-10.46-5.601-16.984-9.684
						c-10.071,4.387-17.114,14.424-17.114,26.11v16.824h68.944v-16.824C94.734,91.511,87.492,81.355,77.195,77.068z"/>
					<path class="st4" d="M74.707,78.617c-6.661,4.047-14.819,8.318-14.819,8.318s-8.115-4.345-14.508-8.171
						c-11.373,3.733-19.59,14.429-19.59,27.051v16.824h68.944v-16.824C94.734,93.031,86.308,82.215,74.707,78.617z"/>
					<g>
						<path class="st3" d="M72.913,87.877c-3.173,2.566-7.638,4.175-12.606,4.175c-4.992,0-9.475-1.624-12.651-4.212
							c-5.049,4.113-8.312,10.633-8.312,17.976c0,6.699,0.965,16.823,0.965,16.823h40.873c0,0,0-10.124,0-16.823
							C81.181,98.495,77.936,91.992,72.913,87.877z"/>
					</g>
					<path class="st2" d="M59.888,86.935c0,0-8.319-4.455-14.747-8.315c-0.762,0.22-1.512,0.461-2.244,0.734
						c0.504,7.075,8.094,12.698,17.409,12.698c9.28,0,16.848-5.58,17.404-12.617c-0.918-0.35-1.863-0.657-2.829-0.923
						C68.189,82.59,59.888,86.935,59.888,86.935z"/>
				</g>
			</g>
		</g>
		
			<ellipse transform="matrix(0.9732 -0.2298 0.2298 0.9732 -19.9278 16.3641)" class="st5" cx="60.308" cy="93.757" rx="5.802" ry="5.802"/>
		<path class="st3" d="M59.888,8.836c-19.078,0-34.544,16.234-34.544,36.26c0,12.272,5.808,23.12,14.695,29.681
			c5.616,4.146,19.848,12.158,19.848,12.158s15.232-8.382,21.062-13.096c8.199-6.63,13.482-17.039,13.482-28.743
			C94.432,25.07,78.966,8.836,59.888,8.836z"/>
		<path class="st4" d="M59.888,12.66c-19.078,0-34.544,15.44-34.544,34.485c0,11.671,5.808,21.988,14.695,28.228
			c5.616,3.943,19.848,11.563,19.848,11.563s15.232-7.971,21.062-12.454c8.199-6.305,13.482-16.205,13.482-27.336
			C94.432,28.099,78.966,12.66,59.888,12.66z"/>
		<g>
			<path class="st6" d="M83.653,48.336c1.325,0,2.459,1.109,2.985,2.699c0-2.558,0-7.417,0-7.417
				c0-17.033-13.21-25.632-26.424-25.678c-13.223-0.046-26.45,8.473-26.45,25.678c0,0.017,0,4.863,0,7.417
				c0.525-1.59,1.66-2.699,2.985-2.699c0.48,0,0.933,0.152,1.345,0.412c0.207-5.067,1.681-10.007,4.323-14.35v0
				c1.05-1.725,2.419-3.185,3.998-4.344c3.525,3.391,11.306,9.821,20.276,10.538c6.53,0.522,11.288-0.765,13.562-1.585
				c1.22,3.1,1.926,6.386,2.067,9.731C82.728,48.483,83.177,48.336,83.653,48.336z"/>
		</g>
		<g>
			<path class="st3" d="M83.653,48.336c-0.475,0-0.924,0.148-1.333,0.403c0.017,0.41,0.03,0.82,0.03,1.231v3.359
				c0,1.263-0.111,2.5-0.315,3.705c0.48,0.384,1.027,0.621,1.617,0.621c1.823,0,3.301-2.086,3.301-4.66S85.476,48.336,83.653,48.336
				z"/>
			<path class="st3" d="M38.051,53.329V49.97c0-0.409,0.025-0.815,0.042-1.222c-0.412-0.26-0.865-0.412-1.345-0.412
				c-1.823,0-3.301,2.086-3.301,4.66s1.478,4.66,3.301,4.66c0.591,0,1.138-0.237,1.617-0.621
				C38.163,55.829,38.051,54.592,38.051,53.329z"/>
		</g>
		<path class="st3" d="M80.253,39.007c-2.274,0.82-7.033,2.107-13.562,1.585c-8.97-0.718-16.752-7.148-20.276-10.538
			c-1.578,1.159-2.948,2.618-3.998,4.344v0c-2.855,4.692-4.365,10.08-4.365,15.572v3.359c0,12.233,9.916,22.149,22.149,22.149
			c12.233,0,22.149-9.917,22.149-22.149V49.97C82.35,46.201,81.622,42.487,80.253,39.007z"/>
		<g>
			<g>
				<path class="st5" d="M72.832,56.325c-1.086,0-1.967,0.555-1.967,1.24c0,0.685,0.881,1.24,1.967,1.24
					c1.086,0,1.967-0.555,1.967-1.24C74.8,56.88,73.919,56.325,72.832,56.325z"/>
				<path class="st5" d="M47.569,56.049c-1.086,0-1.967,0.555-1.967,1.24c0,0.685,0.881,1.24,1.967,1.24
					c1.086,0,1.967-0.555,1.967-1.24C49.536,56.604,48.655,56.049,47.569,56.049z"/>
			</g>
			<path class="st2" d="M60.201,66.966c-3.395,0-5.123-2.341-5.194-2.441c-0.33-0.457-0.227-1.095,0.23-1.425
				c0.454-0.329,1.09-0.228,1.421,0.225c0.058,0.077,1.232,1.599,3.543,1.599c2.267,0,3.505-1.552,3.557-1.618
				c0.344-0.443,0.985-0.526,1.429-0.184c0.445,0.342,0.532,0.976,0.194,1.423C65.306,64.643,63.508,66.966,60.201,66.966z"/>
		</g>
		<circle class="st2" cx="61.39" cy="7.549" r="5.149"/>
		<circle class="st3" cx="37.436" cy="111.448" r="8.153"/>
		<g>
			<circle class="st3" cx="83.221" cy="111.77" r="8.153"/>
			<g>
				<path class="st0" d="M88.793,84.417c-0.012-0.022-0.012-0.047-0.026-0.069c-0.071-0.114-0.162-0.206-0.263-0.28
					c-2.684-3.087-5.998-5.606-9.741-7.368c1.063-0.738,2.023-1.443,2.815-2.083c8.804-7.119,13.854-17.879,13.854-29.521
					c0-7.72-2.232-15.125-6.456-21.417c-0.307-0.458-0.929-0.583-1.387-0.273c-0.458,0.308-0.581,0.929-0.273,1.387
					c4.001,5.961,6.116,12.982,6.116,20.303c0,11.035-4.779,21.229-13.111,27.965c-5.112,4.134-17.783,11.256-20.428,12.728
					c-2.54-1.441-14.338-8.184-19.259-11.817c-8.947-6.604-14.289-17.399-14.289-28.876c0-17.989,12.887-32.859,29.463-34.983
					c0.974,2.112,3.107,3.585,5.582,3.585c2.283,0,4.275-1.254,5.336-3.106c2.427,0.527,4.796,1.317,7.078,2.412
					c0.498,0.24,1.095,0.03,1.334-0.469c0.239-0.498,0.029-1.095-0.469-1.334c-2.337-1.122-4.76-1.939-7.242-2.499
					c0.071-0.374,0.112-0.759,0.112-1.154c0-3.391-2.759-6.149-6.149-6.149S55.24,4.158,55.24,7.549c0,0.206,0.011,0.41,0.031,0.611
					c-17.424,2.381-30.927,18.032-30.927,36.937c0,12.109,5.646,23.505,15.102,30.485c0.554,0.409,1.191,0.855,1.885,1.325
					c-3.601,1.767-6.795,4.238-9.39,7.245c-0.066,0.06-0.135,0.117-0.185,0.196c-0.011,0.018-0.011,0.038-0.021,0.056
					c-4.326,5.128-6.946,11.738-6.946,18.957v16.824c0,0.552,0.448,1,1,1h68.944c0.552,0,1-0.448,1-1v-16.824
					C95.734,96.147,93.114,89.543,88.793,84.417z M61.39,3.399c2.288,0,4.149,1.861,4.149,4.149s-1.861,4.149-4.149,4.149
					S57.24,9.837,57.24,7.549S59.102,3.399,61.39,3.399z M60.295,91.782c-0.552,0-1,0.448-1,1v5.615c0,0.019,0.01,0.035,0.011,0.054
					c-2.168-0.462-3.801-2.39-3.801-4.694c0-2.648,2.154-4.802,4.802-4.802s4.802,2.154,4.802,4.802c0,2.314-1.645,4.25-3.827,4.702
					c0.001-0.022,0.012-0.04,0.012-0.062v-5.615C61.295,92.23,60.848,91.782,60.295,91.782z M43.293,78.201
					c5.297,3.419,12.465,7.537,15.096,9.034c-2.819,0.831-4.883,3.438-4.883,6.522c0,3.751,3.051,6.802,6.802,6.802
					s6.802-3.051,6.802-6.802c0-3.287-2.343-6.035-5.446-6.666c2.848-1.594,9.768-5.528,15.144-9.07
					c3.661,1.53,6.926,3.819,9.586,6.685c-3.997,2.93-6.352,7.536-6.352,12.553v5.938c-3.482,1.296-5.974,4.644-5.974,8.572
					c0,3.051,1.506,5.751,3.808,7.415h-35.57c2.569-1.623,4.284-4.48,4.284-7.737c0-3.978-2.555-7.362-6.107-8.621V97.26
					c0-5.02-2.358-9.629-6.358-12.558C36.681,81.946,39.803,79.729,43.293,78.201z M83.221,118.923
					c-3.944,0-7.153-3.209-7.153-7.153s3.209-7.153,7.153-7.153c3.944,0,7.153,3.209,7.153,7.153S87.165,118.923,83.221,118.923z
					 M44.589,111.448c0,3.944-3.209,7.153-7.153,7.153s-7.153-3.209-7.153-7.153s3.209-7.153,7.153-7.153
					S44.589,107.504,44.589,111.448z M26.79,103.361c0-6.471,2.25-12.424,6.008-17.122c3.563,2.548,5.685,6.592,5.685,11.02v5.1
					c-0.344-0.039-0.692-0.064-1.046-0.064c-5.047,0-9.153,4.106-9.153,9.153c0,3.257,1.715,6.114,4.284,7.737H26.79V103.361z
					 M93.734,119.185h-5.168c2.302-1.664,3.808-4.364,3.808-7.415c0-5.047-4.106-9.153-9.153-9.153c-0.4,0-0.792,0.035-1.179,0.085
					V97.26c0-4.426,2.118-8.467,5.677-11.015c3.758,4.698,6.014,10.646,6.014,17.117V119.185z"/>
				<path class="st0" d="M83.473,20.024c0.196,0.204,0.458,0.307,0.721,0.307c0.25,0,0.5-0.093,0.693-0.279
					c0.398-0.383,0.41-1.016,0.027-1.414c-1.574-1.636-3.301-3.125-5.134-4.424c-0.452-0.321-1.075-0.213-1.394,0.237
					c-0.32,0.451-0.213,1.075,0.237,1.394C80.354,17.072,81.985,18.478,83.473,20.024z"/>
				<path class="st0" d="M60.217,16.94c-0.037,0-0.073,0-0.11,0c-7.745,0-15.04,2.845-20.027,7.814
					c-3.589,3.576-5.909,8.138-6.845,13.387c-1.211,3.203-1.883,6.674-1.883,10.307c0,2.076,0.491,4.233,1.332,6.414
					c0.176,0.683,0.445,1.302,0.791,1.834c6.625,14.076,26.56,28.522,26.56,28.522s19.064-13.81,26.105-27.581
					c1.057-0.971,1.748-2.557,1.805-4.397c0.492-1.627,0.772-3.232,0.772-4.792c0-3-0.462-5.89-1.301-8.611
					C85.591,24.2,72.474,16.983,60.217,16.94z M41.492,26.171c4.615-4.599,11.395-7.231,18.615-7.231c0.034,0,0.069,0,0.103,0
					c12.247,0.042,25.427,7.783,25.427,24.678v4.34c-0.591-0.396-1.263-0.622-1.984-0.622c-0.141,0-0.281,0.013-0.419,0.03
					c-0.254-2.97-0.937-5.896-2.05-8.725c-0.199-0.503-0.764-0.758-1.27-0.574c-2.186,0.789-6.802,2.035-13.143,1.529
					c-8.538-0.684-15.984-6.723-19.663-10.263c-0.351-0.337-0.893-0.373-1.285-0.085c-1.731,1.271-3.165,2.829-4.261,4.63
					c-2.498,4.106-3.986,8.725-4.388,13.489c-0.141-0.018-0.282-0.031-0.425-0.031c-0.721,0-1.394,0.226-1.985,0.623v-4.34
					C34.764,36.591,37.09,30.558,41.492,26.171z M37.051,49.97v3.359c0,0.5,0.021,0.995,0.053,1.488
					c0.006,0.089,0.014,0.178,0.02,0.268c0.036,0.472,0.084,0.941,0.148,1.404c0.002,0.017,0.003,0.034,0.005,0.05
					c-1.454,0.628-2.83-1.283-2.83-3.544c0-1.984,1.054-3.66,2.301-3.66c0.104,0,0.21,0.013,0.316,0.04
					C37.057,49.573,37.051,49.771,37.051,49.97z M83.276,55.085c0.007-0.089,0.015-0.178,0.02-0.268
					c0.031-0.492,0.053-0.988,0.053-1.488V49.97c0-0.199-0.003-0.398-0.007-0.596c1.354-0.334,2.611,1.474,2.611,3.622
					c0,2.261-1.376,4.172-2.83,3.544c0.002-0.017,0.003-0.034,0.005-0.05C83.192,56.025,83.241,55.557,83.276,55.085z M81.35,49.97
					v3.359c0,0.656-0.04,1.303-0.098,1.944c-0.026,0.28-0.069,0.56-0.107,0.84c-1.37,10.348-10.228,18.366-20.944,18.366
					c-10.716,0-19.575-8.018-20.945-18.366c-0.037-0.28-0.08-0.56-0.106-0.839c-0.059-0.641-0.098-1.288-0.098-1.944V49.97
					c0-0.377,0.024-0.752,0.039-1.127l0.002-0.054c0-0.001,0-0.003,0-0.004c0.201-4.897,1.624-9.669,4.179-13.867
					c0.818-1.344,1.852-2.534,3.081-3.547c4.055,3.769,11.574,9.524,20.26,10.219c5.924,0.475,10.454-0.508,13.045-1.325
					C80.78,43.409,81.35,46.669,81.35,49.97z"/>
				<path class="st0" d="M63.073,54.606c-0.552,0-1,0.448-1,1v1.477c0,0.837-0.682,1.519-1.519,1.519s-1.519-0.682-1.519-1.519
					v-1.477c0-0.552-0.448-1-1-1s-1,0.448-1,1v1.477c0,1.94,1.579,3.519,3.519,3.519s3.519-1.579,3.519-3.519v-1.477
					C64.073,55.054,63.625,54.606,63.073,54.606z"/>
				<path class="st0" d="M52.52,44.928c0-0.552-0.448-1-1-1c-3.405,0-5.993,2.781-6.101,2.899c-0.373,0.407-0.345,1.037,0.061,1.41
					c0.192,0.177,0.435,0.264,0.677,0.264c0.27,0,0.538-0.108,0.735-0.321c0.021-0.023,2.114-2.252,4.628-2.252
					C52.072,45.928,52.52,45.48,52.52,44.928z"/>
				<path class="st0" d="M69.302,43.928c-0.552,0-1,0.448-1,1s0.448,1,1,1c2.501,0,4.587,2.208,4.628,2.252
					c0.197,0.214,0.466,0.323,0.736,0.323c0.241,0,0.483-0.087,0.675-0.263c0.407-0.374,0.435-1.006,0.062-1.413
					C75.294,46.709,72.706,43.928,69.302,43.928z"/>
				<path class="st0" d="M50.429,51.027c-1.223,0-2.215,0.992-2.215,2.215s0.992,2.215,2.215,2.215s2.215-0.992,2.215-2.215
					S51.652,51.027,50.429,51.027z"/>
				<path class="st0" d="M69.972,51.027c-1.223,0-2.215,0.992-2.215,2.215s0.992,2.215,2.215,2.215s2.215-0.992,2.215-2.215
					S71.195,51.027,69.972,51.027z"/>
				<path class="st0" d="M60.262,118.305c6.956,0,12.615-5.659,12.615-12.616c0-0.552-0.448-1-1-1H48.646c-0.552,0-1,0.448-1,1
					C47.646,112.646,53.306,118.305,60.262,118.305z M70.831,106.689c-0.505,5.386-5.052,9.616-10.568,9.616
					s-10.063-4.229-10.569-9.616H70.831z"/>
			</g>
		</g>
	</g>
</g>
</svg>
