<?xml version="1.0" encoding="utf-8"?>
<!-- Generator: Adobe Illustrator 22.0.1, SVG Export Plug-In . SVG Version: 6.00 Build 0)  -->
<svg version="1.1" id="Layer_1" xmlns="http://www.w3.org/2000/svg" xmlns:xlink="http://www.w3.org/1999/xlink" x="0px" y="0px"
	 viewBox="0 0 128 128" style="enable-background:new 0 0 128 128;" xml:space="preserve">
<style type="text/css">
	.st0{fill:#3A2C60;}
	.st1{fill:#E6E7E8;}
	.st2{fill:#FA759E;}
	.st3{fill:#FFFFFF;}
	.st4{fill:#6DC9F7;}
	.st5{fill:#FFD7E5;}
	.st6{fill:#0089EF;}
	.st7{fill:#D4FBFF;}
	.st8{fill:#F5F6F9;}
	.st9{fill:#D0D2D3;}
</style>
<g>
	<path class="st1" d="M123.761,57.73c-6.359-26.605-29.97-45.187-57.419-45.187c-28.696,0-53.142,20.436-58.127,48.593
		c-0.047,0.265,0.014,0.539,0.168,0.758c0.154,0.221,0.39,0.371,0.655,0.418l53.058,9.323l-4.346,1.031
		c-0.262,0.061-0.488,0.226-0.629,0.454c-0.141,0.23-0.185,0.506-0.123,0.767c0.981,4.105,4.375,7.079,8.478,7.604v5.363
		c-1.941,0.461-3.394,2.198-3.394,4.278c0,1.511,0.766,2.846,1.928,3.64c-1.79,0.909-3.021,2.763-3.021,4.904v17.603
		c0,0.56,0.454,1.014,1.014,1.014h8.974c0.56,0,1.014-0.453,1.014-1.014V99.678c0-2.141-1.232-3.995-3.021-4.904
		c1.162-0.794,1.928-2.129,1.928-3.64c0-2.08-1.453-3.817-3.394-4.278v-5.304c4.564-0.327,8.36-3.689,9.167-8.243
		c0.047-0.265-0.013-0.539-0.168-0.758c-0.154-0.221-0.39-0.371-0.655-0.418l-4.828-0.848l51.989-12.332
		c0.262-0.061,0.488-0.226,0.629-0.454C123.779,58.268,123.823,57.991,123.761,57.73z"/>
	<g>
		<g>
			<circle class="st4" cx="62.488" cy="88.281" r="3.394"/>
			<path class="st4" d="M62.488,92.338c-2.478,0-4.487,2.009-4.487,4.487v17.604h8.974V96.825
				C66.975,94.347,64.966,92.338,62.488,92.338z"/>
		</g>
		<g>
			<path class="st3" d="M62.34,68.5L5.211,58.461c4.87-27.507,29.092-47.756,57.128-47.756c26.771,0,50.232,18.462,56.433,44.408
				L62.34,68.5z"/>
			<path class="st2" d="M65.054,70.797L7.926,60.758c4.87-27.507,29.092-47.756,57.128-47.756c26.771,0,50.232,18.462,56.433,44.408
				L65.054,70.797z"/>
			<path class="st2" d="M62.772,68.715l8.898,1.564c-0.758,4.284-4.531,7.438-8.898,7.438c-4.17,0-7.824-2.876-8.79-6.917
				L62.772,68.715z"/>
			<path class="st3" d="M62.34,68.5l-18.744-3.294c1.598-9.025,9.545-15.669,18.744-15.669c8.784,0,16.481,6.058,18.516,14.571
				L62.34,68.5z"/>
		</g>
		<g>
			<path class="st0" d="M34.176,62.535l-6.046-1.063c-0.544-0.093-1.063,0.27-1.158,0.813c-0.096,0.544,0.268,1.063,0.812,1.158
				l6.046,1.062c0.058,0.01,0.117,0.015,0.174,0.015c0.477,0,0.898-0.342,0.984-0.827C35.084,63.149,34.72,62.631,34.176,62.535z"/>
			<path class="st0" d="M119.745,54.881C113.389,28.282,89.783,9.705,62.34,9.705C33.65,9.705,9.21,30.137,4.227,58.287
				c-0.046,0.261,0.014,0.53,0.166,0.747c0.152,0.218,0.385,0.366,0.646,0.412l15.694,2.758c0.54,0.093,1.062-0.27,1.158-0.813
				c0.096-0.544-0.268-1.063-0.812-1.158L6.379,57.65c5.203-26.685,28.578-45.945,55.96-45.945
				c26.178,0,48.742,17.493,55.219,42.668L62.31,67.48L39.82,63.526c-0.548-0.094-1.063,0.269-1.158,0.812
				c-0.096,0.544,0.268,1.063,0.812,1.158l18.687,3.284l-4.41,1.046c-0.258,0.061-0.481,0.223-0.621,0.448
				c-0.139,0.227-0.183,0.499-0.121,0.757c0.98,4.103,4.375,7.075,8.479,7.595v5.385c-1.941,0.455-3.394,2.192-3.394,4.269
				c0,1.515,0.77,2.853,1.94,3.643c-1.795,0.903-3.033,2.758-3.033,4.901v17.604c0,0.553,0.448,1,1,1h8.974c0.552,0,1-0.447,1-1
				V96.825c0-2.143-1.238-3.998-3.034-4.901c1.17-0.79,1.94-2.128,1.94-3.643c0-2.078-1.453-3.814-3.394-4.269v-5.327
				c4.564-0.321,8.361-3.68,9.167-8.232c0.046-0.262-0.014-0.531-0.166-0.748c-0.152-0.218-0.385-0.366-0.646-0.412l-4.892-0.859
				l52.052-12.348c0.258-0.061,0.481-0.223,0.621-0.448C119.763,55.411,119.807,55.139,119.745,54.881z M65.975,96.825v16.604H63.67
				v-11.827c0-0.553-0.448-1-1-1s-1,0.447-1,1v11.827h-2.669V96.825c0-1.923,1.564-3.487,3.487-3.487S65.975,94.902,65.975,96.825z
				 M64.882,88.281c0,1.319-1.074,2.394-2.394,2.394c-1.32,0-2.394-1.074-2.394-2.394c0-1.32,1.074-2.395,2.394-2.395
				C63.808,85.887,64.882,86.961,64.882,88.281z M62.772,76.717c-3.339,0-6.356-2.131-7.521-5.19l7.552-1.791l7.647,1.344
				C69.423,74.398,66.339,76.717,62.772,76.717z"/>
		</g>
		<path class="st3" d="M68.31,34.941l2.141,0.732c0.102,0.035,0.477,0.155,0.616,0.116c2.601-0.726,4.533-2.397,5.03-4.138
			l-1.799-0.66c-0.183-0.067-0.395-0.088-0.564,0.007c-0.021,0.012-0.045,0.022-0.07,0.028l-1.982,0.495
			c-0.025,0.006-0.05,0.009-0.074,0.009c-0.136,0-0.26-0.092-0.295-0.23c-0.041-0.163,0.058-0.328,0.221-0.369l1.982-0.495
			c0.011-0.003,0.022-0.005,0.032-0.006c0.2-0.027,0.382-0.125,0.508-0.282l1.202-1.501c-1.327-1.232-3.845-1.662-6.446-0.937
			c-0.502,0.14-1.447,0.747-1.511,0.838l-1.109,1.575c-0.059,0.084-0.153,0.129-0.249,0.129c-0.061,0-0.121-0.018-0.175-0.056
			c-0.137-0.097-0.17-0.286-0.073-0.424l1.109-1.575c0.014-0.02,0.03-0.038,0.048-0.053c0.16-0.14,0.297-0.306,0.326-0.516
			c0.064-0.462,0.099-0.926,0.099-1.383c-0.001-2.701-1.161-5.009-2.802-5.956l-1.202,1.575c-0.122,0.16-0.175,0.36-0.151,0.56
			c0.001,0.012,0.002,0.024,0.002,0.037l-0.018,2.127c-0.002,0.167-0.137,0.301-0.304,0.301c-0.001,0-0.002,0-0.003,0
			c-0.168-0.002-0.303-0.139-0.301-0.307l0.018-2.127c0-0.007,0-0.014,0.001-0.021c0.016-0.204-0.026-0.407-0.151-0.57l-1.204-1.573
			c-1.639,0.948-2.797,3.258-2.795,5.959c0,0.73,0.462,2.211,0.538,2.296l1.458,1.656c0.111,0.126,0.099,0.318-0.027,0.429
			c-0.058,0.051-0.129,0.076-0.201,0.076c-0.084,0-0.168-0.035-0.228-0.103l-1.458-1.656c-0.016-0.019-0.03-0.039-0.041-0.06
			c-0.101-0.194-0.233-0.373-0.434-0.457c-0.44-0.184-0.889-0.343-1.341-0.468c-2.602-0.723-5.101-0.354-6.402,0.789l1.218,1.43
			c0.133,0.157,0.328,0.228,0.531,0.262c0.022,0.004,0.045,0.01,0.067,0.02l1.843,0.785c0.154,0.066,0.227,0.244,0.161,0.399
			c-0.049,0.116-0.162,0.185-0.28,0.185c-0.04,0-0.08-0.008-0.119-0.025l-1.843-0.785c-0.083-0.035-2.362,0.551-2.362,0.551
			c0.525,1.65,2.476,3.255,5.078,3.978c0.152,0.042,0.565-0.083,0.676-0.113l1.839-0.498c0.162-0.043,0.329,0.052,0.373,0.214
			c0.044,0.162-0.052,0.329-0.214,0.373l-1.839,0.498c-0.027,0.007-0.053,0.011-0.08,0.011c-0.083,0-0.591,0.282-0.764,0.481
			c-1.771,2.039-2.406,4.546-1.784,6.341l1.945-0.397c0.188-0.038,0.376-0.133,0.469-0.301c0.012-0.021,0.026-0.041,0.044-0.059
			l1.455-1.517c0.116-0.121,0.309-0.125,0.43-0.009c0.121,0.116,0.125,0.309,0.009,0.43l-1.525,1.759
			c-0.06,0.062-0.315,2.275-0.315,2.275c1.864,0.365,4.257-0.616,6.028-2.655c0.446-0.513,1.029-1.841,1.03-1.955l0.023-2.334
			c0.002-0.168,0.144-0.31,0.307-0.301c0.168,0.002,0.303,0.139,0.301,0.307l-0.023,2.334c-0.001,0.113,0.594,1.47,1.051,1.996
			c1.773,2.037,4.181,3.003,6.066,2.619c0,0-0.331-2.483-0.391-2.563l-1.005-1.34c-0.101-0.134-0.074-0.325,0.061-0.426
			c0.134-0.101,0.325-0.074,0.426,0.061l1.005,1.34c0.054,0.072,2.455,0.707,2.455,0.707c0.641-1.813,0.016-4.332-1.757-6.369
			c-0.084-0.096-0.391-0.196-0.468-0.196c-0.033,0-0.066-0.005-0.098-0.017l-2.141-0.732c-0.159-0.054-0.244-0.227-0.189-0.386
			C67.978,34.972,68.152,34.887,68.31,34.941z M67.665,33.27c-0.21,0-0.4-0.078-0.549-0.204l-3.377,0.869l1.944,2.615
			c0.408,0.065,0.72,0.415,0.721,0.841c0,0.118-0.024,0.231-0.067,0.333c-0.021,0.161-0.103,0.313-0.243,0.418
			c-0.111,0.083-0.241,0.123-0.37,0.123c-0.037,0-0.07-0.018-0.107-0.025c-0.023,0.002-0.045,0.007-0.068,0.007
			c-0.472,0-0.855-0.382-0.856-0.855c0-0.028,0.006-0.055,0.008-0.082l-2.006-2.697l-1.939,2.674
			c0.005,0.036,0.011,0.071,0.011,0.107c0,0.472-0.382,0.855-0.855,0.856c-0.472,0-0.855-0.382-0.856-0.855
			c0-0.418,0.3-0.765,0.697-0.84l1.892-2.609l-3.166-0.783c-0.124,0.07-0.264,0.113-0.416,0.113c-0.472,0-0.855-0.382-0.856-0.855
			c0-0.472,0.382-0.855,0.855-0.856c0.302,0,0.566,0.157,0.719,0.394l3.294,0.815l0.026-3.274c-0.142-0.153-0.23-0.355-0.23-0.58
			c0-0.472,0.382-0.855,0.855-0.856c0.472,0,0.855,0.382,0.856,0.855c0,0.23-0.092,0.438-0.239,0.591l-0.025,3.252l3.762-0.968
			c0.153-0.145,0.358-0.235,0.585-0.235c0.472,0,0.855,0.382,0.856,0.855C68.52,32.887,68.137,33.27,67.665,33.27z"/>
	</g>
</g>
</svg>
