<?xml version="1.0" encoding="utf-8"?>
<!-- Generator: Adobe Illustrator 22.1.0, SVG Export Plug-In . SVG Version: 6.00 Build 0)  -->
<svg version="1.1" id="Layer_1" xmlns="http://www.w3.org/2000/svg" xmlns:xlink="http://www.w3.org/1999/xlink" x="0px" y="0px"
	 viewBox="0 0 256 256" style="enable-background:new 0 0 256 256;" xml:space="preserve">
<style type="text/css">
	.st0{fill:#A56021;}
	.st1{fill:#E58D23;}
	.st2{fill:#FCE575;}
	.st3{fill:#FFF4C1;}
	.st4{fill:#FFD551;}
	.st5{fill:#BF6C0D;}
	.st6{fill:#8C4C17;}
	.st7{fill:#FF624B;}
	.st8{fill:#FF4B34;}
	.st9{fill:#DB9C2E;}
	.st10{fill:#FFC34C;}
	.st11{fill:#F9BB32;}
	.st12{fill:#FF9079;}
	.st13{fill:#FCDA4F;}
	.st14{fill:#EACF32;}
	.st15{fill:#CCC033;}
	.st16{fill:#99AF17;}
	.st17{fill:#FFA730;}
	.st18{fill:#FFB74B;}
	.st19{fill:#FFDF74;}
	.st20{fill:#FFD59A;}
	.st21{fill:#FCF9DE;}
	.st22{fill:#FFEACF;}
	.st23{fill:#FFEA63;}
	.st24{fill:#FFEEA4;}
	.st25{fill:#FFF9DC;}
</style>
<g>
	<g>
		<g>
			<path class="st15" d="M73.05,21.176c-0.724-0.247-1.33,0.038-1.326,0.619c0.158,21.458,12.931,31.153,12.931,31.153l0,0
				c2.477,2.113,5.481,3.819,8.73,4.799c8.613,2.598,15.678-0.884,15.781-7.777c0.005-0.348-0.008-0.698-0.038-1.05
				C109.008,34.295,79.685,23.445,73.05,21.176z"/>
		</g>
		<g>
			<path class="st16" d="M98.065,51.932c-3.248-0.98-6.253-2.685-8.73-4.799c0,0-10.148-7.703-12.465-24.573
				c-1.603-0.61-2.921-1.077-3.82-1.384c-0.724-0.248-1.33,0.038-1.326,0.619c0.158,21.458,12.931,31.153,12.931,31.153
				c2.477,2.113,5.481,3.819,8.73,4.799c7.868,2.374,14.441-0.329,15.599-6.069C106.142,53.015,102.291,53.207,98.065,51.932z"/>
		</g>
	</g>
	<g>
		<g>
			<path class="st15" d="M36.17,97.541c-0.687,0.337-0.914,0.967-0.5,1.375c15.285,15.061,31.172,12.885,31.172,12.885h0
				c3.246-0.257,6.576-1.176,9.566-2.78c7.927-4.253,10.461-11.711,5.66-16.658c-0.242-0.25-0.5-0.488-0.769-0.715
				C70.873,81.392,42.465,94.454,36.17,97.541z"/>
		</g>
		<g>
			<path class="st16" d="M75.606,101.601c-2.99,1.604-6.32,2.523-9.566,2.78c0,0-12.623,1.729-26.19-8.562
				c-1.565,0.702-2.827,1.304-3.68,1.722c-0.687,0.337-0.914,0.967-0.5,1.375c15.285,15.061,31.172,12.885,31.172,12.885
				c3.246-0.257,6.576-1.176,9.566-2.78c7.242-3.885,9.979-10.444,6.739-15.321C82.083,96.656,79.495,99.514,75.606,101.601z"/>
		</g>
	</g>
	<g>
		<g>
			<path class="st15" d="M219.559,108.366c0.757-0.112,1.165-0.643,0.895-1.158c-9.969-19.002-25.764-21.77-25.764-21.77h0
				c-3.17-0.744-6.622-0.884-9.958-0.267c-8.846,1.635-13.532,7.967-10.466,14.141c0.155,0.312,0.327,0.617,0.515,0.915
				C181.585,113.174,212.622,109.388,219.559,108.366z"/>
		</g>
		<g>
			<path class="st16" d="M183.235,92.484c3.336-0.617,6.788-0.477,9.958,0.267c0,0,12.549,2.199,22.336,16.134
				c1.705-0.192,3.09-0.381,4.03-0.519c0.757-0.111,1.165-0.643,0.895-1.158c-9.969-19.002-25.764-21.77-25.764-21.77
				c-3.17-0.744-6.622-0.884-9.958-0.267c-8.081,1.494-12.687,6.907-11.086,12.539C175.559,95.221,178.894,93.286,183.235,92.484z"
				/>
		</g>
	</g>
	<g>
		<g>
			<path class="st15" d="M182.241,21.97c0.251-0.722-0.032-1.331-0.613-1.329c-21.458,0.06-31.212,12.789-31.212,12.789v0
				c-2.125,2.467-3.844,5.464-4.838,8.708c-2.638,8.601,0.812,15.682,7.705,15.817c0.348,0.007,0.698-0.005,1.05-0.033
				C168.958,57.868,179.942,28.594,182.241,21.97z"/>
		</g>
		<g>
			<path class="st16" d="M151.371,46.844c0.995-3.244,2.714-6.24,4.838-8.708c0,0,7.75-10.113,24.63-12.353
				c0.618-1.6,1.09-2.916,1.401-3.814c0.251-0.723-0.032-1.331-0.613-1.329c-21.458,0.06-31.212,12.789-31.212,12.789
				c-2.125,2.467-3.844,5.464-4.838,8.708c-2.41,7.857,0.263,14.443,5.997,15.626C150.251,54.916,150.077,51.064,151.371,46.844z"/>
		</g>
	</g>
	<g>
		<path class="st0" d="M110.003,247.89H99.298c-2.209,0-4-1.791-4-4V222h18.705v21.89
			C114.003,246.099,112.213,247.89,110.003,247.89z"/>
	</g>
	<g>
		<path class="st0" d="M156.188,247.89h-10.705c-2.209,0-4-1.791-4-4V222h18.705v21.89
			C160.188,246.099,158.397,247.89,156.188,247.89z"/>
	</g>
	<g>
		<path class="st6" d="M104.298,243.89v-21.89h-9v21.89c0,2.209,1.791,4,4,4h9C106.089,247.89,104.298,246.099,104.298,243.89z"/>
	</g>
	<g>
		<path class="st6" d="M150.483,243.89v-21.89h-9v21.89c0,2.209,1.791,4,4,4h9C152.274,247.89,150.483,246.099,150.483,243.89z"/>
	</g>
	<g>
		<path class="st1" d="M172.572,234.945H85.237c-5.01,0-9.247-3.708-9.912-8.674l-13.345-99.735h132.714l-12.196,99.623
			C181.884,231.175,177.625,234.945,172.572,234.945z"/>
	</g>
	<g>
		<path class="st5" d="M105.325,226.271l-13.345-99.735h-30l13.345,99.735c0.665,4.966,4.901,8.674,9.912,8.674h30
			C110.226,234.945,105.989,231.237,105.325,226.271z"/>
	</g>
	<g>
		<polygon class="st5" points="64.532,145.616 192.358,145.616 194.694,126.536 61.979,126.536 		"/>
	</g>
	<g>
		<path class="st0" d="M202.965,136.616H53.708c-2.761,0-5-2.239-5-5v-11.682c0-2.761,2.239-5,5-5h149.257c2.761,0,5,2.239,5,5
			v11.682C207.965,134.377,205.727,136.616,202.965,136.616z"/>
	</g>
	<g>
		<path class="st6" d="M78.708,131.616v-11.682c0-2.761,2.239-5,5-5h-30c-2.761,0-5,2.239-5,5v11.682c0,2.761,2.239,5,5,5h30
			C80.947,136.616,78.708,134.377,78.708,131.616z"/>
	</g>
	<g>
		<path class="st17" d="M173.568,228.066c-0.122,0-0.244-0.007-0.368-0.022c-1.645-0.201-2.814-1.697-2.613-3.342l8.707-71.124
			c0.201-1.646,1.718-2.815,3.342-2.613c1.645,0.201,2.814,1.697,2.613,3.342l-8.707,71.124
			C176.356,226.951,175.063,228.066,173.568,228.066z"/>
	</g>
	<g>
		<circle class="st5" cx="127.058" cy="222" r="8.75"/>
	</g>
	<g>
		<path class="st19" d="M54.819,63.944L54.819,63.944c0,0-2.284,0.081-3.154,1.465l0.001-0.003
			c-0.489,0.665-0.599,1.389-0.599,1.389l0.001-0.003c-0.407,1.572,1.137,3.208,1.137,3.208s13.005,13.161,28.442,11.553
			l1.307-3.029l0,0l1.307-3.029C73.61,63.698,54.819,63.944,54.819,63.944z"/>
	</g>
	<g>
		<path class="st4" d="M58.766,73.184c0,0-1.543-1.636-1.137-3.208l-0.001,0.003c0,0,0.11-0.724,0.599-1.389l-0.001,0.003
			c0.869-1.384,3.154-1.465,3.154-1.465s7.543-0.097,15.525,2.831c-9.805-6.173-22.085-6.014-22.085-6.014s-2.284,0.081-3.154,1.465
			l0.001-0.003c-0.489,0.665-0.599,1.389-0.599,1.389l0.001-0.003c-0.407,1.572,1.137,3.208,1.137,3.208s6.182,6.255,15.081,9.614
			C62.055,76.511,58.766,73.184,58.766,73.184z"/>
	</g>
	<g>
		<path class="st19" d="M74.365,50.328L74.365,50.328c0,0-1.674-1.51-3.298-1.127l0.003-0.001c-0.831,0.135-1.436,0.571-1.436,0.571
			l0.003-0.001c-1.433,0.833-1.534,3.049-1.534,3.049S67.706,71.046,79.793,80.5l3.132-1.245l0,0l3.132-1.245
			C87.83,63.045,74.365,50.328,74.365,50.328z"/>
	</g>
	<g>
		<path class="st4" d="M73.568,52.818c0,0,0.066-1.446,0.848-2.441c-0.032-0.031-0.051-0.049-0.051-0.049s-1.674-1.51-3.298-1.127
			l0.003-0.001c-0.831,0.135-1.436,0.571-1.436,0.571l0.003-0.001c-1.433,0.833-1.534,3.049-1.534,3.049S67.706,71.046,79.793,80.5
			l3.132-1.245l0.609-0.242C73.213,69.261,73.568,52.818,73.568,52.818z"/>
	</g>
	<g>
		<path class="st19" d="M98.251,51.584L98.251,51.584c0,0-0.084-2.216-1.51-3.06l0.003,0.001c-0.686-0.475-1.432-0.582-1.432-0.582
			l0.003,0.001c-1.621-0.394-3.307,1.103-3.307,1.103S78.443,61.666,80.1,76.643l3.122,1.268l0,0l3.122,1.268
			C98.504,69.815,98.251,51.584,98.251,51.584z"/>
	</g>
	<g>
		<path class="st4" d="M96.381,51.17c0,0,0.686-0.608,1.602-0.947c-0.21-0.623-0.582-1.308-1.243-1.698l0.003,0.001
			c-0.686-0.475-1.432-0.582-1.432-0.582l0.003,0.001c-1.621-0.394-3.307,1.103-3.307,1.103S78.443,61.666,80.1,76.643l3.122,1.268
			l1.217,0.495C83.035,63.586,96.381,51.17,96.381,51.17z"/>
	</g>
	<g>
		<path class="st19" d="M113.303,71.805L113.303,71.805c0,0,1.556-1.624,1.162-3.2l0.001,0.003
			c-0.139-0.806-0.589-1.394-0.589-1.394l0.001,0.003c-0.859-1.391-3.142-1.489-3.142-1.489s-18.788-0.384-28.532,11.344
			l1.283,3.038l0,0l1.283,3.038C100.196,84.869,113.303,71.805,113.303,71.805z"/>
	</g>
	<g>
		<path class="st4" d="M83.738,80.701c10.051-10.014,26.999-9.669,26.999-9.669s1.49,0.064,2.516,0.822
			c0.032-0.032,0.051-0.05,0.051-0.05s1.556-1.624,1.162-3.2l0.001,0.003c-0.139-0.806-0.589-1.394-0.589-1.394l0.001,0.003
			c-0.859-1.391-3.142-1.489-3.142-1.489s-18.788-0.384-28.532,11.344l1.283,3.038L83.738,80.701z"/>
	</g>
	<g>
		<path class="st19" d="M112.181,96.814L112.181,96.814c0,0,2.284-0.081,3.154-1.465l-0.001,0.003
			c0.489-0.665,0.599-1.389,0.599-1.389l-0.001,0.003c0.407-1.572-1.137-3.208-1.137-3.208S101.79,77.595,86.353,79.203
			l-1.307,3.029l0,0l-1.307,3.029C93.391,97.059,112.181,96.814,112.181,96.814z"/>
	</g>
	<g>
		<path class="st4" d="M86.353,84.507c14.8-1.541,27.362,10.49,28.374,11.486c0.236-0.175,0.446-0.387,0.608-0.644l-0.001,0.003
			c0.489-0.665,0.6-1.389,0.6-1.389l-0.001,0.003c0.407-1.572-1.137-3.208-1.137-3.208S101.79,77.596,86.353,79.203l-1.307,3.029
			l-1.307,3.029c0.493,0.603,1.011,1.173,1.549,1.715L86.353,84.507z"/>
	</g>
	<g>
		<path class="st19" d="M92.636,110.43L92.636,110.43c0,0,1.674,1.51,3.298,1.127l-0.003,0.001c0.831-0.135,1.436-0.571,1.436-0.571
			l-0.003,0.001c1.433-0.833,1.534-3.049,1.534-3.049s0.396-18.228-11.692-27.682l-3.132,1.245l0,0l-3.132,1.245
			C79.171,97.712,92.636,110.43,92.636,110.43z"/>
	</g>
	<g>
		<path class="st4" d="M98.052,110.38c-0.885-0.856-13.352-13.198-11.641-27.633l2.522-1.003c-0.545-0.515-1.119-1.013-1.726-1.487
			l-3.132,1.245l-3.132,1.245c-1.774,14.965,11.692,27.682,11.692,27.682s1.674,1.51,3.298,1.127l-0.003,0.001
			c0.831-0.135,1.436-0.571,1.436-0.571l-0.003,0.001C97.64,110.828,97.866,110.617,98.052,110.38z"/>
	</g>
	<g>
		<path class="st19" d="M68.75,109.173L68.75,109.173c0,0,0.084,2.216,1.51,3.06l-0.003-0.001c0.686,0.475,1.432,0.582,1.432,0.582
			l-0.003-0.001c1.621,0.394,3.307-1.103,3.307-1.103s13.565-12.618,11.908-27.596l-3.122-1.268l0,0l-3.122-1.268
			C68.497,90.943,68.75,109.173,68.75,109.173z"/>
	</g>
	<g>
		<path class="st4" d="M74.217,109.173c0,0-0.226-16.414,10.141-26.093l-0.578-0.235l-3.122-1.268
			c-12.161,9.365-11.908,27.595-11.908,27.595s0.084,2.216,1.51,3.06l-0.003-0.001c0.686,0.475,1.432,0.582,1.432,0.582
			l-0.003-0.001c1.621,0.394,3.307-1.103,3.307-1.103s0.025-0.024,0.069-0.066C74.272,110.642,74.217,109.173,74.217,109.173z"/>
	</g>
	<g>
		<path class="st19" d="M53.628,88.433L53.628,88.433c0,0-1.556,1.624-1.162,3.2l-0.001-0.003c0.139,0.806,0.589,1.394,0.589,1.394
			l-0.001-0.003c0.859,1.391,3.142,1.489,3.142,1.489s18.788,0.384,28.532-11.344l-1.283-3.038l0,0l-1.283-3.038
			C66.736,75.368,53.628,88.433,53.628,88.433z"/>
	</g>
	<g>
		<path class="st4" d="M62.755,91.858c0,0-2.284-0.098-3.142-1.489l0.001,0.003c0,0-0.45-0.587-0.589-1.394l0.001,0.003
			c-0.394-1.575,1.162-3.2,1.162-3.2s4.262-4.246,10.784-7.578c-10.078,2.99-17.344,10.23-17.344,10.23s-1.556,1.624-1.162,3.2
			l-0.001-0.003c0.139,0.806,0.589,1.394,0.589,1.394l-0.001-0.003c0.859,1.391,3.142,1.489,3.142,1.489S66.9,94.727,76.34,89.79
			C69.107,91.987,62.755,91.858,62.755,91.858z"/>
	</g>
	<g>
		<path class="st17" d="M87.055,89.035L87.055,89.035c-5.041,2.004-10.802-0.336-12.868-5.227l0,0
			c-2.066-4.891,0.346-10.481,5.387-12.485l0,0c5.041-2.004,10.802,0.336,12.868,5.227l0,0
			C94.508,81.441,92.096,87.03,87.055,89.035z"/>
	</g>
	<g>
		<path class="st5" d="M83.318,87.1c-2.908,0-5.499-1.687-6.602-4.298c-1.491-3.53,0.256-7.579,3.894-9.025
			c0.866-0.344,1.775-0.519,2.7-0.519c2.908,0,5.499,1.687,6.602,4.298c1.491,3.53-0.256,7.579-3.894,9.025
			C85.152,86.925,84.244,87.1,83.318,87.1z"/>
	</g>
	<g>
		<path class="st1" d="M81.294,83.808L81.294,83.808c-2.066-4.891,0.346-10.481,5.387-12.485l0,0
			c0.062-0.025,0.125-0.046,0.187-0.069c-2.27-0.851-4.865-0.897-7.294,0.069l0,0c-5.041,2.004-7.453,7.594-5.387,12.485l0,0
			c2.04,4.831,7.685,7.17,12.681,5.296C84.427,88.189,82.364,86.342,81.294,83.808z"/>
	</g>
	<g>
		<path class="st0" d="M83.598,73.268c-0.096-0.004-0.19-0.01-0.287-0.01c-0.925,0-1.834,0.175-2.7,0.519
			c-3.638,1.446-5.385,5.495-3.894,9.025c1.103,2.611,3.694,4.298,6.602,4.298c0.094,0,0.189-0.003,0.283-0.007
			c-0.97-0.899-1.766-2.004-2.307-3.286C79.712,80.062,80.758,75.909,83.598,73.268z"/>
	</g>
	<g>
		<path class="st19" d="M99.656,82.214L99.656,82.214c0,0-2.284,0.081-3.154,1.465l0.001-0.003
			c-0.489,0.665-0.599,1.389-0.599,1.389l0.001-0.003c-0.407,1.572,1.137,3.208,1.137,3.208s13.005,13.161,28.442,11.553
			l1.307-3.029l0,0l1.307-3.029C118.446,81.968,99.656,82.214,99.656,82.214z"/>
	</g>
	<g>
		<path class="st4" d="M103.602,91.453c0,0-1.543-1.636-1.137-3.208l-0.001,0.003c0,0,0.11-0.724,0.599-1.389l-0.001,0.003
			c0.869-1.384,3.154-1.465,3.154-1.465s7.543-0.097,15.525,2.831c-9.805-6.173-22.085-6.014-22.085-6.014s-2.284,0.081-3.154,1.465
			l0.001-0.003c-0.489,0.665-0.599,1.389-0.599,1.389l0.001-0.003c-0.407,1.572,1.137,3.208,1.137,3.208s6.182,6.255,15.081,9.614
			C106.891,94.781,103.602,91.453,103.602,91.453z"/>
	</g>
	<g>
		<path class="st19" d="M119.201,68.598L119.201,68.598c0,0-1.674-1.51-3.298-1.127l0.003-0.001
			c-0.831,0.135-1.436,0.571-1.436,0.571l0.003-0.001c-1.433,0.833-1.534,3.049-1.534,3.049s-0.396,18.228,11.692,27.682
			l3.132-1.245l0,0l3.132-1.245C132.666,81.315,119.201,68.598,119.201,68.598z"/>
	</g>
	<g>
		<path class="st4" d="M118.404,71.088c0,0,0.066-1.446,0.848-2.441c-0.032-0.031-0.051-0.049-0.051-0.049s-1.674-1.51-3.298-1.127
			l0.003-0.001c-0.831,0.135-1.436,0.571-1.436,0.571l0.003-0.001c-1.433,0.833-1.534,3.049-1.534,3.049
			s-0.396,18.228,11.692,27.682l3.132-1.245l0.609-0.242C118.049,87.531,118.404,71.088,118.404,71.088z"/>
	</g>
	<g>
		<path class="st19" d="M143.087,69.854L143.087,69.854c0,0-0.084-2.216-1.51-3.06l0.003,0.001
			c-0.686-0.475-1.432-0.582-1.432-0.582l0.003,0.001c-1.621-0.394-3.307,1.103-3.307,1.103s-13.565,12.618-11.908,27.596
			l3.122,1.268l0,0l3.122,1.268C143.34,88.085,143.087,69.854,143.087,69.854z"/>
	</g>
	<g>
		<path class="st4" d="M141.217,69.439c0,0,0.686-0.608,1.602-0.947c-0.21-0.623-0.582-1.308-1.243-1.698l0.003,0.001
			c-0.686-0.475-1.432-0.582-1.432-0.582l0.003,0.001c-1.621-0.394-3.307,1.103-3.307,1.103s-13.565,12.618-11.908,27.596
			l3.122,1.268l1.217,0.495C127.872,81.856,141.217,69.439,141.217,69.439z"/>
	</g>
	<g>
		<path class="st19" d="M158.14,90.074L158.14,90.074c0,0,1.556-1.624,1.162-3.2l0.001,0.003c-0.139-0.806-0.589-1.394-0.589-1.394
			l0.001,0.003c-0.859-1.391-3.142-1.489-3.142-1.489s-18.788-0.384-28.532,11.344l1.283,3.038l0,0l1.283,3.038
			C145.032,103.139,158.14,90.074,158.14,90.074z"/>
	</g>
	<g>
		<path class="st4" d="M128.574,98.971c10.051-10.014,26.999-9.669,26.999-9.669s1.49,0.064,2.516,0.822
			c0.032-0.032,0.051-0.05,0.051-0.05s1.556-1.624,1.162-3.2l0.001,0.003c-0.139-0.806-0.589-1.394-0.589-1.394l0.001,0.003
			c-0.859-1.391-3.142-1.489-3.142-1.489s-18.788-0.384-28.532,11.344l1.283,3.038L128.574,98.971z"/>
	</g>
	<g>
		<path class="st19" d="M157.018,115.084L157.018,115.084c0,0,2.284-0.081,3.154-1.465l-0.001,0.003
			c0.489-0.665,0.599-1.389,0.599-1.389l-0.001,0.003c0.407-1.572-1.137-3.208-1.137-3.208s-13.005-13.161-28.442-11.553
			l-1.307,3.029l0,0l-1.307,3.029C138.228,115.329,157.018,115.084,157.018,115.084z"/>
	</g>
	<g>
		<path class="st4" d="M131.189,102.777c14.8-1.541,27.362,10.49,28.374,11.486c0.236-0.175,0.446-0.387,0.608-0.644l-0.001,0.003
			c0.489-0.665,0.6-1.389,0.6-1.389l-0.001,0.003c0.407-1.572-1.137-3.208-1.137-3.208s-13.005-13.161-28.442-11.553l-1.307,3.029
			l-1.307,3.029c0.493,0.603,1.011,1.173,1.549,1.715L131.189,102.777z"/>
	</g>
	<g>
		<path class="st19" d="M137.473,128.699L137.473,128.699c0,0,1.674,1.51,3.298,1.127l-0.003,0.001
			c0.831-0.135,1.436-0.571,1.436-0.571l-0.003,0.001c1.433-0.833,1.534-3.049,1.534-3.049s0.396-18.228-11.692-27.682l-3.132,1.245
			l0,0l-3.132,1.245C124.007,115.982,137.473,128.699,137.473,128.699z"/>
	</g>
	<g>
		<path class="st4" d="M142.888,128.65c-0.885-0.856-13.352-13.198-11.641-27.633l2.522-1.003c-0.545-0.515-1.119-1.013-1.726-1.487
			l-3.132,1.245l-3.132,1.245c-1.774,14.965,11.692,27.682,11.692,27.682s1.674,1.51,3.298,1.127l-0.003,0.001
			c0.831-0.135,1.436-0.571,1.436-0.571l-0.003,0.001C142.477,129.098,142.702,128.887,142.888,128.65z"/>
	</g>
	<g>
		<path class="st19" d="M113.586,127.443L113.586,127.443c0,0,0.084,2.216,1.51,3.06l-0.003-0.001
			c0.686,0.475,1.432,0.582,1.432,0.582l-0.003-0.001c1.621,0.394,3.307-1.103,3.307-1.103s13.565-12.618,11.908-27.596
			l-3.122-1.268l0,0l-3.122-1.268C113.333,109.213,113.586,127.443,113.586,127.443z"/>
	</g>
	<g>
		<path class="st4" d="M119.053,127.443c0,0-0.226-16.414,10.141-26.093l-0.578-0.235l-3.122-1.268
			c-12.161,9.365-11.908,27.595-11.908,27.595s0.084,2.216,1.51,3.06l-0.003-0.001c0.686,0.475,1.432,0.582,1.432,0.582
			l-0.003-0.001c1.621,0.394,3.307-1.103,3.307-1.103s0.025-0.024,0.069-0.066C119.108,128.912,119.053,127.443,119.053,127.443z"/>
	</g>
	<g>
		<path class="st19" d="M98.464,106.703L98.464,106.703c0,0-1.556,1.624-1.162,3.2l-0.001-0.003
			c0.139,0.806,0.589,1.394,0.589,1.394l-0.001-0.003c0.859,1.391,3.142,1.489,3.142,1.489s18.788,0.384,28.532-11.344l-1.283-3.038
			l0,0l-1.283-3.038C111.572,93.638,98.464,106.703,98.464,106.703z"/>
	</g>
	<g>
		<path class="st4" d="M107.591,110.127c0,0-2.284-0.098-3.142-1.489l0.001,0.003c0,0-0.45-0.587-0.589-1.394l0.001,0.003
			c-0.394-1.575,1.162-3.2,1.162-3.2s4.262-4.246,10.784-7.578c-10.078,2.99-17.344,10.23-17.344,10.23s-1.556,1.624-1.162,3.2
			l-0.001-0.003c0.139,0.806,0.589,1.394,0.589,1.394l-0.001-0.003c0.859,1.391,3.142,1.489,3.142,1.489s10.706,0.217,20.146-4.72
			C113.943,110.256,107.591,110.127,107.591,110.127z"/>
	</g>
	<g>
		<path class="st17" d="M131.891,107.304L131.891,107.304c-5.041,2.004-10.802-0.336-12.868-5.227l0,0
			c-2.066-4.891,0.346-10.481,5.387-12.485l0,0c5.041-2.004,10.802,0.336,12.868,5.227l0,0
			C139.344,99.711,136.932,105.3,131.891,107.304z"/>
	</g>
	<g>
		<path class="st5" d="M128.155,105.37c-2.908,0-5.499-1.687-6.602-4.298c-1.491-3.53,0.256-7.579,3.894-9.025
			c0.866-0.344,1.775-0.519,2.7-0.519c2.908,0,5.499,1.687,6.602,4.298c1.491,3.53-0.256,7.579-3.894,9.025
			C129.988,105.195,129.08,105.37,128.155,105.37z"/>
	</g>
	<g>
		<path class="st1" d="M126.13,102.078L126.13,102.078c-2.066-4.891,0.346-10.481,5.387-12.485l0,0
			c0.062-0.025,0.125-0.046,0.187-0.069c-2.27-0.851-4.865-0.897-7.294,0.069l0,0c-5.041,2.004-7.453,7.594-5.387,12.485l0,0
			c2.04,4.831,7.685,7.17,12.681,5.296C129.264,106.458,127.2,104.612,126.13,102.078z"/>
	</g>
	<g>
		<path class="st0" d="M128.434,91.538c-0.096-0.004-0.19-0.01-0.287-0.01c-0.925,0-1.834,0.175-2.7,0.519
			c-3.638,1.446-5.385,5.495-3.894,9.025c1.103,2.611,3.694,4.298,6.602,4.298c0.094,0,0.189-0.003,0.283-0.007
			c-0.97-0.899-1.766-2.004-2.307-3.286C124.548,98.332,125.594,94.179,128.434,91.538z"/>
	</g>
	<g>
		<path class="st19" d="M96.325,24.175L96.325,24.175c0,0-2.284,0.081-3.154,1.465l0.001-0.003
			c-0.489,0.665-0.599,1.389-0.599,1.389l0.001-0.003c-0.407,1.572,1.137,3.208,1.137,3.208s13.005,13.161,28.442,11.553
			l1.307-3.029l0,0l1.307-3.029C115.116,23.93,96.325,24.175,96.325,24.175z"/>
	</g>
	<g>
		<path class="st4" d="M100.271,33.415c0,0-1.543-1.636-1.137-3.208l-0.001,0.003c0,0,0.11-0.724,0.599-1.389l-0.001,0.003
			c0.869-1.384,3.154-1.465,3.154-1.465s7.543-0.097,15.525,2.831c-9.805-6.173-22.085-6.014-22.085-6.014s-2.284,0.081-3.154,1.465
			l0.001-0.003c-0.489,0.665-0.599,1.389-0.599,1.389l0.001-0.003c-0.407,1.572,1.137,3.208,1.137,3.208s6.182,6.255,15.081,9.614
			C103.561,36.743,100.271,33.415,100.271,33.415z"/>
	</g>
	<g>
		<path class="st19" d="M115.87,10.56L115.87,10.56c0,0-1.674-1.51-3.298-1.127l0.003-0.001c-0.831,0.135-1.436,0.571-1.436,0.571
			l0.003-0.001c-1.433,0.833-1.534,3.049-1.534,3.049s-0.396,18.228,11.692,27.682l3.132-1.245l0,0l3.132-1.245
			C129.336,23.277,115.87,10.56,115.87,10.56z"/>
	</g>
	<g>
		<path class="st4" d="M115.074,13.05c0,0,0.066-1.446,0.848-2.441c-0.032-0.031-0.051-0.049-0.051-0.049s-1.674-1.51-3.298-1.127
			l0.003-0.001c-0.831,0.135-1.436,0.571-1.436,0.571l0.003-0.001c-1.433,0.833-1.534,3.049-1.534,3.049
			s-0.396,18.228,11.692,27.682l3.132-1.245l0.609-0.242C114.719,29.493,115.074,13.05,115.074,13.05z"/>
	</g>
	<g>
		<path class="st19" d="M139.757,11.816L139.757,11.816c0,0-0.084-2.216-1.51-3.06l0.003,0.001
			c-0.686-0.475-1.432-0.582-1.432-0.582l0.003,0.001c-1.621-0.394-3.307,1.103-3.307,1.103s-13.565,12.618-11.908,27.596
			l3.122,1.268l0,0l3.122,1.268C140.01,30.046,139.757,11.816,139.757,11.816z"/>
	</g>
	<g>
		<path class="st4" d="M137.887,11.401c0,0,0.686-0.608,1.602-0.947c-0.21-0.623-0.582-1.308-1.243-1.698l0.003,0.001
			c-0.686-0.475-1.432-0.582-1.432-0.582l0.003,0.001c-1.621-0.394-3.307,1.103-3.307,1.103s-13.565,12.618-11.908,27.596
			l3.122,1.268l1.217,0.495C124.541,23.818,137.887,11.401,137.887,11.401z"/>
	</g>
	<g>
		<path class="st19" d="M154.809,32.036L154.809,32.036c0,0,1.556-1.624,1.162-3.2l0.001,0.003
			c-0.139-0.806-0.589-1.394-0.589-1.394l0.001,0.003c-0.859-1.391-3.142-1.489-3.142-1.489s-18.788-0.384-28.532,11.344
			l1.283,3.038l0,0l1.283,3.038C141.702,45.101,154.809,32.036,154.809,32.036z"/>
	</g>
	<g>
		<path class="st4" d="M125.244,40.933c10.051-10.014,26.999-9.669,26.999-9.669s1.49,0.064,2.516,0.822
			c0.032-0.032,0.051-0.05,0.051-0.05s1.556-1.624,1.162-3.2l0.001,0.003c-0.139-0.806-0.589-1.394-0.589-1.394l0.001,0.003
			c-0.859-1.391-3.142-1.489-3.142-1.489s-18.788-0.384-28.532,11.344l1.283,3.038L125.244,40.933z"/>
	</g>
	<g>
		<path class="st19" d="M153.687,57.045L153.687,57.045c0,0,2.284-0.081,3.154-1.465l-0.001,0.003
			c0.489-0.665,0.599-1.389,0.599-1.389l-0.001,0.003c0.407-1.572-1.137-3.208-1.137-3.208s-13.005-13.161-28.442-11.553
			l-1.307,3.029l0,0l-1.307,3.029C134.897,57.291,153.687,57.045,153.687,57.045z"/>
	</g>
	<g>
		<path class="st4" d="M127.859,44.739c14.8-1.541,27.362,10.49,28.374,11.486c0.236-0.175,0.446-0.387,0.608-0.644l-0.001,0.003
			c0.489-0.665,0.6-1.389,0.6-1.389l-0.001,0.003c0.407-1.572-1.137-3.208-1.137-3.208s-13.005-13.161-28.442-11.553l-1.307,3.029
			l-1.307,3.029c0.493,0.603,1.011,1.173,1.549,1.715L127.859,44.739z"/>
	</g>
	<g>
		<path class="st19" d="M134.142,70.661L134.142,70.661c0,0,1.674,1.51,3.298,1.127l-0.003,0.001
			c0.831-0.135,1.436-0.571,1.436-0.571l-0.003,0.001c1.433-0.833,1.534-3.049,1.534-3.049s0.396-18.228-11.692-27.682l-3.132,1.245
			l0,0l-3.132,1.245C120.677,57.944,134.142,70.661,134.142,70.661z"/>
	</g>
	<g>
		<path class="st4" d="M139.558,70.612c-0.885-0.856-13.352-13.198-11.641-27.633l2.522-1.003c-0.545-0.515-1.119-1.013-1.726-1.487
			l-3.132,1.245l-3.132,1.245c-1.774,14.965,11.692,27.682,11.692,27.682s1.674,1.51,3.298,1.127l-0.003,0.001
			c0.831-0.135,1.436-0.571,1.436-0.571l-0.003,0.001C139.146,71.06,139.372,70.849,139.558,70.612z"/>
	</g>
	<g>
		<path class="st19" d="M110.256,69.405L110.256,69.405c0,0,0.084,2.216,1.51,3.06l-0.003-0.001
			c0.686,0.475,1.432,0.582,1.432,0.582l-0.003-0.001c1.621,0.394,3.307-1.103,3.307-1.103s13.565-12.618,11.908-27.596
			l-3.122-1.268l0,0l-3.122-1.268C110.003,51.175,110.256,69.405,110.256,69.405z"/>
	</g>
	<g>
		<path class="st4" d="M115.723,69.405c0,0-0.226-16.414,10.141-26.093l-0.578-0.235l-3.122-1.268
			c-12.161,9.365-11.908,27.595-11.908,27.595s0.084,2.216,1.51,3.06l-0.003-0.001c0.686,0.475,1.432,0.582,1.432,0.582
			l-0.003-0.001c1.621,0.394,3.307-1.103,3.307-1.103s0.025-0.024,0.069-0.066C115.778,70.874,115.723,69.405,115.723,69.405z"/>
	</g>
	<g>
		<path class="st19" d="M95.134,48.665L95.134,48.665c0,0-1.556,1.624-1.162,3.2l-0.001-0.003c0.139,0.806,0.589,1.394,0.589,1.394
			l-0.001-0.003c0.859,1.391,3.142,1.489,3.142,1.489s18.788,0.384,28.532-11.344l-1.283-3.038l0,0l-1.283-3.038
			C108.242,35.6,95.134,48.665,95.134,48.665z"/>
	</g>
	<g>
		<path class="st4" d="M104.26,52.089c0,0-2.284-0.098-3.142-1.489l0.001,0.003c0,0-0.45-0.587-0.589-1.394l0.001,0.003
			c-0.394-1.575,1.162-3.2,1.162-3.2s4.262-4.246,10.784-7.578c-10.078,2.99-17.344,10.23-17.344,10.23s-1.556,1.624-1.162,3.2
			l-0.001-0.003c0.139,0.806,0.589,1.394,0.589,1.394l-0.001-0.003c0.859,1.391,3.142,1.489,3.142,1.489s10.706,0.217,20.146-4.72
			C110.613,52.218,104.26,52.089,104.26,52.089z"/>
	</g>
	<g>
		<path class="st17" d="M128.561,49.266L128.561,49.266c-5.041,2.004-10.802-0.336-12.868-5.227l0,0
			c-2.066-4.891,0.346-10.481,5.387-12.485l0,0c5.041-2.004,10.802,0.336,12.868,5.227v0
			C136.014,41.673,133.602,47.262,128.561,49.266z"/>
	</g>
	<g>
		<path class="st5" d="M124.824,47.332c-2.908,0-5.499-1.687-6.602-4.298c-1.491-3.53,0.256-7.579,3.894-9.025
			c0.866-0.344,1.775-0.519,2.7-0.519c2.908,0,5.499,1.687,6.602,4.298c1.491,3.53-0.256,7.579-3.894,9.025
			C126.658,47.157,125.75,47.332,124.824,47.332z"/>
	</g>
	<g>
		<path class="st1" d="M122.8,44.039L122.8,44.039c-2.066-4.891,0.346-10.481,5.387-12.485l0,0c0.062-0.025,0.125-0.046,0.187-0.069
			c-2.27-0.851-4.865-0.897-7.294,0.069l0,0c-5.041,2.004-7.453,7.594-5.387,12.485l0,0c2.04,4.831,7.685,7.17,12.681,5.296
			C125.933,48.42,123.87,46.573,122.8,44.039z"/>
	</g>
	<g>
		<path class="st0" d="M125.104,33.5c-0.096-0.004-0.19-0.01-0.287-0.01c-0.925,0-1.834,0.175-2.7,0.519
			c-3.638,1.446-5.385,5.495-3.894,9.025c1.103,2.611,3.694,4.298,6.602,4.298c0.094,0,0.189-0.003,0.283-0.007
			c-0.97-0.899-1.766-2.004-2.307-3.286C121.218,40.294,122.264,36.141,125.104,33.5z"/>
	</g>
	<g>
		<path class="st19" d="M144.884,63.369L144.884,63.369c0,0-2.284,0.081-3.154,1.465l0.001-0.003
			c-0.489,0.665-0.599,1.389-0.599,1.389l0.001-0.003c-0.407,1.572,1.137,3.208,1.137,3.208s13.005,13.161,28.442,11.553
			l1.307-3.029l0,0l1.307-3.029C163.674,63.124,144.884,63.369,144.884,63.369z"/>
	</g>
	<g>
		<path class="st4" d="M148.83,72.609c0,0-1.543-1.636-1.137-3.208l-0.001,0.003c0,0,0.11-0.724,0.599-1.389l-0.001,0.003
			c0.869-1.384,3.154-1.465,3.154-1.465s7.543-0.097,15.525,2.831c-9.805-6.173-22.085-6.014-22.085-6.014s-2.284,0.081-3.154,1.465
			l0.001-0.003c-0.489,0.665-0.599,1.389-0.599,1.389l0.001-0.003c-0.407,1.572,1.137,3.208,1.137,3.208s6.182,6.255,15.081,9.614
			C152.119,75.937,148.83,72.609,148.83,72.609z"/>
	</g>
	<g>
		<path class="st19" d="M164.429,49.753L164.429,49.753c0,0-1.674-1.51-3.298-1.127l0.003-0.001
			c-0.831,0.135-1.436,0.571-1.436,0.571l0.003-0.001c-1.433,0.833-1.534,3.049-1.534,3.049s-0.396,18.228,11.692,27.682
			l3.132-1.245l0,0l3.132-1.245C177.894,62.471,164.429,49.753,164.429,49.753z"/>
	</g>
	<g>
		<path class="st4" d="M163.632,52.243c0,0,0.066-1.446,0.848-2.441c-0.032-0.031-0.051-0.049-0.051-0.049s-1.674-1.51-3.298-1.127
			l0.003-0.001c-0.831,0.135-1.436,0.571-1.436,0.571l0.003-0.001c-1.433,0.833-1.534,3.049-1.534,3.049
			s-0.396,18.228,11.692,27.682l3.132-1.245l0.609-0.242C163.277,68.687,163.632,52.243,163.632,52.243z"/>
	</g>
	<g>
		<path class="st19" d="M188.315,51.01L188.315,51.01c0,0-0.084-2.216-1.51-3.06l0.003,0.001c-0.686-0.475-1.432-0.582-1.432-0.582
			l0.003,0.001c-1.621-0.394-3.307,1.103-3.307,1.103s-13.565,12.618-11.908,27.596l3.122,1.268l0,0l3.122,1.268
			C188.568,69.24,188.315,51.01,188.315,51.01z"/>
	</g>
	<g>
		<path class="st4" d="M186.445,50.595c0,0,0.686-0.608,1.602-0.947c-0.21-0.623-0.582-1.308-1.243-1.698l0.003,0.001
			c-0.686-0.475-1.432-0.582-1.432-0.582l0.003,0.001c-1.621-0.394-3.307,1.103-3.307,1.103s-13.565,12.618-11.908,27.596
			l3.122,1.268l1.217,0.495C173.1,63.012,186.445,50.595,186.445,50.595z"/>
	</g>
	<g>
		<path class="st19" d="M203.368,71.23L203.368,71.23c0,0,1.556-1.624,1.162-3.2l0.001,0.003c-0.139-0.806-0.589-1.394-0.589-1.394
			l0.001,0.003c-0.859-1.391-3.142-1.489-3.142-1.489s-18.788-0.384-28.532,11.344l1.283,3.038l0,0l1.283,3.038
			C190.26,84.295,203.368,71.23,203.368,71.23z"/>
	</g>
	<g>
		<path class="st4" d="M173.802,80.127c10.051-10.014,26.999-9.669,26.999-9.669s1.49,0.064,2.516,0.822
			c0.032-0.032,0.051-0.05,0.051-0.05s1.556-1.624,1.162-3.2l0.001,0.003c-0.139-0.806-0.589-1.394-0.589-1.394l0.001,0.003
			c-0.859-1.391-3.142-1.489-3.142-1.489s-18.788-0.384-28.532,11.344l1.283,3.038L173.802,80.127z"/>
	</g>
	<g>
		<path class="st19" d="M202.246,96.239L202.246,96.239c0,0,2.284-0.081,3.154-1.465l-0.001,0.003
			c0.489-0.665,0.599-1.389,0.599-1.389l-0.001,0.003c0.407-1.572-1.137-3.208-1.137-3.208s-13.005-13.161-28.442-11.553
			l-1.307,3.029l0,0l-1.307,3.029C183.456,96.485,202.246,96.239,202.246,96.239z"/>
	</g>
	<g>
		<path class="st4" d="M176.417,83.932c14.8-1.541,27.362,10.49,28.374,11.486c0.236-0.175,0.446-0.387,0.608-0.644l-0.001,0.003
			c0.489-0.665,0.6-1.389,0.6-1.389l-0.001,0.003c0.407-1.572-1.137-3.208-1.137-3.208s-13.005-13.161-28.442-11.553l-1.307,3.029
			l-1.307,3.029c0.493,0.603,1.011,1.173,1.549,1.715L176.417,83.932z"/>
	</g>
	<g>
		<path class="st19" d="M182.701,109.855L182.701,109.855c0,0,1.674,1.51,3.298,1.127l-0.003,0.001
			c0.831-0.135,1.436-0.571,1.436-0.571l-0.003,0.001c1.433-0.833,1.534-3.049,1.534-3.049s0.396-18.228-11.692-27.682l-3.132,1.245
			l0,0l-3.132,1.245C169.235,97.138,182.701,109.855,182.701,109.855z"/>
	</g>
	<g>
		<path class="st4" d="M188.116,109.806c-0.885-0.856-13.352-13.198-11.641-27.633l2.522-1.003
			c-0.545-0.515-1.119-1.013-1.726-1.487l-3.132,1.245l-3.132,1.245c-1.774,14.965,11.692,27.682,11.692,27.682
			s1.674,1.51,3.298,1.127l-0.003,0.001c0.831-0.135,1.436-0.571,1.436-0.571l-0.003,0.001
			C187.705,110.254,187.93,110.043,188.116,109.806z"/>
	</g>
	<g>
		<path class="st19" d="M158.814,108.599L158.814,108.599c0,0,0.084,2.216,1.51,3.06l-0.003-0.001
			c0.686,0.475,1.432,0.582,1.432,0.582l-0.003-0.001c1.621,0.394,3.307-1.103,3.307-1.103s13.565-12.618,11.908-27.596
			l-3.122-1.268l0,0l-3.122-1.268C158.561,90.368,158.814,108.599,158.814,108.599z"/>
	</g>
	<g>
		<path class="st4" d="M164.281,108.599c0,0-0.226-16.414,10.141-26.093l-0.578-0.235l-3.122-1.268
			c-12.161,9.365-11.908,27.595-11.908,27.595s0.084,2.216,1.51,3.06l-0.003-0.001c0.686,0.475,1.432,0.582,1.432,0.582
			l-0.003-0.001c1.621,0.394,3.307-1.103,3.307-1.103s0.025-0.024,0.069-0.066C164.336,110.068,164.281,108.599,164.281,108.599z"/>
	</g>
	<g>
		<path class="st19" d="M143.692,87.859L143.692,87.859c0,0-1.556,1.624-1.162,3.2l-0.001-0.003
			c0.139,0.806,0.589,1.394,0.589,1.394l-0.001-0.003c0.859,1.391,3.142,1.489,3.142,1.489s18.788,0.384,28.532-11.344l-1.283-3.038
			l0,0l-1.283-3.038C156.8,74.794,143.692,87.859,143.692,87.859z"/>
	</g>
	<g>
		<path class="st4" d="M152.819,91.283c0,0-2.284-0.098-3.142-1.489l0.001,0.003c0,0-0.45-0.587-0.589-1.394l0.001,0.003
			c-0.394-1.575,1.162-3.2,1.162-3.2s4.262-4.246,10.784-7.578c-10.078,2.99-17.344,10.23-17.344,10.23s-1.556,1.624-1.162,3.2
			l-0.001-0.003c0.139,0.806,0.589,1.394,0.589,1.394l-0.001-0.003c0.859,1.391,3.142,1.489,3.142,1.489s10.706,0.217,20.146-4.72
			C159.171,91.412,152.819,91.283,152.819,91.283z"/>
	</g>
	<g>
		<path class="st17" d="M177.119,88.46L177.119,88.46c-5.041,2.004-10.802-0.336-12.868-5.227l0,0
			c-2.066-4.891,0.346-10.481,5.387-12.485l0,0c5.041-2.004,10.802,0.336,12.868,5.227l0,0
			C184.572,80.866,182.16,86.456,177.119,88.46z"/>
	</g>
	<g>
		<path class="st5" d="M173.383,86.525c-2.908,0-5.499-1.687-6.602-4.298c-1.491-3.53,0.256-7.579,3.894-9.025
			c0.866-0.344,1.775-0.519,2.7-0.519c2.908,0,5.499,1.687,6.602,4.298c1.491,3.53-0.256,7.579-3.894,9.025
			C175.216,86.351,174.308,86.525,173.383,86.525z"/>
	</g>
	<g>
		<path class="st1" d="M171.358,83.233L171.358,83.233c-2.066-4.891,0.346-10.481,5.387-12.485l0,0
			c0.062-0.025,0.125-0.046,0.187-0.069c-2.27-0.851-4.865-0.897-7.294,0.069l0,0c-5.041,2.004-7.453,7.594-5.387,12.485l0,0
			c2.04,4.831,7.685,7.17,12.681,5.296C174.492,87.614,172.428,85.767,171.358,83.233z"/>
	</g>
	<g>
		<path class="st0" d="M173.662,72.694c-0.096-0.004-0.19-0.01-0.287-0.01c-0.925,0-1.834,0.175-2.7,0.519
			c-3.638,1.446-5.385,5.495-3.894,9.025c1.103,2.611,3.694,4.298,6.602,4.298c0.094,0,0.189-0.003,0.283-0.007
			c-0.97-0.899-1.766-2.004-2.307-3.286C169.776,79.488,170.822,75.335,173.662,72.694z"/>
	</g>
	<g>
		<circle class="st5" cx="113.558" cy="199.5" r="8.75"/>
	</g>
</g>
</svg>
