<?xml version="1.0" encoding="utf-8"?>
<!-- Generator: Adobe Illustrator 22.1.0, SVG Export Plug-In . SVG Version: 6.00 Build 0)  -->
<svg version="1.1" id="Layer_1" xmlns="http://www.w3.org/2000/svg" xmlns:xlink="http://www.w3.org/1999/xlink" x="0px" y="0px"
	 viewBox="0 0 256 256" style="enable-background:new 0 0 256 256;" xml:space="preserve">
<style type="text/css">
	.st0{fill:#A56021;}
	.st1{fill:#E58D23;}
	.st2{fill:#FCE575;}
	.st3{fill:#FFF4C1;}
	.st4{fill:#FFD551;}
	.st5{fill:#BF6C0D;}
	.st6{fill:#8C4C17;}
	.st7{fill:#FF624B;}
	.st8{fill:#FF4B34;}
	.st9{fill:#DB9C2E;}
	.st10{fill:#FFC34C;}
	.st11{fill:#F9BB32;}
	.st12{fill:#FF9079;}
	.st13{fill:#FCDA4F;}
	.st14{fill:#EACF32;}
	.st15{fill:#CCC033;}
	.st16{fill:#99AF17;}
	.st17{fill:#FFA730;}
	.st18{fill:#FFB74B;}
	.st19{fill:#FFDF74;}
	.st20{fill:#FFD59A;}
	.st21{fill:#FCF9DE;}
	.st22{fill:#FFEACF;}
	.st23{fill:#FFEA63;}
	.st24{fill:#FFEEA4;}
	.st25{fill:#FFF9DC;}
</style>
<g>
	<g>
		<path class="st19" d="M209.618,60.848h-165V45.237c0-2.424,1.965-4.388,4.388-4.388H205.23c2.424,0,4.388,1.965,4.388,4.388
			V60.848z"/>
	</g>
	<g>
		<path class="st4" d="M79.007,40.848h-30c-2.424,0-4.388,1.965-4.388,4.389v15.611h30V45.237
			C74.618,42.813,76.583,40.848,79.007,40.848z"/>
	</g>
	<g>
		<path class="st19" d="M223.148,248H32.852c-2.68,0-4.852-2.172-4.852-4.852V106.75h200v136.398
			C228,245.828,225.828,248,223.148,248z"/>
	</g>
	<g>
		<path class="st4" d="M58,139.75h170v-33H28v136.398c0,2.68,2.172,4.852,4.852,4.852H58V139.75z"/>
	</g>
	<g>
		<rect x="28" y="148" class="st0" width="135" height="48"/>
	</g>
	<g>
		<rect x="28" y="148" class="st6" width="30" height="48"/>
	</g>
	<g>
		<path class="st21" d="M35.5,184.5v-25c0-2.209,1.791-4,4-4h112c2.209,0,4,1.791,4,4v25c0,2.209-1.791,4-4,4h-112
			C37.291,188.5,35.5,186.709,35.5,184.5z"/>
	</g>
	<g>
		<path class="st3" d="M39.5,155.5c-2.209,0-4,1.791-4,4v25c0,1.787,1.172,3.299,2.789,3.813L71.102,155.5H39.5z"/>
	</g>
	<g>
		<polygon class="st3" points="62.746,188.5 98.102,188.5 131.102,155.5 95.746,155.5 		"/>
	</g>
	<g>
		<path class="st3" d="M151.5,188.5c2.209,0,4-1.791,4-4v-25c0-1.042-0.402-1.988-1.054-2.699L122.746,188.5H151.5z"/>
	</g>
	<g>
		<rect x="163" y="148" class="st0" width="55" height="100"/>
	</g>
	<g>
		<path class="st12" d="M239.25,131.75H16.75c-2.761,0-5-2.239-5-5v-20h232.5v20C244.25,129.511,242.011,131.75,239.25,131.75z"/>
	</g>
	<g>
		<path class="st22" d="M235.25,125.75c-1.657,0-3-1.343-3-3v-7c0-1.657,1.343-3,3-3s3,1.343,3,3v7
			C238.25,124.407,236.907,125.75,235.25,125.75z"/>
	</g>
	<g>
		<polygon class="st7" points="44.618,60.348 11.75,106.75 244.25,106.75 209.618,60.348 		"/>
	</g>
	<g>
		<path class="st12" d="M226.305,100.75c-0.915,0-1.817-0.417-2.407-1.206l-11.008-14.75c-0.991-1.328-0.718-3.208,0.61-4.199
			c1.328-0.991,3.207-0.717,4.199,0.61l11.008,14.75c0.991,1.328,0.718,3.208-0.61,4.199
			C227.559,100.556,226.929,100.75,226.305,100.75z"/>
	</g>
	<g>
		<circle class="st15" cx="189.319" cy="45.5" r="37.5"/>
	</g>
	<g>
		<rect x="163" y="148" class="st6" width="30" height="100"/>
	</g>
	<g>
		<path class="st21" d="M170.5,236.5v-77c0-2.209,1.791-4,4-4h32c2.209,0,4,1.791,4,4v77c0,2.209-1.791,4-4,4h-32
			C172.291,240.5,170.5,238.709,170.5,236.5z"/>
	</g>
	<g>
		<path class="st3" d="M207.55,155.644c-0.335-0.091-0.686-0.144-1.05-0.144h-32c-2.209,0-4,1.791-4,4v33.193L207.55,155.644z"/>
	</g>
	<g>
		<path class="st3" d="M210.5,223.838L193.838,240.5H206.5c2.209,0,4-1.791,4-4V223.838z"/>
	</g>
	<g>
		<path class="st3" d="M185.5,165.5c0-2.209,1.791-4,4-4h21v-2c0-2.209-1.791-4-4-4h-32c-2.209,0-4,1.791-4,4v77
			c0,2.209,1.791,4,4,4h11V165.5z"/>
	</g>
	<g>
		<path class="st2" d="M185.5,165.5c0-2.209,1.791-4,4-4h12.194l5.856-5.856c-0.154-0.042-0.313-0.074-0.473-0.098
			c-0.023-0.003-0.045-0.008-0.067-0.01c-0.167-0.022-0.336-0.036-0.509-0.036h-32c-2.209,0-4,1.791-4,4v33.193l15-15V165.5z"/>
	</g>
	<g>
		<path class="st2" d="M170.537,237.014c0.011,0.084,0.022,0.167,0.038,0.25c0.01,0.049,0.022,0.098,0.033,0.146
			c0.017,0.073,0.035,0.146,0.056,0.218c0.015,0.051,0.032,0.102,0.049,0.152c0.022,0.066,0.046,0.132,0.072,0.197
			c0.021,0.052,0.042,0.103,0.065,0.153c0.027,0.061,0.056,0.121,0.087,0.18c0.026,0.051,0.052,0.102,0.08,0.152
			c0.031,0.055,0.065,0.108,0.098,0.162c0.032,0.051,0.063,0.102,0.097,0.15c0.033,0.047,0.068,0.092,0.103,0.138
			c0.039,0.052,0.077,0.104,0.119,0.154c0.017,0.02,0.035,0.038,0.053,0.058c0.119,0.136,0.246,0.264,0.382,0.383
			c0.017,0.015,0.034,0.032,0.051,0.046c0.065,0.055,0.134,0.106,0.202,0.157c0.027,0.02,0.053,0.041,0.08,0.06
			c0.069,0.048,0.14,0.093,0.212,0.137c0.029,0.018,0.059,0.037,0.089,0.054c0.073,0.042,0.148,0.081,0.223,0.119
			c0.031,0.016,0.061,0.03,0.092,0.045c0.078,0.036,0.157,0.07,0.238,0.102c0.029,0.011,0.059,0.022,0.089,0.033
			c0.085,0.03,0.17,0.059,0.257,0.084c0.025,0.007,0.05,0.013,0.075,0.019c0.094,0.025,0.188,0.048,0.284,0.066
			c0.001,0,0.002,0,0.003,0.001l11.736-11.736v-35.355l-15,15V236.5c0,0.131,0.007,0.26,0.02,0.387
			C170.524,236.93,170.531,236.972,170.537,237.014z"/>
	</g>
	<g>
		<path class="st3" d="M50.5,168.5c0-2.209,1.791-4,4-4h101v-5c0-2.209-1.791-4-4-4h-112c-2.209,0-4,1.791-4,4v25
			c0,2.209,1.791,4,4,4h11V168.5z"/>
	</g>
	<g>
		<path class="st2" d="M35.566,185.206c0.033,0.185,0.077,0.366,0.135,0.541c0.01,0.03,0.022,0.06,0.033,0.089
			c0.058,0.164,0.125,0.322,0.203,0.475c0.01,0.021,0.019,0.042,0.03,0.062c0.087,0.163,0.186,0.318,0.294,0.466
			c0.021,0.029,0.043,0.058,0.065,0.087c0.113,0.148,0.233,0.289,0.366,0.419c0.008,0.008,0.016,0.014,0.024,0.022
			c0.13,0.126,0.27,0.242,0.416,0.35c0.023,0.017,0.045,0.034,0.068,0.05c0.152,0.107,0.311,0.204,0.478,0.289
			c0.026,0.013,0.052,0.025,0.078,0.038c0.172,0.083,0.348,0.158,0.532,0.217c0.001,0,0.002,0.001,0.003,0.001L50.5,176.102V168.5
			c0-2.209,1.791-4,4-4h7.602l9-9H39.5c-2.209,0-4,1.791-4,4v25c0,0.2,0.02,0.396,0.048,0.588
			C35.554,185.127,35.559,185.167,35.566,185.206z"/>
	</g>
	<g>
		<polygon class="st2" points="122.102,164.5 131.102,155.5 95.746,155.5 86.746,164.5 		"/>
	</g>
	<g>
		<path class="st2" d="M155.48,159.104c-0.006-0.057-0.017-0.113-0.025-0.169c-0.01-0.071-0.019-0.142-0.032-0.212
			c-0.015-0.076-0.035-0.15-0.055-0.225c-0.012-0.047-0.022-0.094-0.036-0.14c-0.026-0.087-0.057-0.173-0.089-0.258
			c-0.011-0.03-0.021-0.06-0.033-0.09c-0.038-0.095-0.081-0.188-0.127-0.279c-0.008-0.017-0.016-0.034-0.024-0.05
			c-0.051-0.099-0.106-0.195-0.164-0.289c-0.005-0.007-0.009-0.015-0.014-0.023c-0.063-0.099-0.13-0.195-0.201-0.288
			c-0.001-0.001-0.002-0.003-0.003-0.004c-0.073-0.095-0.15-0.188-0.231-0.276l-7.699,7.699h8.754v-5
			C155.5,159.366,155.493,159.234,155.48,159.104z"/>
	</g>
	<g>
		<path class="st15" d="M149,182.5c-1.598,0-3.103,0.384-4.443,1.051c-1.259-4.083-5.061-7.051-9.557-7.051
			c-4.354,0-8.048,2.788-9.421,6.671c-1.113-0.427-2.316-0.671-3.579-0.671c-1.598,0-3.103,0.384-4.443,1.051
			c-1.259-4.083-5.061-7.051-9.557-7.051c-4.354,0-8.048,2.788-9.421,6.671c-1.113-0.427-2.316-0.671-3.579-0.671
			c-1.598,0-3.103,0.384-4.443,1.051c-1.259-4.083-5.061-7.051-9.557-7.051c-4.354,0-8.048,2.788-9.421,6.671
			c-1.113-0.427-2.316-0.671-3.579-0.671c-1.598,0-3.103,0.384-4.443,1.051c-1.259-4.083-5.061-7.051-9.557-7.051
			c-4.354,0-8.048,2.788-9.421,6.671c-1.113-0.427-2.316-0.671-3.579-0.671c-5.523,0-10,4.477-10,10s4.477,10,10,10
			c4.354,0,8.048-2.788,9.421-6.671c1.113,0.427,2.316,0.671,3.579,0.671c1.598,0,3.103-0.384,4.443-1.051
			c1.259,4.083,5.061,7.051,9.557,7.051c4.354,0,8.048-2.788,9.421-6.671c1.113,0.427,2.316,0.671,3.579,0.671
			c1.598,0,3.103-0.384,4.443-1.051c1.259,4.083,5.061,7.051,9.557,7.051c4.354,0,8.048-2.788,9.421-6.671
			c1.113,0.427,2.316,0.671,3.579,0.671c1.598,0,3.103-0.384,4.443-1.051c1.259,4.083,5.061,7.051,9.557,7.051
			c4.354,0,8.048-2.788,9.421-6.671c1.113,0.427,2.316,0.671,3.579,0.671c1.598,0,3.103-0.384,4.443-1.051
			c1.259,4.083,5.061,7.051,9.557,7.051c5.523,0,10-4.477,10-10S154.523,182.5,149,182.5z"/>
	</g>
	<g>
		<g>
			<path class="st16" d="M125.057,186.551c1.34-0.667,2.845-1.051,4.443-1.051c1.263,0,2.467,0.244,3.579,0.671
				c1.336-3.78,4.872-6.513,9.073-6.658c-1.815-1.859-4.349-3.014-7.153-3.014c-4.354,0-8.048,2.788-9.421,6.671
				c-0.913-0.351-1.89-0.569-2.908-0.639C123.758,183.651,124.586,185.023,125.057,186.551z"/>
		</g>
		<g>
			<path class="st16" d="M98.057,186.551c1.34-0.667,2.845-1.051,4.443-1.051c1.263,0,2.467,0.244,3.579,0.671
				c1.336-3.78,4.872-6.513,9.073-6.658c-1.815-1.859-4.349-3.014-7.153-3.014c-4.354,0-8.048,2.788-9.421,6.671
				c-0.913-0.351-1.89-0.569-2.908-0.639C96.758,183.651,97.586,185.023,98.057,186.551z"/>
		</g>
		<g>
			<path class="st16" d="M71.057,186.551c1.34-0.667,2.845-1.051,4.443-1.051c1.263,0,2.467,0.244,3.579,0.671
				c1.336-3.78,4.872-6.513,9.073-6.658c-1.815-1.859-4.349-3.014-7.153-3.014c-4.354,0-8.048,2.788-9.421,6.671
				c-0.913-0.351-1.89-0.569-2.908-0.639C69.758,183.651,70.586,185.023,71.057,186.551z"/>
		</g>
		<g>
			<path class="st16" d="M38.5,195.5c0-5.523,4.477-10,10-10c1.263,0,2.467,0.244,3.579,0.671c1.336-3.78,4.872-6.513,9.073-6.658
				c-1.815-1.859-4.349-3.014-7.153-3.014c-4.354,0-8.048,2.788-9.421,6.671c-1.113-0.427-2.316-0.671-3.579-0.671
				c-5.523,0-10,4.477-10,10s4.477,10,10,10c0.118,0,0.234-0.01,0.352-0.014C39.59,200.683,38.5,198.22,38.5,195.5z"/>
		</g>
	</g>
	<g>
		<rect x="28" y="196" class="st11" width="135" height="20"/>
	</g>
	<g>
		<polygon class="st9" points="58,202 163,202 163,196 28,196 28,216 58,216 		"/>
	</g>
	<g>
		<circle class="st7" cx="46.076" cy="189.5" r="2.5"/>
	</g>
	<g>
		<circle class="st7" cx="85.653" cy="184.543" r="2.5"/>
	</g>
	<g>
		<circle class="st7" cx="111.75" cy="185.549" r="2.5"/>
	</g>
	<g>
		<circle class="st7" cx="142.153" cy="186.551" r="2.5"/>
	</g>
	<g>
		<circle class="st19" cx="65.865" cy="187.534" r="2.5"/>
	</g>
	<g>
		<circle class="st19" cx="127.912" cy="190.049" r="2.5"/>
	</g>
	<g>
		<circle class="st19" cx="95.5" cy="191.46" r="2.5"/>
	</g>
	<g>
		<path class="st7" d="M41.75,126.75v-20h-30v20c0,2.761,2.239,5,5,5h30C43.989,131.75,41.75,129.511,41.75,126.75z"/>
	</g>
	<g>
		<polygon class="st8" points="44.618,60.348 11.75,106.75 41.75,106.75 74.618,60.348 		"/>
	</g>
	<g>
		<path class="st16" d="M166.819,45.5c0-18.142,12.883-33.274,30-36.749C194.396,8.26,191.888,8,189.319,8
			c-20.711,0-37.5,16.789-37.5,37.5c0,20.71,16.789,37.5,37.5,37.5c2.569,0,5.077-0.26,7.5-0.751
			C179.703,78.774,166.819,63.642,166.819,45.5z"/>
	</g>
	<g>
		<circle class="st4" cx="189.319" cy="45.5" r="30"/>
	</g>
	<g>
		<path class="st19" d="M202.587,66.816c-1.049,0-2.067-0.55-2.618-1.529c-0.813-1.444-0.3-3.273,1.144-4.086
			c5.679-3.195,9.207-9.211,9.207-15.701c0-1.657,1.343-3,3-3s3,1.343,3,3c0,8.654-4.699,16.674-12.264,20.931
			C203.59,66.692,203.085,66.816,202.587,66.816z"/>
	</g>
	<g>
		<g>
			<path class="st15" d="M189.636,71.519L189.636,71.519c-0.747,0-1.352-0.605-1.352-1.352V44.589h2.705v25.578
				C190.988,70.914,190.383,71.519,189.636,71.519z"/>
		</g>
		<g>
			<path class="st14" d="M201.069,53.707c0.074-0.151-0.007-0.336-0.175-0.404c-6.204-2.504-9.047-0.469-9.047-0.469l0,0
				c-0.619,0.367-1.121,0.914-1.415,1.608c-0.778,1.84,0.206,4.015,2.198,4.857c0.101,0.043,0.202,0.081,0.304,0.115
				C197.162,61.119,200.392,55.092,201.069,53.707z"/>
		</g>
		<g>
			<path class="st2" d="M179.574,55.377c-0.178-0.009-0.325,0.139-0.322,0.322c0.117,6.767,3.279,8.614,3.279,8.614l0,0
				c0.614,0.432,1.356,0.684,2.154,0.684c2.117,0,3.834-1.774,3.834-3.963c0-0.11-0.005-0.22-0.013-0.328
				C188.423,56.095,181.206,55.462,179.574,55.377z"/>
		</g>
		<g>
			<g>
				<path class="st8" d="M196.69,45.673l-2.193,2.662c-3.088,3.749-8.095,3.749-11.183,0l-2.197-2.667
					c-3.87-4.699-3.87-12.317,0-17.015l7.177-8.713c0.323-0.392,0.845-0.392,1.168,0l7.227,8.774
					C200.547,33.397,200.547,40.99,196.69,45.673z"/>
			</g>
			<g>
				<path class="st7" d="M186.096,51.005l-5.002-1.007c-4.308-0.867-7.222-5.81-6.508-11.04l1.993-14.601
					c0.075-0.546,0.5-0.916,0.95-0.825l10.013,2.015c5.4,1.087,9.052,7.282,8.157,13.837l-0.508,3.721
					C194.476,48.335,190.404,51.872,186.096,51.005z"/>
			</g>
			<g>
				<path class="st12" d="M192.859,51.005l5.002-1.007c4.308-0.867,7.222-5.81,6.508-11.04l-1.993-14.601
					c-0.075-0.546-0.5-0.916-0.95-0.825l-10.013,2.015c-5.4,1.087-9.052,7.282-8.157,13.837l0.508,3.721
					C184.48,48.335,188.551,51.872,192.859,51.005z"/>
			</g>
		</g>
	</g>
	<g>
		<path class="st10" d="M179.942,17.009c-11.962,3.948-20.623,15.224-20.623,28.491s8.661,24.543,20.623,28.491
			c-8.031-6.877-13.123-17.088-13.123-28.491S171.911,23.886,179.942,17.009z"/>
	</g>
	<g>
		<circle class="st8" cx="65.615" cy="93.506" r="8.75"/>
	</g>
	<g>
		<circle class="st4" cx="71.615" cy="231.506" r="8.75"/>
	</g>
</g>
</svg>
