<?xml version="1.0" encoding="utf-8"?>
<!-- Generator: Adobe Illustrator 22.0.1, SVG Export Plug-In . SVG Version: 6.00 Build 0)  -->
<svg version="1.1" id="Layer_1" xmlns="http://www.w3.org/2000/svg" xmlns:xlink="http://www.w3.org/1999/xlink" x="0px" y="0px"
	 viewBox="0 0 128 128" style="enable-background:new 0 0 128 128;" xml:space="preserve">
<style type="text/css">
	.st0{fill:#3A2C60;}
	.st1{fill:#E6E7E8;}
	.st2{fill:#FA759E;}
	.st3{fill:#FFFFFF;}
	.st4{fill:#6DC9F7;}
	.st5{fill:#FFD7E5;}
	.st6{fill:#0089EF;}
	.st7{fill:#D4FBFF;}
	.st8{fill:#F5F6F9;}
	.st9{fill:#D0D2D3;}
</style>
<g>
	<path class="st1" d="M126.617,90.236l-4.411-1.484l2.425-3.972c-1.098-0.87-2.568-1.427-4.229-1.673
		C121.888,77.993,122.7,72.593,122.7,67c0-31.844-25.815-57.658-57.658-57.658S7.383,35.156,7.383,67
		c0,31.844,25.815,57.658,57.658,57.658c15.55,0,29.652-6.167,40.023-16.175c0.224,0.287,0.44,0.577,0.688,0.856
		c3.159,3.549,7.322,5.292,10.526,4.723l-0.25-4.647l4.587,0.787c0.937-3.116-0.31-7.453-3.469-11.003
		c-0.131-0.147-0.263-0.291-0.398-0.432c0.529-0.136,1.061-0.299,1.593-0.492C122.807,96.649,125.963,93.424,126.617,90.236z"/>
	<circle class="st3" cx="60.041" cy="62" r="57.658"/>
	<circle class="st2" cx="60.041" cy="65.894" r="57.658"/>
	<g>
		<path class="st6" d="M65.935,84.899c-6.51,0.292-10.927-2.714-10.927-2.714c5.64,1.486,10.311-4.356,10.927-5.167v-2.727
			c-0.613-0.371-1.225-0.747-1.836-1.131c-5.487-0.262-9.091-2.703-9.091-2.703c1.643,0.433,3.199,0.232,4.602-0.274
			c-2.225-1.559-4.361-3.194-6.302-4.887c-5.438-4.744-9.174-10.246-12.601-11.92c-0.672-0.328-2.461,0.617-3.716,0.61
			c-1.696-0.01-3.202-0.61-3.557-0.61c-1.998,0-6.072,6.697-13.898,13.744c-4.622,4.162-9.994,7.68-14.997,10.488
			c0.756,2.693,1.7,5.305,2.822,7.823h58.575V84.899z"/>
	</g>
	<path id="XMLID_961_" class="st8" d="M32.432,66.107c1.132-0.052-0.238,4.249,0.818,4.518s2.686-4.468,3.7-4.518
		c1.014-0.05,3.328,3.895,4.332,3.262c1.004-0.633-1.391-3.752-0.164-4.296c1.227-0.543,7.77,6.363,8.763,5.539
		s-4.326-7.224-3.531-7.747s11.588,6.121,11.588,6.121c-1.623-1.193-3.18-2.426-4.63-3.691c-5.438-4.744-9.174-10.246-12.601-11.92
		c-0.672-0.328-2.461,0.617-3.716,0.61c-1.696-0.01-3.202-0.61-3.557-0.61c-1.998,0-6.072,6.697-13.898,13.744
		c-0.284,0.256-0.572,0.509-0.862,0.76c0,0,6.495-3.373,7.546-2.806c1.052,0.567-3.634,5.475-2.167,6.585
		C25.519,72.767,31.301,66.158,32.432,66.107z"/>
	<g>
		<g>
			<g>
				<g>
					<g>
						<g>
							<g>
								<path class="st4" d="M89.664,49.711H78.169h-0.664H66.009c-0.025,0.001-0.049,0-0.074,0.001v3.848
									c0.046-0.06,0.074-0.098,0.074-0.098h11.372h0.912h11.372c0,0,0.028,0.038,0.074,0.098v-3.848
									C89.713,49.712,89.689,49.713,89.664,49.711z"/>
								<path class="st4" d="M89.664,37.983H78.169h-0.664H66.009c-0.025,0.001-0.049,0-0.074,0.001v3.848
									c0.046-0.06,0.074-0.098,0.074-0.098h11.372h0.912h11.372c0,0,0.028,0.038,0.074,0.098v-3.848
									C89.713,37.983,89.689,37.984,89.664,37.983z"/>
							</g>
							<path class="st4" d="M89.664,61.44H78.169h-0.664H66.009c-0.025,0.001-0.049,0-0.074,0.001v3.848
								c0.046-0.06,0.074-0.098,0.074-0.098h11.372h0.912h11.372c0,0,0.029,0.04,0.074,0.098v-3.848
								C89.713,61.44,89.689,61.441,89.664,61.44z"/>
						</g>
						<path class="st4" d="M89.664,73.169H78.169h-0.664H66.009c-0.025,0.001-0.049,0-0.074,0.001v3.848
							c0.046-0.06,0.074-0.098,0.074-0.098h11.372h0.912h11.372c0,0,0.03,0.04,0.074,0.098V73.17
							C89.713,73.169,89.689,73.17,89.664,73.169z"/>
					</g>
					<path class="st4" d="M76.93,86.236l4.411-1.484l-0.431,0.145h-2.741h-0.664H66.009c-0.025,0.001-0.049,0-0.074,0.001v12.886
						h18.583c0,0,0-0.001,0-0.001c0.261-0.441,0.543-0.878,0.857-1.308c0.314-0.435,0.655-0.862,1.025-1.277
						c0.131-0.147,0.263-0.291,0.398-0.432c-0.529-0.136-1.061-0.299-1.593-0.492C80.74,92.649,77.584,89.424,76.93,86.236z"/>
				</g>
				<path class="st5" d="M78.169,84.897h2.741l0.431-0.145l-2.425-3.972c2.55-2.022,7.041-2.464,11.506-0.839
					c0.617,0.224,1.207,0.481,1.77,0.762c-0.027-0.38-0.041-0.766-0.042-1.156c-1.551-1.333-2.486-2.628-2.486-2.628H78.292h-0.912
					H66.009c0,0-4.944,6.861-11.001,5.265c0,0,4.45,3.031,11.001,2.712h11.495H78.169z"/>
				<g>
					<path class="st5" d="M78.169,73.169h11.495c1.39,0.068,2.677-0.021,3.855-0.194c0.552-1.18,1.256-2.181,2.061-2.975
						c-3.509-1.479-5.917-4.808-5.917-4.808H78.292h-0.912H66.009c0,0-4.944,6.861-11.001,5.265c0,0,4.45,3.031,11.001,2.712h11.495
						H78.169z"/>
				</g>
				<path class="st5" d="M89.664,53.463H78.292h-0.912H66.009c0,0-4.944,6.861-11.001,5.265c0,0,4.45,3.031,11.001,2.712h11.495
					h0.664h11.495c6.551,0.319,11.001-2.712,11.001-2.712C94.608,60.323,89.664,53.463,89.664,53.463z"/>
				<path class="st5" d="M89.664,41.734H78.292h-0.912H66.009c0,0-4.944,6.861-11.001,5.265c0,0,4.45,3.031,11.001,2.712h11.495
					h0.664h11.495c6.551,0.319,11.001-2.712,11.001-2.712C94.608,48.595,89.664,41.734,89.664,41.734z"/>
				<path class="st5" d="M85.276,23.796H70.397c0,0-9.332,13.07-15.389,11.474c0,0,4.45,3.031,11.001,2.712h11.495h0.664h11.495
					c6.551,0.319,11.001-2.712,11.001-2.712C94.608,36.866,85.276,23.796,85.276,23.796z"/>
			</g>
			<path class="st7" d="M78.515,89.558h-3.113v8.227h4.472V91.06C79.363,90.581,78.908,90.078,78.515,89.558z"/>
			<path class="st6" d="M84.518,97.785H64.78c-1.464,0-2.651,1.187-2.651,2.651v1.93h20.647
				C83.029,100.872,83.619,99.305,84.518,97.785z"/>
			<circle class="st4" cx="77.836" cy="7.133" r="2.168"/>
		</g>
	</g>
	<g>
		<g>
			<path class="st5" d="M122.617,86.236l-4.411-1.484l2.425-3.972c-2.55-2.022-7.041-2.464-11.506-0.839
				c-0.617,0.224-1.207,0.481-1.77,0.762c0.029-0.404,0.045-0.814,0.045-1.23c0-4.751-1.952-8.821-4.723-10.525l-2.903,3.638
				l-2.903-3.638c-2.772,1.704-4.723,5.774-4.723,10.525c0,0.416,0.016,0.826,0.045,1.23c-0.564-0.281-1.154-0.538-1.77-0.762
				c-4.465-1.625-8.956-1.183-11.506,0.839l2.425,3.972l-4.411,1.484c0.654,3.187,3.81,6.413,8.275,8.038
				c0.532,0.194,1.064,0.357,1.593,0.492c-0.134,0.141-0.267,0.285-0.398,0.432c-3.159,3.549-4.406,7.887-3.469,11.003l4.587-0.787
				l-0.25,4.647c3.204,0.569,7.367-1.173,10.526-4.723c0.776-0.873,1.437-1.793,1.979-2.731c0.542,0.938,1.202,1.858,1.979,2.731
				c3.159,3.549,7.322,5.292,10.526,4.723l-0.25-4.647l4.587,0.787c0.937-3.116-0.31-7.453-3.469-11.003
				c-0.131-0.147-0.263-0.291-0.398-0.432c0.529-0.136,1.061-0.299,1.593-0.492C118.807,92.649,121.963,89.424,122.617,86.236z"/>
			<g>
				<path class="st0" d="M17.323,99.222c-0.363-0.416-0.994-0.459-1.411-0.096c-0.417,0.363-0.459,0.995-0.096,1.411
					c2.23,2.558,4.698,4.937,7.333,7.071c0.185,0.15,0.408,0.223,0.629,0.223c0.291,0,0.58-0.126,0.778-0.371
					c0.347-0.429,0.281-1.059-0.148-1.407C21.862,103.991,19.478,101.692,17.323,99.222z"/>
				<path class="st0" d="M74.115,36.25h3.407c0.552,0,1-0.448,1-1s-0.448-1-1-1h-3.407c-0.552,0-1,0.448-1,1
					S73.563,36.25,74.115,36.25z"/>
				<path class="st0" d="M122.936,85.289l-3.224-1.084l1.772-2.903c0.263-0.431,0.164-0.991-0.232-1.305
					c-1.279-1.014-2.957-1.634-4.818-1.892c1.466-5.121,2.266-10.52,2.266-16.105c0-24.963-15.681-46.319-37.704-54.773
					c0.001-0.032,0.009-0.062,0.009-0.094c0-1.747-1.421-3.168-3.168-3.168c-1.089,0-2.052,0.553-2.622,1.394
					C70.37,4.057,65.29,3.342,60.041,3.342C27.697,3.342,1.383,29.656,1.383,62c0,12.805,4.053,24.972,11.72,35.186
					c0.333,0.441,0.958,0.531,1.4,0.199c0.441-0.332,0.531-0.958,0.199-1.4c-2.267-3.019-4.203-6.217-5.803-9.554h56.036v10.354
					H64.78c-2.013,0-3.651,1.638-3.651,3.651v1.93c0,0.552,0.448,1,1,1h19.54c-0.069,1.096,0.014,2.155,0.305,3.124
					c0.146,0.484,0.629,0.787,1.127,0.697l3.352-0.575l-0.182,3.396c-0.027,0.504,0.326,0.95,0.824,1.038
					c0.349,0.062,0.706,0.093,1.069,0.107c-8.293,4.765-17.89,7.505-28.122,7.505c-11.403,0-22.396-3.372-31.79-9.752
					c-0.457-0.311-1.078-0.191-1.389,0.265c-0.311,0.457-0.191,1.079,0.265,1.389c9.727,6.606,21.108,10.098,32.914,10.098
					c13.073,0,25.146-4.315,34.907-11.575c0.899-0.574,1.767-1.261,2.585-2.042c0.862-0.719,1.704-1.462,2.524-2.229
					c0.303,0.405,0.609,0.81,0.949,1.192c3.303,3.711,7.8,5.694,11.447,5.042c0.498-0.088,0.851-0.534,0.824-1.038l-0.182-3.396
					l3.352,0.575c0.496,0.091,0.981-0.213,1.127-0.697c0.999-3.319-0.198-7.635-3.055-11.216c0.056-0.02,0.111-0.04,0.167-0.06
					c4.669-1.699,8.167-5.144,8.913-8.776C123.698,85.942,123.415,85.45,122.936,85.289z M116.699,62
					c0,5.545-0.813,10.902-2.305,15.971c-1.812,0.017-3.727,0.346-5.612,1.031c-0.129,0.047-0.258,0.095-0.386,0.146
					c-0.087-4.838-2.107-9.151-5.196-11.051c-0.429-0.262-0.989-0.166-1.306,0.228l-0.948,1.188
					c-0.171-0.051-0.354-0.071-0.538-0.023c-0.568,0.15-1.126,0.205-1.673,0.194l-1.085-1.359c-0.315-0.394-0.875-0.49-1.306-0.228
					c-0.331,0.204-0.644,0.448-0.949,0.705c-2.288-1.146-4.025-3.086-4.66-3.861v-2.48c6.19-0.031,10.308-2.782,10.49-2.906
					c0.402-0.274,0.549-0.798,0.347-1.241c-0.202-0.443-0.692-0.676-1.165-0.552c-4.589,1.208-8.633-3.276-9.672-4.55v-2.48
					c6.19-0.033,10.308-2.781,10.49-2.906c0.402-0.274,0.549-0.798,0.347-1.241c-0.202-0.442-0.692-0.677-1.165-0.552
					c-4.589,1.209-8.633-3.275-9.672-4.55v-2.48c6.19-0.035,10.307-2.781,10.49-2.905c0.402-0.274,0.549-0.798,0.347-1.242
					c-0.202-0.442-0.692-0.678-1.165-0.552c-4.418,1.157-11.834-7.611-14.32-11.089c-0.188-0.263-0.491-0.419-0.814-0.419h-6.439
					V21.04h1.783c0.552,0,1-0.448,1-1s-0.448-1-1-1h-1.783v-1.922h1.783c0.552,0,1-0.448,1-1s-0.448-1-1-1h-1.783V13.05h1.783
					c0.552,0,1-0.448,1-1s-0.448-1-1-1h-1.783v-0.926c0.583-0.196,1.086-0.552,1.463-1.023
					C101.562,17.272,116.699,37.895,116.699,62z M83.957,96.785h-3.083v-3.5h0.197c1.135,0.768,2.411,1.427,3.792,1.929
					c0.055,0.021,0.111,0.04,0.167,0.06C84.638,95.765,84.285,96.271,83.957,96.785z M70.14,34.25H61.68
					c4.195-2.88,8.016-7.814,9.226-9.455h13.86c1.209,1.641,5.03,6.575,9.225,9.455H80.93c-0.552,0-1,0.448-1,1s0.448,1,1,1h14.958
					c-1.688,0.486-3.802,0.851-6.224,0.732L65.96,36.984c-2.398,0.118-4.504-0.248-6.186-0.733H70.14c0.552,0,1-0.448,1-1
					S70.692,34.25,70.14,34.25z M66.935,38.983l21.802-0.001v1.752H66.935V38.983z M66.5,42.734h22.672
					c0.544,0.676,1.748,2.042,3.405,3.246H63.096C64.752,44.776,65.956,43.41,66.5,42.734z M95.88,47.979
					c-1.685,0.484-3.79,0.848-6.216,0.732L65.96,48.712c-2.393,0.12-4.48-0.249-6.16-0.733H95.88z M66.935,50.711l21.802-0.001
					v1.752H66.935V50.711z M66.5,54.462h22.672c0.544,0.676,1.748,2.042,3.405,3.246H63.096
					C64.752,56.505,65.956,55.139,66.5,54.462z M95.88,59.708c-1.685,0.484-3.79,0.851-6.216,0.732L65.96,60.441
					c-2.393,0.119-4.48-0.249-6.16-0.733H95.88z M66.935,62.44l21.802-0.001v1.752H66.935V62.44z M66.5,66.191h22.672
					c0.545,0.677,1.757,2.042,3.419,3.245H63.096C64.753,68.233,65.956,66.868,66.5,66.191z M54.446,71.283
					c0.172,0.117,3.855,2.58,9.44,2.88c0.35,0.219,0.699,0.441,1.05,0.655v1.851c-1.039,1.275-5.08,5.757-9.672,4.549
					c-0.47-0.124-0.963,0.109-1.165,0.552c-0.202,0.443-0.056,0.967,0.347,1.242c0.088,0.06,1.103,0.734,2.814,1.419H8.014
					c-0.888-2.057-1.658-4.184-2.296-6.342c5.671-3.236,10.542-6.674,14.487-10.227c3.761-3.387,6.716-6.751,8.875-9.208
					c1.737-1.978,3.707-4.22,4.293-4.282c0.1,0.014,0.256,0.06,0.457,0.113c0.699,0.184,1.868,0.493,3.155,0.5
					c0.694,0.016,1.49-0.217,2.174-0.411c0.38-0.108,0.943-0.269,1.168-0.269c0.001,0,0.003,0,0.004,0
					c1.787,0.9,3.798,3.062,6.124,5.561c1.802,1.937,3.844,4.131,6.196,6.183c1.427,1.245,2.964,2.459,4.562,3.637
					c-0.633,0.035-1.285-0.021-1.949-0.196c-0.47-0.123-0.963,0.109-1.165,0.552C53.897,70.485,54.043,71.009,54.446,71.283z
					 M91.282,77.299c-0.226-0.249-0.411-0.466-0.545-0.629v-2.497c0.427-0.003,0.845-0.016,1.252-0.043
					C91.659,75.126,91.419,76.19,91.282,77.299z M88.738,75.92H66.935v-1.751l21.802-0.001V75.92z M66.935,85.897l9.071,0
					c-0.063,0.17-0.094,0.352-0.056,0.54c0.147,0.718,0.406,1.429,0.757,2.121h-1.306c-0.552,0-1,0.448-1,1v1.727h-7.466V85.897z
					 M76.402,90.558h1.63c0.262,0.317,0.541,0.628,0.842,0.928v5.299h-2.472V90.558z M65.96,83.898
					c-2.39,0.12-4.481-0.249-6.161-0.733H79.2l0.448,0.733L65.96,83.898z M78.295,79.997c-0.357,0.283-0.457,0.761-0.284,1.168
					H63.096c1.656-1.203,2.86-2.569,3.404-3.245h22.672c0.167,0.208,0.415,0.495,0.7,0.808
					C85.481,77.383,81.016,77.838,78.295,79.997z M92.888,72.034c-0.997,0.127-2.069,0.191-3.224,0.135L65.96,72.17
					c-2.392,0.116-4.481-0.25-6.161-0.733h33.414C93.099,71.629,92.993,71.831,92.888,72.034z M77.836,5.964
					c0.645,0,1.168,0.524,1.168,1.168c0,0.644-0.524,1.168-1.168,1.168c-0.644,0-1.168-0.524-1.168-1.168
					C76.668,6.488,77.192,5.964,77.836,5.964z M3.383,62c0-31.241,25.417-56.658,56.658-56.658c5.065,0,9.968,0.69,14.642,1.944
					c0.065,1.327,0.945,2.432,2.152,2.838v0.926h-1.543c-0.552,0-1,0.448-1,1s0.448,1,1,1h1.543v2.068h-1.543c-0.552,0-1,0.448-1,1
					s0.448,1,1,1h1.543v1.922h-1.543c-0.552,0-1,0.448-1,1s0.448,1,1,1h1.543v1.756h-6.439c-0.323,0-0.626,0.156-0.814,0.419
					c-2.144,2.999-7.957,9.923-12.344,11.036h-0.161c-0.165,0-0.315,0.05-0.452,0.121c-0.478,0.061-0.935,0.044-1.362-0.068
					c-0.47-0.125-0.963,0.109-1.165,0.552c-0.202,0.443-0.056,0.967,0.347,1.242c0.182,0.124,4.321,2.89,10.49,2.909v2.477
					c-1.039,1.275-5.08,5.758-9.672,4.549c-0.47-0.123-0.963,0.109-1.165,0.552c-0.202,0.443-0.056,0.967,0.347,1.241
					c0.182,0.125,4.321,2.891,10.49,2.909v2.477c-0.774,0.95-3.216,3.663-6.31,4.497h-0.098c-0.177,0-0.335,0.058-0.479,0.139
					c-0.89,0.164-1.825,0.167-2.785-0.086c-0.47-0.123-0.963,0.109-1.165,0.552c-0.202,0.443-0.056,0.967,0.347,1.241
					c0.182,0.125,4.321,2.891,10.49,2.909v2.479c-0.675,0.832-2.623,3.019-5.177,4.112c-2.045-1.448-4.008-2.955-5.794-4.513
					c-2.273-1.983-4.277-4.138-6.046-6.038c-2.488-2.674-4.637-4.983-6.773-6.027c-0.709-0.345-1.555-0.104-2.535,0.174
					c-0.551,0.157-1.176,0.335-1.605,0.335c-0.003,0-0.006,0-0.009,0c-1.033-0.006-2.01-0.264-2.656-0.435
					c-0.414-0.109-0.665-0.175-0.906-0.175c-1.502,0-3.049,1.761-5.857,4.959c-2.244,2.554-5.036,5.733-8.709,9.042
					c-3.739,3.367-8.356,6.634-13.718,9.725C3.985,71.544,3.383,66.82,3.383,62z M66.935,93.285h7.466v3.5h-7.466V93.285z
					 M63.129,101.366v-0.93c0-0.911,0.741-1.651,1.651-1.651h1.155h9.466h4.472h3.006c-0.393,0.859-0.699,1.723-0.906,2.582H63.129z
					 M114,93.335c-0.41,0.149-0.838,0.274-1.266,0.391l-2.732-0.745c-0.533-0.145-1.082,0.169-1.228,0.702
					c-0.145,0.533,0.169,1.083,0.702,1.228l2.733,0.746c0.064,0.069,0.128,0.137,0.191,0.207c2.537,2.851,3.851,6.422,3.447,9.191
					l-3.304-0.567l-1.842-2.07c-0.367-0.412-0.998-0.449-1.412-0.082c-0.412,0.367-0.449,1-0.082,1.412l1.841,2.069l0.18,3.347
					c-0.062,0.001-0.124,0.002-0.187,0.002c-2.76,0-6.062-1.706-8.542-4.493c-0.659-0.74-1.232-1.536-1.726-2.36v-2.825
					c0-0.552-0.448-1-1-1s-1,0.448-1,1v2.825c-0.496,0.826-1.068,1.622-1.726,2.36c-2.537,2.852-5.954,4.555-8.729,4.491l0.18-3.347
					l1.841-2.069c0.367-0.413,0.33-1.045-0.082-1.412c-0.414-0.367-1.045-0.33-1.412,0.082l-1.842,2.07l-3.304,0.567
					c-0.403-2.77,0.91-6.341,3.447-9.191c0.063-0.071,0.127-0.139,0.191-0.208l2.732-0.745c0.533-0.146,0.847-0.695,0.702-1.228
					c-0.146-0.533-0.696-0.85-1.228-0.702l-2.731,0.745c-0.428-0.117-0.855-0.242-1.266-0.391c-3.586-1.305-6.437-3.826-7.396-6.454
					l3.177-1.069l2.604,0.947c0.113,0.041,0.228,0.061,0.342,0.061c0.408,0,0.792-0.252,0.94-0.659
					c0.188-0.519-0.079-1.093-0.598-1.282l-2.603-0.947l-1.747-2.861c2.424-1.397,6.229-1.496,9.814-0.19
					c0.512,0.187,1.021,0.412,1.519,0.654l2.09,2.088c0.195,0.195,0.451,0.292,0.707,0.292s0.512-0.098,0.708-0.293
					c0.39-0.391,0.39-1.024,0-1.415l-1.925-1.923c-0.014-0.269-0.03-0.536-0.03-0.811c0-3.816,1.393-7.357,3.535-9.157l2.091,2.62
					v2.77c0,0.552,0.448,1,1,1s1-0.448,1-1v-2.77l2.091-2.62c2.142,1.8,3.535,5.341,3.535,9.157c0,0.27-0.016,0.534-0.029,0.8
					l-1.929,1.927c-0.391,0.39-0.391,1.023-0.001,1.414c0.195,0.196,0.451,0.293,0.708,0.293c0.256,0,0.512-0.098,0.707-0.292
					l2.073-2.071c0.506-0.247,1.022-0.475,1.539-0.663c3.586-1.305,7.39-1.207,9.814,0.19l-1.747,2.861l-2.603,0.947
					c-0.519,0.189-0.787,0.763-0.598,1.282c0.148,0.406,0.532,0.659,0.94,0.659c0.114,0,0.229-0.02,0.342-0.061l2.604-0.947
					l3.177,1.069C120.437,89.509,117.586,92.03,114,93.335z"/>
			</g>
		</g>
		<path class="st2" d="M108.332,88.016c-0.197-0.735-0.952-1.171-1.687-0.974c-0.354,0.095-0.635,0.32-0.813,0.609l-4.644,1.244
			c-0.122-0.122-0.264-0.221-0.414-0.308v-5.202c0.232-0.247,0.377-0.577,0.377-0.943c0-0.761-0.617-1.378-1.378-1.378
			c-0.761,0-1.378,0.617-1.378,1.378c0,0.366,0.145,0.696,0.378,0.943v5.201c-0.15,0.087-0.292,0.187-0.414,0.309l-4.644-1.244
			c-0.178-0.289-0.46-0.514-0.813-0.609c-0.735-0.197-1.49,0.239-1.687,0.974c-0.197,0.735,0.239,1.49,0.974,1.687
			c0.353,0.095,0.71,0.04,1.008-0.121l4.653,1.247c0.024,0.089,0.047,0.179,0.083,0.263l-2.895,3.848
			c-0.332,0.058-0.646,0.23-0.864,0.521c-0.457,0.608-0.335,1.472,0.273,1.929c0.608,0.457,1.472,0.335,1.929-0.273
			c0.219-0.291,0.297-0.64,0.261-0.975l2.902-3.857c0.078,0.009,0.155,0.024,0.235,0.024c0.081,0,0.157-0.014,0.235-0.024
			l2.902,3.857c-0.036,0.335,0.042,0.684,0.261,0.975c0.457,0.608,1.321,0.73,1.929,0.273c0.608-0.457,0.73-1.321,0.273-1.929
			c-0.219-0.291-0.532-0.462-0.864-0.521l-2.895-3.848c0.036-0.084,0.058-0.174,0.083-0.263l4.653-1.247
			c0.298,0.161,0.655,0.215,1.008,0.121C108.093,89.507,108.529,88.751,108.332,88.016z"/>
	</g>
</g>
</svg>
