<?xml version="1.0" encoding="utf-8"?>
<!-- Generator: Adobe Illustrator 22.1.0, SVG Export Plug-In . SVG Version: 6.00 Build 0)  -->
<svg version="1.1" id="Layer_1" xmlns="http://www.w3.org/2000/svg" xmlns:xlink="http://www.w3.org/1999/xlink" x="0px" y="0px"
	 viewBox="0 0 256 256" style="enable-background:new 0 0 256 256;" xml:space="preserve">
<style type="text/css">
	.st0{fill:#A56021;}
	.st1{fill:#E58D23;}
	.st2{fill:#FCE575;}
	.st3{fill:#FFF4C1;}
	.st4{fill:#FFD551;}
	.st5{fill:#BF6C0D;}
	.st6{fill:#8C4C17;}
	.st7{fill:#FF624B;}
	.st8{fill:#FF4B34;}
	.st9{fill:#DB9C2E;}
	.st10{fill:#FFC34C;}
	.st11{fill:#F9BB32;}
	.st12{fill:#FF9079;}
	.st13{fill:#FCDA4F;}
	.st14{fill:#EACF32;}
	.st15{fill:#CCC033;}
	.st16{fill:#99AF17;}
	.st17{fill:#FFA730;}
	.st18{fill:#FFB74B;}
	.st19{fill:#FFDF74;}
	.st20{fill:#FFD59A;}
	.st21{fill:#FCF9DE;}
	.st22{fill:#FFEACF;}
	.st23{fill:#FFEA63;}
	.st24{fill:#FFEEA4;}
	.st25{fill:#FFF9DC;}
</style>
<g>
	<g>
		<path class="st19" d="M118.085,248h19.829c2.848,0,5.13-2.436,5.038-5.376l-5.88-187.306h-18.144l-5.88,187.306
			C112.955,245.564,115.238,248,118.085,248z"/>
	</g>
	<g>
		<path class="st4" d="M128.169,242.624l5.88-187.307h-15.121l-5.88,187.307c-0.092,2.941,2.19,5.376,5.038,5.376h15.121
			C130.359,248,128.076,245.564,128.169,242.624z"/>
	</g>
	<g>
		<path class="st15" d="M129.888,77.891c5.619-20.645-6.606-46.033-30.375-60.212C75.744,3.5,48.351,5.256,33.856,20.607
			L129.888,77.891z"/>
	</g>
	<g>
		<path class="st14" d="M117.655,52.647c-1.103,0-2.164-0.61-2.688-1.664c-4.459-8.959-12.104-16.989-21.527-22.61
			c-1.423-0.849-1.888-2.69-1.039-4.113c0.848-1.424,2.689-1.889,4.113-1.039c10.398,6.203,18.86,15.113,23.824,25.089
			c0.738,1.483,0.134,3.284-1.349,4.022C118.56,52.546,118.104,52.647,117.655,52.647z"/>
	</g>
	<g>
		<path class="st16" d="M61.074,20.607c4.99-5.285,11.509-8.957,18.883-10.924C61.999,5.427,44.47,9.367,33.856,20.607
			l96.032,57.284c1.362-5.006,1.667-10.291,1.021-15.627L61.074,20.607z"/>
	</g>
	<g>
		<path class="st15" d="M129.888,77.891c10.156-18.703,36.176-27.724,62.686-20.385c26.511,7.339,44.679,28.594,44.423,50.038
			L129.888,77.891z"/>
	</g>
	<g>
		<path class="st14" d="M225.201,97.573c-0.265,0-0.534-0.035-0.802-0.109l-45.465-12.586c-1.597-0.442-2.533-2.095-2.091-3.692
			c0.442-1.595,2.096-2.533,3.691-2.091L226,91.681c1.597,0.442,2.533,2.095,2.091,3.692
			C227.723,96.701,226.516,97.573,225.201,97.573z"/>
	</g>
	<g>
		<path class="st15" d="M63.426,57.505c-26.511,7.339-44.679,28.594-44.423,50.038l24.824-6.872l3.992-19.975l11.343,15.729
			l66.95-18.535C115.956,59.188,89.936,50.166,63.426,57.505z"/>
	</g>
	<g>
		<path class="st15" d="M159.727,17.679C183.496,3.5,210.89,5.256,225.384,20.607l-22.257,13.276l-16.493-11.208l2.744,19.41
			l-60.026,35.806C123.734,57.246,135.958,31.857,159.727,17.679z"/>
	</g>
	<g>
		<g>
			<path class="st16" d="M78.547,60.63c7.956-2.203,15.865-2.922,23.317-2.358c-11.288-3.979-24.795-4.544-38.438-0.767
				c-26.511,7.339-44.679,28.594-44.423,50.038l15.781-4.369C38.241,84.443,55.137,67.111,78.547,60.63z"/>
		</g>
	</g>
	<g>
		<g>
			<path class="st16" d="M177.873,17.679c7.903-4.714,16.205-7.657,24.302-8.934c-13.151-2.244-28.429,0.571-42.448,8.934
				c-23.769,14.178-35.994,39.567-30.375,60.212l16.795-10.018C146.006,49.546,157.837,29.63,177.873,17.679z"/>
		</g>
	</g>
	<g>
		<path class="st16" d="M207.695,73.128c8.192,2.268,15.584,5.867,21.885,10.387c-7.661-11.788-20.762-21.513-37.006-26.01
			c-26.511-7.339-52.531,1.682-62.687,20.385l22.378,6.195C164.909,72.01,186.139,67.161,207.695,73.128z"/>
	</g>
	<g>
		<path class="st11" d="M138.531,108.335h-0.14c-9.565,0-17.319-7.754-17.319-17.319v-1.294c0-9.565,7.754-17.319,17.319-17.319
			h0.14c9.565,0,17.319,7.754,17.319,17.319v1.294C155.85,100.581,148.096,108.335,138.531,108.335z"/>
	</g>
	<g>
		<path class="st11" d="M117.352,95.857h-0.14c-9.565,0-17.319-7.754-17.319-17.319v-1.294c0-9.565,7.754-17.319,17.319-17.319h0.14
			c9.565,0,17.319,7.754,17.319,17.319v1.294C134.672,88.103,126.918,95.857,117.352,95.857z"/>
	</g>
	<g>
		<path class="st9" d="M115.015,77.906v-0.031c0-7.12,4.013-13.272,9.829-16.174c-2.282-1.138-4.841-1.777-7.546-1.777h-0.03
			c-9.595,0-17.374,8.037-17.374,17.951v0.031c0,9.914,7.779,17.951,17.374,17.951h0.03c2.704,0,5.263-0.638,7.546-1.777
			C119.027,91.178,115.015,85.027,115.015,77.906z"/>
	</g>
	<g>
		<path class="st9" d="M136.193,90.385v-0.031c0-7.12,4.012-13.272,9.829-16.174c-2.282-1.139-4.841-1.777-7.545-1.777h-0.03
			c-9.596,0-17.374,8.037-17.374,17.951v0.031c0,9.914,7.779,17.951,17.374,17.951h0.03c2.704,0,5.263-0.638,7.545-1.777
			C140.205,103.656,136.193,97.505,136.193,90.385z"/>
	</g>
	<g>
		<polygon class="st14" points="113.556,226.422 142.444,226.422 141.953,210.799 114.047,210.799 		"/>
	</g>
	<g>
		<polygon class="st14" points="114.537,195.176 141.463,195.176 140.972,179.553 115.028,179.553 		"/>
	</g>
	<g>
		<polygon class="st14" points="115.518,163.93 140.482,163.93 139.991,148.307 116.009,148.307 		"/>
	</g>
	<g>
		<polygon class="st14" points="116.499,132.684 139.501,132.684 139.01,117.061 116.989,117.061 		"/>
	</g>
	<g>
		<polygon class="st15" points="114.047,210.799 113.791,218.957 113.556,226.422 128.677,226.422 129.168,210.799 		"/>
	</g>
	<g>
		<polygon class="st15" points="115.028,179.553 114.977,181.152 114.537,195.176 129.658,195.176 130.149,179.553 		"/>
	</g>
	<g>
		<polygon class="st15" points="116.009,148.307 115.899,151.801 115.518,163.93 130.639,163.93 131.13,148.307 		"/>
	</g>
	<g>
		<polygon class="st15" points="116.989,117.061 116.735,125.174 116.499,132.684 131.62,132.684 132.111,117.061 		"/>
	</g>
	<g>
		<circle class="st16" cx="67.579" cy="79.687" r="8.75"/>
	</g>
</g>
</svg>
