<?xml version="1.0" encoding="utf-8"?>
<!-- Generator: Adobe Illustrator 22.0.1, SVG Export Plug-In . SVG Version: 6.00 Build 0)  -->
<svg version="1.1" id="Layer_1" xmlns="http://www.w3.org/2000/svg" xmlns:xlink="http://www.w3.org/1999/xlink" x="0px" y="0px"
	 viewBox="0 0 128 128" style="enable-background:new 0 0 128 128;" xml:space="preserve">
<style type="text/css">
	.st0{fill:#3A2C60;}
	.st1{fill:#E6E7E8;}
	.st2{fill:#FA759E;}
	.st3{fill:#FFFFFF;}
	.st4{fill:#6DC9F7;}
	.st5{fill:#FFD7E5;}
	.st6{fill:#0089EF;}
	.st7{fill:#D4FBFF;}
	.st8{fill:#F5F6F9;}
	.st9{fill:#D0D2D3;}
</style>
<g>
	<path class="st1" d="M105.877,8.464c-0.382-1.438-1.856-2.294-3.784-1.912l-51.995,13.8c-0.844,0.34-1.613,1.547-1.502,2.822
		c-0.026,0.314-0.006,0.639,0.08,0.962c0.23,0.868,0.86,1.522,1.531,1.821L45.51,36.654h-3.308v6.178
		c-0.094,0.019-0.191,0.031-0.285,0.051c-0.472,0.101-0.937,0.218-1.394,0.35c-6.263,1.807-12.064,7.157-12.517,14.057
		c-0.019,0.293-0.029,0.588-0.029,0.885c0,0,0,0.713,0,0.765c0,13.963,0,27.926,0,41.889v2.69c0,0.259,0.008,0.517,0.022,0.773
		c0.015,0.256,0.036,0.511,0.063,0.764c0.025,0.221,0.056,0.441,0.092,0.659c1.05,6.389,6.501,11.101,12.519,12.788
		c0.5,0.14,1.011,0.258,1.529,0.361v4.637h20.799v-4.637c0.825-0.165,1.632-0.373,2.411-0.63
		c6.357-2.099,11.811-7.714,11.813-14.712c0.005-14.86,0-29.719,0-44.579c0,0,0-0.769,0-0.769c0-7.298-5.869-13.015-12.546-14.941
		c-0.457-0.132-0.922-0.249-1.394-0.35c-0.02-0.004-0.042-0.007-0.062-0.011c0.085-0.142,0.104-0.319,0.021-0.476l-0.244-0.463
		v-5.278h-2.774l-5.963-11.345l49.21-13.061c1.738-0.344,2.602-1.577,2.476-2.87C105.98,9.079,105.959,8.771,105.877,8.464z
		 M59.12,36.654H46.581l4.625-10.535c0.094-0.015,0.187-0.036,0.274-0.071l1.813-0.481L59.12,36.654z"/>
	<g>
		<g>
			<path class="st2" d="M71.284,56.213v45.344c0,0.519-0.031,1.03-0.085,1.537c-0.201,1.768-0.748,3.447-1.576,4.996
				c-0.837,1.56-1.961,2.986-3.317,4.227c-3.353,3.07-8.117,4.996-13.377,4.996H40.393c-5.261,0-10.024-1.925-13.377-4.996
				c-1.356-1.241-2.48-2.667-3.317-4.227c-0.828-1.549-1.374-3.228-1.576-4.996c-0.054-0.507-0.085-1.018-0.085-1.537V56.213
				c0-1.187,0.157-2.344,0.448-3.458c0.475-1.798,1.312-3.485,2.435-4.996c1.222-1.637,2.789-3.07,4.611-4.227
				c3.044-1.929,6.805-3.074,10.861-3.074h12.536c4.056,0,7.817,1.145,10.861,3.074c1.822,1.157,3.389,2.59,4.611,4.227
				c1.124,1.51,1.961,3.197,2.435,4.996C71.127,53.868,71.284,55.025,71.284,56.213z"/>
		</g>
		<path class="st3" d="M55.587,82.458l3.452,1.18c0.165,0.056,0.769,0.25,0.993,0.188c4.193-1.17,7.307-3.863,8.109-6.67
			l-2.899-1.063c-0.294-0.108-0.636-0.142-0.91,0.012c-0.035,0.019-0.073,0.035-0.113,0.045l-3.195,0.798
			c-0.04,0.01-0.08,0.015-0.119,0.015c-0.22,0-0.419-0.149-0.475-0.371c-0.066-0.263,0.094-0.529,0.357-0.595l3.195-0.798
			c0.017-0.005,0.035-0.008,0.052-0.01c0.322-0.043,0.616-0.201,0.819-0.454l1.938-2.42c-2.139-1.986-6.197-2.679-10.391-1.51
			c-0.809,0.226-2.332,1.204-2.435,1.35l-1.788,2.538c-0.095,0.135-0.247,0.208-0.401,0.208c-0.098,0-0.196-0.029-0.282-0.089
			c-0.221-0.156-0.274-0.462-0.118-0.683l1.788-2.538c0.023-0.032,0.048-0.061,0.077-0.085c0.257-0.225,0.478-0.494,0.525-0.832
			c0.103-0.744,0.16-1.492,0.159-2.229c-0.002-4.353-1.872-8.075-4.516-9.6l-1.938,2.539c-0.197,0.258-0.282,0.58-0.243,0.902
			c0.002,0.019,0.003,0.039,0.003,0.059l-0.03,3.429c-0.002,0.269-0.221,0.486-0.49,0.486c-0.001,0-0.003,0-0.004,0
			c-0.27-0.002-0.488-0.224-0.486-0.495l0.03-3.429c0-0.011,0.001-0.022,0.001-0.033c0.026-0.329-0.043-0.657-0.243-0.919
			l-1.94-2.536c-2.643,1.528-4.508,5.252-4.506,9.605c0.001,1.176,0.745,3.564,0.867,3.701l2.35,2.669
			c0.179,0.203,0.159,0.513-0.044,0.692c-0.093,0.082-0.209,0.122-0.324,0.122c-0.136,0-0.271-0.056-0.368-0.166l-2.35-2.669
			c-0.026-0.03-0.048-0.062-0.066-0.096c-0.163-0.313-0.375-0.601-0.7-0.737c-0.709-0.297-1.433-0.553-2.161-0.755
			c-4.195-1.165-8.223-0.571-10.32,1.272l1.964,2.304c0.215,0.253,0.529,0.368,0.856,0.423c0.036,0.006,0.072,0.017,0.107,0.031
			l2.97,1.265c0.249,0.106,0.365,0.394,0.259,0.643c-0.079,0.186-0.26,0.298-0.451,0.298c-0.064,0-0.129-0.013-0.192-0.04
			l-2.97-1.265c-0.134-0.057-3.807,0.888-3.807,0.888c0.846,2.66,3.991,5.247,8.185,6.412c0.245,0.068,0.911-0.134,1.09-0.182
			l2.965-0.803c0.261-0.069,0.531,0.083,0.601,0.345c0.071,0.261-0.083,0.53-0.345,0.601l-2.965,0.803
			c-0.043,0.012-0.086,0.017-0.129,0.017c-0.133,0-0.953,0.455-1.231,0.775c-2.854,3.287-3.879,7.328-2.876,10.221l3.136-0.639
			c0.304-0.062,0.606-0.214,0.756-0.485c0.019-0.034,0.042-0.066,0.07-0.095l2.346-2.445c0.187-0.195,0.497-0.202,0.693-0.014
			c0.195,0.187,0.202,0.498,0.014,0.693l-2.458,2.835c-0.096,0.1-0.507,3.667-0.507,3.667c3.005,0.588,6.862-0.993,9.717-4.28
			c0.718-0.827,1.658-2.968,1.66-3.152l0.037-3.762c0.003-0.27,0.232-0.5,0.495-0.485c0.271,0.003,0.488,0.224,0.485,0.495
			l-0.037,3.762c-0.002,0.182,0.958,2.37,1.695,3.217c2.858,3.284,6.74,4.84,9.777,4.221c0,0-0.534-4.003-0.63-4.131l-1.62-2.16
			c-0.163-0.217-0.119-0.524,0.098-0.686c0.216-0.163,0.523-0.119,0.686,0.098l1.62,2.16c0.087,0.115,3.958,1.14,3.958,1.14
			c1.033-2.923,0.026-6.982-2.832-10.266c-0.135-0.155-0.63-0.316-0.755-0.316c-0.053,0-0.106-0.009-0.158-0.027l-3.452-1.18
			c-0.256-0.088-0.393-0.366-0.305-0.623C55.053,82.507,55.332,82.37,55.587,82.458z M54.548,79.764
			c-0.339,0-0.645-0.126-0.885-0.329l-5.443,1.401l3.134,4.214c0.657,0.104,1.161,0.669,1.162,1.356c0,0.19-0.038,0.372-0.108,0.537
			c-0.034,0.259-0.165,0.505-0.392,0.673c-0.18,0.133-0.389,0.198-0.596,0.198c-0.059,0-0.113-0.029-0.172-0.04
			c-0.037,0.003-0.072,0.011-0.11,0.011c-0.761,0-1.379-0.616-1.379-1.378c0-0.045,0.009-0.088,0.013-0.132l-3.233-4.348
			l-3.125,4.31c0.007,0.057,0.017,0.114,0.018,0.173c0,0.761-0.616,1.379-1.378,1.379c-0.761,0-1.379-0.616-1.379-1.378
			c0-0.674,0.484-1.234,1.124-1.353l3.05-4.206l-5.104-1.262c-0.199,0.112-0.426,0.182-0.671,0.182
			c-0.761,0-1.379-0.616-1.379-1.378s0.616-1.379,1.378-1.379c0.487,0,0.913,0.254,1.158,0.635l5.309,1.313l0.041-5.277
			c-0.228-0.246-0.371-0.573-0.371-0.934c0-0.761,0.616-1.379,1.378-1.379c0.761,0,1.379,0.616,1.379,1.378
			c0,0.37-0.148,0.705-0.385,0.953l-0.041,5.242l6.064-1.56c0.247-0.233,0.577-0.378,0.943-0.379c0.761,0,1.379,0.616,1.379,1.378
			C55.926,79.146,55.309,79.763,54.548,79.764z"/>
		<g>
			<path class="st3" d="M99.936,6.503c-0.382-1.438-1.856-2.294-3.784-1.912l-51.995,13.8c-0.948,0.382-1.804,1.856-1.422,3.294
				c0.382,1.438,1.856,2.294,2.804,1.912l51.995-13.8C99.461,9.416,100.318,7.941,99.936,6.503z"/>
		</g>
		<path class="st4" d="M103.936,7.503c-0.382-1.438-1.856-2.294-3.784-1.912l-51.995,13.8c-0.948,0.382-1.804,1.856-1.422,3.294
			c0.382,1.438,1.856,2.294,2.804,1.912l51.995-13.8C103.461,10.416,104.318,8.941,103.936,7.503z"/>
		<g>
			<path class="st0" d="M22.037,75.13c0.553,0,1-0.448,1-1V63.563c0-0.552-0.447-1-1-1s-1,0.448-1,1V74.13
				C21.037,74.682,21.484,75.13,22.037,75.13z"/>
			<path class="st0" d="M100.903,6.736c-0.538-2.022-2.569-3.107-4.946-2.636c-0.021,0.004-0.042,0.009-0.063,0.015L43.9,17.915
				c-0.04,0.01-0.079,0.023-0.117,0.039c-1.368,0.552-2.532,2.526-2.015,4.478c0.266,1.001,0.959,1.868,1.858,2.355l-3.78,9.906
				h-2.041c-0.853,0-1.545,0.692-1.545,1.545v3.614c-2.603,0.492-5.068,1.442-7.266,2.835c-1.938,1.23-3.578,2.735-4.877,4.474
				c-1.226,1.646-2.101,3.442-2.602,5.34c-0.318,1.219-0.479,2.468-0.479,3.711v2.63c0,0.552,0.447,1,1,1s1-0.448,1-1v-2.63
				c0-1.073,0.14-2.151,0.414-3.203c0.435-1.648,1.199-3.213,2.27-4.652c1.152-1.543,2.615-2.882,4.346-3.981
				c2.971-1.882,6.638-2.918,10.326-2.918h12.536c3.741,0,7.312,1.009,10.325,2.918c1.732,1.1,3.194,2.44,4.345,3.979
				c1.072,1.441,1.836,3.007,2.27,4.652c0.276,1.053,0.416,2.131,0.416,3.205v45.345c0,0.459-0.026,0.927-0.078,1.424
				c-0.183,1.601-0.675,3.161-1.464,4.636c-0.78,1.453-1.827,2.786-3.111,3.962c-3.286,3.008-7.915,4.733-12.702,4.733H40.393
				c-4.788,0-9.417-1.725-12.702-4.733c-1.284-1.176-2.331-2.509-3.11-3.961c-0.789-1.474-1.282-3.034-1.464-4.629
				c-0.053-0.504-0.079-0.973-0.079-1.432V79.316c0-0.552-0.447-1-1-1s-1,0.448-1,1v22.241c0,0.53,0.029,1.067,0.092,1.65
				c0.211,1.854,0.778,3.656,1.688,5.355c0.886,1.652,2.071,3.164,3.522,4.492c2.684,2.458,6.167,4.136,9.921,4.856v1.33
				c0,1.27,1.029,2.299,2.299,2.299h16.201c1.27,0,2.299-1.029,2.299-2.299v-1.33c3.754-0.721,7.237-2.399,9.921-4.856
				c1.452-1.328,2.638-2.84,3.524-4.493c0.909-1.701,1.478-3.502,1.688-5.362c0.062-0.576,0.091-1.113,0.091-1.643V56.212
				c0-1.245-0.162-2.494-0.481-3.714c-0.5-1.895-1.374-3.69-2.601-5.339c-1.297-1.737-2.938-3.242-4.877-4.473
				c-2.198-1.392-4.663-2.342-7.265-2.835v-3.614c0-0.853-0.692-1.545-1.545-1.545h-2.106l-4.46-10.476l48.779-12.948
				c1.223-0.242,2.209-0.877,2.777-1.788C101.015,8.665,101.155,7.691,100.903,6.736z M51.236,34.693h-9.248l3.663-9.6
				c0.065-0.017,0.133-0.029,0.196-0.052l1.15-0.305L51.236,34.693z M98.809,8.421c-0.273,0.438-0.795,0.752-1.532,0.9
				L48.157,22.358l-0.93-2.184c-0.16-0.375-0.509-0.619-0.938-0.608c-0.408,0.008-0.771,0.263-0.916,0.644L44.35,22.89
				c-0.269-0.209-0.533-0.536-0.648-0.971c-0.256-0.963,0.346-1.872,0.786-2.091L96.375,6.056c1.317-0.251,2.335,0.215,2.595,1.193
				C99.081,7.669,99.025,8.074,98.809,8.421z"/>
		</g>
	</g>
</g>
</svg>
