<?xml version="1.0" encoding="utf-8"?>
<!-- Generator: Adobe Illustrator 22.0.1, SVG Export Plug-In . SVG Version: 6.00 Build 0)  -->
<svg version="1.1" id="Layer_1" xmlns="http://www.w3.org/2000/svg" xmlns:xlink="http://www.w3.org/1999/xlink" x="0px" y="0px"
	 viewBox="0 0 128 128" style="enable-background:new 0 0 128 128;" xml:space="preserve">
<style type="text/css">
	.st0{fill:#3A2C60;}
	.st1{fill:#E6E7E8;}
	.st2{fill:#FA759E;}
	.st3{fill:#FFFFFF;}
	.st4{fill:#6DC9F7;}
	.st5{fill:#FFD7E5;}
	.st6{fill:#0089EF;}
	.st7{fill:#D4FBFF;}
	.st8{fill:#F5F6F9;}
	.st9{fill:#D0D2D3;}
</style>
<g>
	<path class="st1" d="M111.651,16.781c-0.409-0.925-1.153-1.636-2.097-2.002l-6.634-2.571c-1.945-0.757-4.146,0.215-4.9,2.162
		l-4.098,10.573c-0.077,0.2-0.089,0.42-0.031,0.627l1.816,6.582l-6.353,16.391c-4.952-17.639-13.511-29.774-18.43-35.682V8.393
		c0-1.408-1.146-2.553-2.553-2.553h-3.119c-1.407,0-2.553,1.145-2.553,2.553v4.47c-4.974,5.972-13.669,18.313-18.593,36.274
		l-6.653-16.586l1.738-6.603c0.055-0.208,0.041-0.428-0.039-0.627l-4.222-10.524c-0.778-1.938-2.99-2.881-4.924-2.104l-6.604,2.649
		c-1.938,0.778-2.883,2.987-2.104,4.925l4.222,10.524c0.08,0.199,0.222,0.368,0.405,0.48l5.82,3.57l10.039,25.026
		c-4.8,29.965,7.24,46.131,20.915,57.596v5.143c0,1.408,1.146,2.553,2.553,2.553h3.119c1.407,0,2.553-1.145,2.553-2.553v-5.143
		c13.751-11.529,25.85-27.812,20.833-58.101l9.685-24.988l5.778-3.639c0.182-0.115,0.321-0.285,0.399-0.485l4.098-10.573
		C112.083,18.736,112.059,17.707,111.651,16.781z"/>
	<g>
		<g>
			<path class="st3" d="M85.563,55.252c-4.107-22.885-15.113-38.407-20.638-45.01v6.412c0,0.858-0.695,1.553-1.553,1.553h-3.12
				c-0.858,0-1.553-0.695-1.553-1.553v-6.412c-5.525,6.603-16.531,22.126-20.638,45.01c-5.224,29.105,4.93,45.63,20.638,58.739
				v-5.645c0-0.858,0.695-1.553,1.553-1.553h3.12c0.858,0,1.553,0.695,1.553,1.553v5.645
				C80.633,100.882,90.787,84.357,85.563,55.252z"/>
			<path class="st2" d="M88.563,55.252c-0.253-1.411-0.54-2.785-0.842-4.14l-18.395,47.46c-0.414,1.068-1.616,1.599-2.685,1.185
				c-1.069-0.414-1.599-1.616-1.185-2.685L85.93,44.248C79.321,22.19,67.072,9.082,64.973,6.953h-0.048v9.7
				c0,0.858-0.695,1.553-1.553,1.553h-3.12c-0.858,0-1.553-0.695-1.553-1.553v-2.591c-5.743,7.763-13.868,21.444-17.432,40.149
				L58.5,97.17c0.427,1.064-0.09,2.272-1.153,2.698c-1.064,0.427-2.272-0.09-2.698-1.153L40.065,62.36
				c-2.293,22.997,5.93,37.46,18.635,49.019v-3.032c0-0.858,0.695-1.553,1.553-1.553h3.12c0.858,0,1.553,0.695,1.553,1.553v8.024
				h0.048C82.331,102.866,94.108,86.145,88.563,55.252z"/>
			<path class="st6" d="M63.372,106.794h-3.12c-0.858,0-1.553,0.695-1.553,1.553v11.26c0,0.858,0.695,1.553,1.553,1.553h3.12
				c0.858,0,1.553-0.695,1.553-1.553v-11.26C64.925,107.489,64.23,106.794,63.372,106.794z"/>
			<path class="st5" d="M82.109,65.59L69.326,98.572c-0.414,1.068-1.616,1.599-2.685,1.185c-1.069-0.414-1.599-1.616-1.185-2.685
				l15.61-40.276c-0.041-0.24-0.074-0.474-0.118-0.716c-3.195-17.801-10.821-30.953-16.307-38.537
				c-0.281,0.4-0.744,0.663-1.27,0.663h-3.12c-0.526,0-0.989-0.263-1.27-0.663c-5.485,7.584-13.111,20.736-16.307,38.537
				c-0.071,0.394-0.127,0.776-0.192,1.165L58.5,97.17c0.427,1.064-0.09,2.272-1.153,2.698c-1.064,0.427-2.272-0.09-2.698-1.153
				L41.493,65.919c-1.155,20.35,6.923,32.574,17.289,41.953c0.201-0.624,0.78-1.078,1.471-1.078h3.12
				c0.691,0,1.269,0.454,1.471,1.078C75.263,98.443,83.369,86.135,82.109,65.59z"/>
			<path class="st2" d="M64.643,17.541c-0.281,0.401-0.744,0.665-1.271,0.665h-3.12c-0.527,0-0.99-0.264-1.271-0.665
				c-4.012,5.553-9.166,14.09-12.898,25.247h31.457C73.809,31.632,68.655,23.095,64.643,17.541z"/>
			<path class="st6" d="M63.372,18.206h-3.12c-0.858,0-1.553-0.695-1.553-1.553V5.393c0-0.858,0.695-1.553,1.553-1.553h3.12
				c0.858,0,1.553,0.695,1.553,1.553v11.26C64.925,17.511,64.23,18.206,63.372,18.206z"/>
			<g>
				<path class="st2" d="M57.943,95.78l0.558,1.39c0.427,1.064-0.09,2.272-1.153,2.698c-1.064,0.427-2.272-0.09-2.698-1.153
					l-1.177-2.935h-5.059c2.884,4.621,6.468,8.552,10.371,12.084c0.204-0.62,0.781-1.071,1.469-1.071h3.12
					c0.688,0,1.265,0.451,1.469,1.071c3.903-3.533,7.487-7.463,10.371-12.084H57.943z"/>
				<path class="st6" d="M63.372,106.794h-3.12c-0.858,0-1.553,0.695-1.553,1.553v11.26c0,0.858,0.695,1.553,1.553,1.553h3.12
					c0.858,0,1.553-0.695,1.553-1.553v-11.26C64.925,107.489,64.23,106.794,63.372,106.794z"/>
			</g>
			<g>
				<g>
					<polygon class="st2" points="46.194,66.492 48.879,73.185 74.714,73.185 77.308,66.492 					"/>
					<path class="st2" d="M41.723,66.492h-0.26c-0.113,2.336-0.106,4.565,0.015,6.693h2.929L41.723,66.492z"/>
				</g>
				<path class="st2" d="M81.759,66.492l-2.594,6.693h2.981c0.121-2.128,0.129-4.357,0.015-6.693H81.759z"/>
			</g>
		</g>
		<g>
			<path class="st7" d="M89.855,22.305l1.905,6.901L65.456,97.072c-0.414,1.069,0.116,2.271,1.185,2.685l0,0
				c1.069,0.414,2.271-0.116,2.685-1.185L95.63,30.705l6.058-3.815l4.098-10.573c0.556-1.435-0.156-3.05-1.592-3.606l-6.634-2.571
				c-1.435-0.556-3.05,0.156-3.606,1.592L89.855,22.305z"/>
			<g>
				<path class="st7" d="M33.225,22.694l-1.823,6.923L58.5,97.17c0.427,1.064-0.09,2.272-1.153,2.698h0
					c-1.064,0.427-2.272-0.09-2.698-1.153L27.55,31.162l-6.102-3.744l-4.222-10.524c-0.573-1.429,0.12-3.051,1.549-3.625
					l6.604-2.649c1.429-0.573,3.051,0.12,3.625,1.549L33.225,22.694z"/>
				<g>
					<path class="st0" d="M61.374,41.789h-7.125c-0.553,0-1,0.448-1,1s0.447,1,1,1h7.125c0.553,0,1-0.448,1-1
						S61.927,41.789,61.374,41.789z"/>
					<path class="st0" d="M104.555,11.779L97.92,9.209c-0.94-0.365-1.972-0.342-2.897,0.066c-0.926,0.409-1.637,1.153-2.002,2.096
						l-4.098,10.573c-0.077,0.2-0.089,0.42-0.031,0.627l1.816,6.582l-6.362,16.413C79.396,27.923,70.844,15.772,65.925,9.864V5.393
						c0-1.408-1.146-2.553-2.553-2.553h-3.12c-1.407,0-2.553,1.145-2.553,2.553v4.471c-4.974,5.974-13.66,18.334-18.583,36.297
						l-6.663-16.61l1.738-6.603c0.055-0.208,0.041-0.428-0.039-0.627l-4.221-10.524c-0.377-0.939-1.096-1.675-2.026-2.073
						c-0.931-0.397-1.96-0.409-2.898-0.032l-6.604,2.649c-0.939,0.377-1.675,1.097-2.072,2.027s-0.409,1.959-0.032,2.898
						l4.221,10.524c0.079,0.2,0.222,0.368,0.405,0.48l5.82,3.57l10.039,25.025c-4.802,29.964,7.24,46.128,20.915,57.594v5.146
						c0,1.408,1.146,2.553,2.553,2.553h3.12c1.407,0,2.553-1.145,2.553-2.553v-5.146c13.752-11.53,25.852-27.811,20.833-58.099
						l9.684-24.986l5.778-3.639c0.182-0.114,0.321-0.285,0.399-0.485l4.099-10.573C107.472,14.731,106.501,12.534,104.555,11.779z
						 M83.116,48.741l-1.735,4.476c-0.856-4.089-1.929-7.924-3.15-11.486c-0.195-0.568-0.392-1.134-0.594-1.688
						c-0.171-0.469-0.346-0.929-0.521-1.389c-0.114-0.298-0.228-0.595-0.344-0.889c-0.215-0.547-0.431-1.088-0.651-1.62
						c-0.018-0.044-0.037-0.087-0.055-0.13c-3.251-7.822-7.047-14.067-10.274-18.588c0.079-0.245,0.133-0.502,0.133-0.773v-3.546
						C71.015,19.694,78.856,31.905,83.116,48.741z M81.157,72.186h-0.532l0.575-1.485C81.192,71.201,81.178,71.696,81.157,72.186z
						 M79.85,74.186h1.19c-0.645,8.347-3.051,15.037-6.413,20.595h-2.76L79.85,74.186z M70.258,98.933l0.834-2.153h2.256
						c-0.3,0.443-0.598,0.889-0.91,1.318c-0.087,0.119-0.18,0.236-0.268,0.355c-0.319,0.43-0.645,0.851-0.974,1.267
						c-0.213,0.268-0.428,0.536-0.649,0.804c-0.173,0.21-0.35,0.414-0.526,0.62c-1.497,1.754-3.172,3.488-5.047,5.234
						c-0.44-0.359-0.993-0.583-1.603-0.583h-3.12c-0.61,0-1.164,0.224-1.603,0.583c-1.917-1.784-3.625-3.558-5.148-5.352
						c-0.125-0.148-0.253-0.294-0.377-0.444c-0.243-0.293-0.478-0.587-0.712-0.881c-0.273-0.344-0.542-0.694-0.808-1.048
						c-0.138-0.184-0.281-0.366-0.416-0.55c-0.313-0.43-0.613-0.876-0.915-1.321h2.522l0.925,2.307
						c0.306,0.763,0.89,1.36,1.646,1.683c0.388,0.166,0.798,0.249,1.207,0.249c0.388,0,0.775-0.074,1.146-0.223
						c0.763-0.306,1.36-0.89,1.683-1.646c0.323-0.755,0.333-1.591,0.026-2.353l-0.007-0.018h5.084
						c-0.27,0.747-0.248,1.554,0.073,2.283c0.332,0.751,0.937,1.329,1.702,1.626c0.36,0.14,0.736,0.209,1.112,0.209
						c0.422,0,0.843-0.088,1.24-0.264C69.384,100.304,69.961,99.699,70.258,98.933z M42.427,70.933l0.503,1.253h-0.469
						C42.443,71.774,42.436,71.353,42.427,70.933z M43.732,74.186l8.262,20.595h-2.999c-3.361-5.557-5.764-12.249-6.409-20.595
						H43.732z M65.272,94.78h-6.654l-8.261-20.595h22.897L65.272,94.78z M74.029,72.186H49.555l-1.883-4.693h28.176L74.029,72.186z
						 M76.624,65.492H46.87l-3.352-8.358c0.05-0.294,0.089-0.58,0.143-0.878c0.8-4.457,1.88-8.615,3.133-12.468h2.95
						c0.553,0,1-0.448,1-1s-0.447-1-1-1h-2.26c3.483-9.921,8.073-17.646,11.711-22.819c0.323,0.148,0.679,0.236,1.057,0.236h3.12
						c0.378,0,0.734-0.088,1.057-0.236c3.639,5.173,8.229,12.898,11.712,22.818H65.91c-0.553,0-1,0.448-1,1s0.447,1,1,1h10.92
						c1.254,3.853,2.333,8.011,3.134,12.468c0.026,0.147,0.046,0.287,0.071,0.433L76.624,65.492z M59.7,5.393
						c0-0.305,0.248-0.553,0.553-0.553h3.12c0.305,0,0.553,0.248,0.553,0.553v11.26c0,0.305-0.248,0.553-0.553,0.553h-3.12
						c-0.305,0-0.553-0.248-0.553-0.553V5.393z M57.7,13.108v3.545c0,0.271,0.054,0.526,0.132,0.771
						c-5.376,7.532-12.343,19.842-15.693,36.271l-1.765-4.4C44.6,32.174,52.555,19.768,57.7,13.108z M28.073,30.31l-5.82-3.57
						l-4.098-10.217c-0.178-0.443-0.172-0.929,0.016-1.368s0.535-0.778,0.978-0.956l6.604-2.649
						c0.444-0.178,0.931-0.173,1.368,0.015c0.438,0.188,0.778,0.535,0.956,0.978l4.098,10.217l-1.738,6.603
						c-0.055,0.208-0.041,0.428,0.039,0.627l27.099,67.554c0.106,0.266,0.104,0.559-0.01,0.822
						c-0.112,0.264-0.321,0.468-0.588,0.575c-0.268,0.108-0.56,0.104-0.823-0.009c-0.264-0.113-0.468-0.322-0.575-0.588
						L28.478,30.791C28.398,30.591,28.256,30.422,28.073,30.31z M38.278,60.592l2.205,5.496c-0.006,0.112-0.008,0.221-0.014,0.333
						c-0.001,0.008-0.005,0.015-0.005,0.023c-0.004,0.085-0.002,0.167-0.006,0.252c-0.1,2.213-0.091,4.328,0.017,6.351
						c0.003,0.064,0.002,0.131,0.006,0.195c0,0.008,0.005,0.014,0.005,0.021c0.947,16.674,8.594,27.113,17.223,34.992
						c-0.001,0.031-0.009,0.06-0.009,0.091v3.483C45.539,101.244,35.16,86.501,38.278,60.592z M63.925,119.607
						c0,0.305-0.248,0.553-0.553,0.553h-3.12c-0.305,0-0.553-0.248-0.553-0.553v-11.26c0-0.305,0.248-0.553,0.553-0.553h3.12
						c0.305,0,0.553,0.248,0.553,0.553V119.607z M65.925,111.829v-3.482c0-0.031-0.008-0.061-0.009-0.092
						c8.625-7.877,16.269-18.312,17.219-34.977c0.001-0.012,0.008-0.023,0.009-0.036c0.008-0.136,0.005-0.281,0.012-0.418
						c0.041-0.828,0.066-1.671,0.074-2.53c0.002-0.18,0.008-0.355,0.008-0.536c0-0.923-0.026-1.869-0.066-2.828
						c-0.007-0.164-0.003-0.322-0.011-0.486c-0.001-0.019-0.011-0.035-0.013-0.054c-0.01-0.213-0.017-0.422-0.029-0.636l2.172-5.604
						C88.58,86.333,78.155,101.183,65.925,111.829z M104.853,15.957l-3.979,10.264l-5.778,3.639
						c-0.182,0.114-0.321,0.285-0.399,0.485L68.393,98.21c-0.104,0.268-0.306,0.479-0.568,0.595
						c-0.263,0.116-0.554,0.122-0.822,0.019c-0.553-0.214-0.828-0.838-0.613-1.391l26.304-67.867c0.077-0.2,0.089-0.42,0.031-0.627
						l-1.816-6.582l3.979-10.265c0.172-0.445,0.508-0.796,0.944-0.989c0.437-0.192,0.92-0.205,1.367-0.031l6.635,2.571
						C104.751,14,105.208,15.038,104.853,15.957z"/>
				</g>
			</g>
		</g>
	</g>
</g>
</svg>
