<?xml version="1.0" encoding="utf-8"?>
<!-- Generator: Adobe Illustrator 22.0.1, SVG Export Plug-In . SVG Version: 6.00 Build 0)  -->
<svg version="1.1" id="Layer_1" xmlns="http://www.w3.org/2000/svg" xmlns:xlink="http://www.w3.org/1999/xlink" x="0px" y="0px"
	 viewBox="0 0 128 128" style="enable-background:new 0 0 128 128;" xml:space="preserve">
<style type="text/css">
	.st0{fill:#3A2C60;}
	.st1{fill:#E6E7E8;}
	.st2{fill:#FA759E;}
	.st3{fill:#FFFFFF;}
	.st4{fill:#6DC9F7;}
	.st5{fill:#FFD7E5;}
	.st6{fill:#0089EF;}
	.st7{fill:#D4FBFF;}
	.st8{fill:#F5F6F9;}
	.st9{fill:#D0D2D3;}
</style>
<g>
	<g>
		<path class="st1" d="M111.716,85.031c-0.958-13.886-5.957-23.45-10.366-31.888c-2.77-5.3-5.386-10.305-6.771-15.841
			c-1.451-5.806,0.181-12.12,2.104-16.883c0.297-0.738,0.617-1.473,0.953-2.202c0.013-0.028,0.026-0.058,0.04-0.086
			c0.341-0.735,0.7-1.464,1.076-2.181c0.559-1.063,0.524-2.311-0.097-3.339c-0.62-1.027-1.707-1.639-2.907-1.639H69.183
			c-1.2,0-2.287,0.613-2.907,1.639c-0.62,1.027-0.657,2.275-0.097,3.339c0.371,0.706,0.726,1.427,1.065,2.157
			c0.019,0.041,0.038,0.084,0.058,0.126c0.331,0.718,0.647,1.445,0.942,2.177c1.924,4.765,3.56,11.085,2.107,16.894
			c-1.384,5.536-4.001,10.542-6.77,15.842c-4.398,8.414-9.378,17.949-10.356,31.772H23.299c-0.808,0-1.593,0.335-2.151,0.92
			c-0.562,0.588-0.852,1.357-0.816,2.165c0.531,11.782,5.769,22.329,13.715,27.698v3.322c0,1.818,1.478,3.297,3.296,3.297h16.498
			c1.818,0,3.296-1.478,3.296-3.296v-3.323c0.559-0.378,1.102-0.788,1.634-1.216c1.112,2.026,2.23,3.642,3.195,4.868
			c1.485,1.885,3.715,2.967,6.12,2.967h28.756c2.404,0,4.634-1.082,6.119-2.967C106.78,114.502,112.996,103.594,111.716,85.031z"/>
		<path class="st1" d="M42.527,59.213c1.215,0.827,2.837,0.869,4.136,0.105c1.243-0.731,1.908-2.018,1.779-3.444
			c-0.053-0.59-0.577-1.018-1.164-0.972c-0.589,0.053-1.025,0.575-0.972,1.164c0.073,0.805-0.426,1.225-0.73,1.404
			c-0.586,0.344-1.308,0.333-1.844-0.03c-1.005-0.684-1.784-2.405-1.736-3.836c0.061-1.741,0.575-2.848,1.717-3.703
			c1.447-1.082,3.342-1.438,5.2-0.982c1.933,0.476,3.516,1.743,4.343,3.476c2.468,5.165-0.881,8.623-4.425,12.284
			c-1.886,1.948-3.835,3.962-4.797,6.24c-1.212,2.872-1.347,6.447-0.401,10.626c0.113,0.498,0.555,0.836,1.045,0.836
			c0.079,0,0.158-0.008,0.238-0.027c0.578-0.13,0.94-0.705,0.809-1.282c-0.845-3.733-0.75-6.869,0.284-9.32
			c0.806-1.908,2.533-3.693,4.362-5.582c3.717-3.84,7.93-8.191,4.82-14.701c-1.106-2.314-3.207-4.003-5.765-4.633
			c-2.484-0.613-5.033-0.121-6.996,1.347c-1.674,1.253-2.493,2.952-2.576,5.347C39.79,55.408,40.688,57.964,42.527,59.213z"/>
		<path class="st1" d="M33.71,73.365c1.183,0.916,2.3,1.781,2.883,2.748c0.753,1.251,1.048,2.971,0.877,5.11
			c-0.047,0.591,0.394,1.107,0.984,1.154c0.028,0.002,0.058,0.003,0.086,0.003c0.554,0,1.023-0.426,1.068-0.987
			c0.206-2.595-0.19-4.744-1.179-6.386c-0.788-1.311-2.119-2.341-3.406-3.337c-2.699-2.091-4.278-3.557-3.432-6.263
			c0.295-0.944,1.012-1.707,1.967-2.094c0.913-0.37,1.904-0.329,2.715,0.114c0.61,0.334,0.922,0.823,1.077,1.691
			c0.119,0.667-0.136,1.583-0.548,1.959c-0.174,0.158-0.423,0.159-0.597,0.087c-0.25-0.102-0.261-0.299-0.264-0.364
			c-0.031-0.591-0.564-1.047-1.128-1.014c-0.592,0.031-1.045,0.536-1.015,1.127c0.053,0.997,0.663,1.854,1.593,2.235
			c0.973,0.4,2.093,0.207,2.856-0.488c1.081-0.987,1.428-2.72,1.212-3.921c-0.268-1.502-0.975-2.547-2.161-3.195
			c-1.378-0.751-3.033-0.83-4.546-0.219c-1.553,0.628-2.722,1.883-3.209,3.442C28.192,69.091,31.252,71.461,33.71,73.365z"/>
	</g>
	<g>
		<path class="st3" d="M106.357,79.744c-1.535-22.256-13.441-32.886-17.106-47.543c-2.057-8.225,1.741-17.313,4.264-22.113
			c0.814-1.549-0.305-3.407-2.055-3.407H64.894c-1.75,0-2.87,1.857-2.055,3.407c2.523,4.8,6.321,13.887,4.264,22.113
			c-3.665,14.657-15.571,25.286-17.106,47.543c-0.021,0.302-0.023,0.585-0.04,0.884h13.642c1.074,0,1.944,0.892,1.896,1.965
			c-0.466,10.352-4.596,19.381-10.68,24.838c1.293,2.564,2.624,4.521,3.707,5.896c1.274,1.617,3.218,2.558,5.277,2.558h28.756
			c2.059,0,4.003-0.94,5.277-2.558C101.388,108.81,107.624,98.118,106.357,79.744z"/>
		<path class="st7" d="M109.574,79.744c-1.535-22.256-13.441-32.886-17.106-47.543c-2.057-8.225,1.741-17.313,4.264-22.113
			c0.814-1.549-0.305-3.407-2.055-3.407H68.111c-1.75,0-2.87,1.857-2.055,3.407c2.523,4.8,6.321,13.887,4.264,22.113
			c-3.665,14.657-15.571,25.286-17.106,47.543c-0.021,0.302-0.023,0.585-0.04,0.884h10.426c1.074,0,1.944,0.892,1.896,1.965
			c-0.408,9.057-3.619,17.104-8.49,22.631c1.587,3.677,3.359,6.357,4.734,8.103c1.274,1.617,3.218,2.558,5.277,2.558h28.756
			c2.059,0,4.003-0.94,5.277-2.558C104.605,108.81,110.841,98.118,109.574,79.744z"/>
		<path class="st2" d="M84.098,80.197l2.29,0.783c0.109,0.037,0.51,0.166,0.659,0.124c2.782-0.776,4.847-2.563,5.379-4.425
			l-1.923-0.705c-0.195-0.072-0.422-0.094-0.603,0.008c-0.023,0.013-0.048,0.023-0.075,0.03l-2.119,0.53
			c-0.026,0.007-0.053,0.01-0.079,0.01c-0.146,0-0.278-0.099-0.315-0.246c-0.044-0.174,0.062-0.351,0.237-0.394l2.119-0.53
			c0.012-0.003,0.023-0.005,0.035-0.007c0.214-0.029,0.409-0.133,0.543-0.301l1.285-1.605c-1.419-1.318-4.111-1.777-6.893-1.002
			c-0.537,0.15-1.547,0.798-1.616,0.896l-1.186,1.684c-0.063,0.09-0.164,0.138-0.266,0.138c-0.065,0-0.13-0.019-0.187-0.059
			c-0.147-0.103-0.182-0.306-0.078-0.453l1.186-1.684c0.015-0.021,0.032-0.04,0.051-0.057c0.171-0.149,0.317-0.328,0.348-0.552
			c0.068-0.494,0.106-0.99,0.106-1.478c-0.002-2.888-1.242-5.357-2.996-6.369l-1.286,1.684c-0.13,0.171-0.187,0.385-0.162,0.598
			c0.002,0.013,0.002,0.026,0.002,0.039l-0.02,2.275c-0.002,0.179-0.147,0.322-0.325,0.322c-0.001,0-0.002,0-0.003,0
			c-0.179-0.002-0.324-0.149-0.322-0.328l0.02-2.275c0-0.007,0-0.015,0.001-0.022c0.017-0.218-0.028-0.436-0.161-0.61l-1.287-1.682
			c-1.753,1.014-2.991,3.484-2.989,6.372c0,0.78,0.494,2.364,0.575,2.455l1.559,1.771c0.118,0.135,0.105,0.34-0.029,0.459
			c-0.062,0.054-0.138,0.081-0.215,0.081c-0.09,0-0.18-0.037-0.244-0.11l-1.559-1.771c-0.018-0.02-0.032-0.041-0.044-0.064
			c-0.108-0.207-0.249-0.399-0.465-0.489c-0.47-0.197-0.951-0.367-1.434-0.501c-2.783-0.773-5.455-0.378-6.846,0.844l1.303,1.529
			c0.143,0.168,0.351,0.244,0.568,0.281c0.024,0.004,0.048,0.011,0.071,0.021l1.97,0.839c0.165,0.07,0.242,0.261,0.172,0.427
			c-0.053,0.124-0.173,0.198-0.299,0.198c-0.043,0-0.086-0.008-0.127-0.026l-1.97-0.839c-0.089-0.038-2.525,0.589-2.525,0.589
			c0.561,1.764,2.647,3.481,5.43,4.253c0.163,0.045,0.604-0.089,0.723-0.121l1.967-0.533c0.173-0.046,0.352,0.055,0.399,0.229
			c0.047,0.173-0.055,0.352-0.229,0.399l-1.967,0.533c-0.029,0.008-0.057,0.011-0.085,0.011c-0.088,0-0.632,0.302-0.816,0.514
			c-1.893,2.18-2.573,4.861-1.908,6.78l2.08-0.424c0.201-0.041,0.402-0.142,0.502-0.322c0.012-0.022,0.028-0.044,0.047-0.063
			l1.556-1.622c0.124-0.129,0.33-0.134,0.46-0.009c0.13,0.124,0.134,0.33,0.01,0.46l-1.631,1.881
			c-0.064,0.066-0.336,2.432-0.336,2.432c1.994,0.39,4.552-0.659,6.446-2.839c0.476-0.549,1.1-1.969,1.101-2.091l0.024-2.496
			c0.002-0.179,0.154-0.332,0.328-0.322c0.18,0.002,0.324,0.149,0.322,0.328l-0.024,2.495c-0.001,0.12,0.636,1.572,1.124,2.134
			c1.896,2.178,4.471,3.211,6.486,2.8c0,0-0.354-2.655-0.418-2.74l-1.075-1.433c-0.108-0.144-0.079-0.348,0.065-0.455
			c0.143-0.108,0.347-0.079,0.455,0.065l1.075,1.433c0.058,0.077,2.625,0.756,2.625,0.756c0.685-1.939,0.018-4.632-1.878-6.81
			c-0.089-0.103-0.418-0.21-0.501-0.21c-0.035,0-0.07-0.006-0.105-0.018l-2.29-0.783c-0.17-0.058-0.261-0.243-0.203-0.413
			C83.744,80.23,83.929,80.139,84.098,80.197z M83.409,78.41c-0.225,0-0.428-0.084-0.587-0.218l-3.611,0.929l2.079,2.796
			c0.436,0.069,0.77,0.444,0.771,0.899c0,0.126-0.025,0.246-0.072,0.356c-0.022,0.172-0.11,0.335-0.26,0.447
			c-0.119,0.088-0.258,0.131-0.395,0.131c-0.039,0-0.075-0.02-0.114-0.026c-0.025,0.002-0.048,0.007-0.073,0.007
			c-0.505,0-0.915-0.409-0.915-0.914c0-0.03,0.006-0.058,0.009-0.088l-2.145-2.884l-2.073,2.859
			c0.005,0.038,0.012,0.075,0.012,0.115c0,0.505-0.409,0.915-0.914,0.915c-0.505,0-0.915-0.409-0.915-0.914
			c0-0.447,0.321-0.818,0.745-0.898l2.023-2.79l-3.386-0.837c-0.132,0.074-0.283,0.121-0.445,0.121
			c-0.505,0-0.915-0.409-0.915-0.914c0-0.505,0.409-0.915,0.914-0.915c0.323,0,0.606,0.168,0.768,0.421l3.522,0.871l0.027-3.5
			c-0.151-0.163-0.246-0.38-0.246-0.62c0-0.505,0.409-0.915,0.914-0.915c0.505,0,0.915,0.409,0.915,0.914
			c0,0.246-0.098,0.468-0.256,0.632l-0.027,3.477l4.023-1.035c0.164-0.155,0.383-0.251,0.626-0.251c0.505,0,0.915,0.409,0.915,0.914
			C84.323,78.001,83.914,78.41,83.409,78.41z"/>
		<path class="st4" d="M64.957,14.662h26.44c0.708-1.756,1.456-3.314,2.118-4.573c0.814-1.549-0.305-3.407-2.055-3.407H64.894
			c-1.75,0-2.87,1.857-2.055,3.407C63.501,11.348,64.248,12.907,64.957,14.662z"/>
		<path class="st7" d="M19.011,80.628h44.588c1.074,0,1.944,0.892,1.896,1.965c-0.54,11.997-5.995,22.228-13.716,27.168v3.9
			c0,1.228-0.996,2.224-2.224,2.224H33.056c-1.228,0-2.224-0.996-2.224-2.224v-3.9c-7.722-4.94-13.176-15.171-13.716-27.168
			C17.067,81.52,17.937,80.628,19.011,80.628z"/>
		<path class="st4" d="M64.898,87.952c0.303-1.739,0.513-3.525,0.596-5.36c0.048-1.073-0.822-1.965-1.896-1.965H19.011
			c-1.074,0-1.944,0.892-1.895,1.965c0.083,1.834,0.293,3.621,0.596,5.36H64.898z"/>
		<g>
			<path class="st0" d="M107.355,79.675c-0.957-13.871-5.951-23.428-10.357-31.859c-2.772-5.304-5.391-10.313-6.777-15.858
				c-1.458-5.831,0.185-12.171,2.114-16.947c0.295-0.73,0.611-1.457,0.943-2.177c0.016-0.035,0.033-0.072,0.049-0.107
				c0.341-0.734,0.698-1.46,1.073-2.173c0.548-1.041,0.512-2.263-0.096-3.268c-0.606-1.004-1.67-1.604-2.845-1.604H64.895
				c-1.175,0-2.238,0.6-2.845,1.604c-0.607,1.005-0.644,2.227-0.096,3.268c0.372,0.707,0.728,1.43,1.067,2.162
				c0.018,0.039,0.036,0.079,0.054,0.118c0.331,0.718,0.647,1.445,0.943,2.177c1.93,4.776,3.572,11.116,2.114,16.947
				c-1.387,5.544-4.005,10.554-6.777,15.858c-4.401,8.421-9.388,17.966-10.353,31.811H19.011c-0.789,0-1.554,0.327-2.099,0.897
				c-0.549,0.573-0.831,1.324-0.796,2.113c0.53,11.775,5.77,22.313,13.716,27.663v3.36c0,1.778,1.446,3.224,3.224,3.224h16.498
				c1.778,0,3.225-1.446,3.225-3.224V110.3c0.598-0.403,1.175-0.844,1.741-1.303c1.119,2.05,2.245,3.715,3.217,4.949
				c1.471,1.868,3.681,2.939,6.063,2.939h28.756c2.382,0,4.592-1.071,6.063-2.939C102.43,109.105,108.633,98.215,107.355,79.675z
				 M63.762,8.32c0.245-0.406,0.658-0.638,1.133-0.638h26.564c0.475,0,0.888,0.232,1.133,0.638c0.062,0.102,0.109,0.208,0.141,0.316
				c0.097,0.325,0.063,0.671-0.104,0.988c-0.009,0.016-0.016,0.033-0.025,0.05c-0.561,1.07-1.187,2.366-1.802,3.818
				c-0.024,0.057-0.052,0.113-0.076,0.171h-25.1c-0.024-0.058-0.052-0.114-0.076-0.172c-0.277-0.655-0.557-1.286-0.832-1.87
				c-0.003-0.005-0.005-0.011-0.008-0.016c-0.341-0.722-0.674-1.386-0.987-1.981C63.502,9.202,63.516,8.727,63.762,8.32z
				 M51.239,108.918c-0.287,0.184-0.461,0.501-0.461,0.842v3.9c0,0.675-0.55,1.224-1.225,1.224H33.056
				c-0.675,0-1.224-0.549-1.224-1.224v-3.9c0-0.341-0.174-0.659-0.461-0.842c-6.187-3.958-10.686-11.306-12.461-19.966h3.162
				c0.553,0,1-0.448,1-1s-0.447-1-1-1h-3.519c-0.221-1.441-0.371-2.911-0.439-4.404c-0.011-0.238,0.075-0.466,0.243-0.641
				c0.172-0.18,0.404-0.279,0.653-0.279h44.588c0.249,0,0.481,0.1,0.654,0.28c0.167,0.175,0.253,0.402,0.242,0.64
				c-0.067,1.494-0.218,2.964-0.439,4.405h-24.77c-0.553,0-1,0.448-1,1s0.447,1,1,1H63.7
				C61.924,97.613,57.426,104.961,51.239,108.918z M97.047,112.708c-1.09,1.383-2.728,2.176-4.492,2.176H63.799
				c-1.765,0-3.402-0.793-4.491-2.176c-0.981-1.245-2.126-2.944-3.253-5.067c6.084-5.789,9.985-14.939,10.438-25.004
				c0.036-0.789-0.246-1.539-0.794-2.112c-0.546-0.571-1.312-0.898-2.101-0.898H51.01c0.958-13.349,5.613-22.264,10.118-30.885
				c2.828-5.412,5.5-10.524,6.943-16.299c1.442-5.768,0.126-11.905-1.663-16.782h23.536c-1.789,4.877-3.106,11.014-1.663,16.782
				c1.443,5.775,4.115,10.887,6.943,16.299c4.526,8.661,9.207,17.617,10.135,31.07C106.592,97.683,100.68,108.093,97.047,112.708z"
				/>
			<path class="st0" d="M34.402,86.952H26.54c-0.553,0-1,0.448-1,1s0.447,1,1,1h7.862c0.553,0,1-0.448,1-1
				S34.955,86.952,34.402,86.952z"/>
			<path class="st0" d="M38.278,53.794c1.194,0.811,2.787,0.851,4.062,0.102c1.217-0.717,1.868-1.979,1.741-3.375
				c-0.05-0.55-0.538-0.945-1.086-0.906c-0.551,0.05-0.956,0.536-0.906,1.086c0.076,0.844-0.445,1.284-0.764,1.471
				c-0.609,0.359-1.364,0.347-1.922-0.032c-1.024-0.697-1.816-2.446-1.768-3.9c0.062-1.763,0.583-2.887,1.745-3.757
				c1.465-1.095,3.383-1.457,5.261-0.995c1.954,0.481,3.555,1.762,4.392,3.514c2.489,5.21-0.876,8.686-4.438,12.366
				c-1.882,1.943-3.826,3.952-4.783,6.218c-1.204,2.857-1.338,6.417-0.396,10.582c0.105,0.464,0.518,0.779,0.975,0.779
				c0.073,0,0.147-0.008,0.222-0.024c0.538-0.122,0.876-0.657,0.755-1.196c-0.848-3.749-0.75-6.899,0.288-9.363
				c0.812-1.921,2.543-3.71,4.377-5.604c3.7-3.823,7.895-8.155,4.807-14.62c-1.097-2.294-3.181-3.969-5.718-4.594
				c-2.461-0.608-4.989-0.12-6.938,1.335c-1.655,1.239-2.464,2.92-2.545,5.291C35.574,50.029,36.461,52.557,38.278,53.794z"/>
			<path class="st0" d="M29.466,67.948c1.188,0.92,2.311,1.789,2.9,2.768c0.761,1.264,1.059,2.998,0.887,5.152
				c-0.044,0.551,0.367,1.033,0.918,1.077c0.026,0.002,0.054,0.003,0.08,0.003c0.517,0,0.954-0.397,0.996-0.92
				c0.205-2.579-0.188-4.713-1.168-6.343c-0.782-1.299-2.107-2.325-3.389-3.317c-2.725-2.11-4.317-3.59-3.457-6.342
				c0.302-0.965,1.035-1.745,2.011-2.14c0.935-0.377,1.946-0.334,2.774,0.118c0.632,0.345,0.955,0.85,1.114,1.741
				c0.124,0.689-0.143,1.635-0.57,2.025c-0.197,0.18-0.48,0.18-0.673,0.101c-0.194-0.08-0.298-0.223-0.309-0.427
				c-0.029-0.551-0.508-0.977-1.052-0.946c-0.552,0.029-0.975,0.5-0.946,1.051c0.053,0.984,0.631,1.795,1.547,2.171
				c0.949,0.388,2.039,0.203,2.78-0.474c1.063-0.969,1.403-2.674,1.191-3.856c-0.265-1.479-0.96-2.507-2.125-3.144
				c-1.357-0.74-2.99-0.819-4.482-0.216c-1.533,0.62-2.688,1.858-3.169,3.396C23.987,63.704,27.025,66.057,29.466,67.948z"/>
		</g>
	</g>
</g>
</svg>
