<?xml version="1.0" encoding="utf-8"?>
<!-- Generator: Adobe Illustrator 22.0.1, SVG Export Plug-In . SVG Version: 6.00 Build 0)  -->
<svg version="1.1" id="Layer_1" xmlns="http://www.w3.org/2000/svg" xmlns:xlink="http://www.w3.org/1999/xlink" x="0px" y="0px"
	 viewBox="0 0 128 128" style="enable-background:new 0 0 128 128;" xml:space="preserve">
<style type="text/css">
	.st0{fill:#3A2C60;}
	.st1{fill:#E6E7E8;}
	.st2{fill:#FA759E;}
	.st3{fill:#FFFFFF;}
	.st4{fill:#6DC9F7;}
	.st5{fill:#FFD7E5;}
	.st6{fill:#0089EF;}
	.st7{fill:#D4FBFF;}
	.st8{fill:#F5F6F9;}
	.st9{fill:#D0D2D3;}
</style>
<g>
	<g>
		<path class="st1" d="M126.527,58.344l-11.495-3.867l6.32-10.351c-6.644-5.268-18.348-6.42-29.983-2.185
			c-1.607,0.585-3.144,1.253-4.613,1.986c0.076-1.053,0.117-2.122,0.117-3.205c0-12.381-5.086-22.986-12.308-27.427L67,22.774
			l-7.565-9.479c-7.222,4.442-12.308,15.046-12.308,27.427c0,1.083,0.041,2.152,0.117,3.205c-1.469-0.733-3.006-1.401-4.613-1.986
			c-11.635-4.235-23.339-3.083-29.983,2.185l6.32,10.351L7.473,58.344c1.704,8.306,9.929,16.712,21.564,20.947
			c1.386,0.504,2.772,0.93,4.151,1.283c-0.35,0.367-0.695,0.742-1.036,1.125c-8.231,9.249-11.482,20.552-9.039,28.671l11.953-2.052
			l-0.65,12.11c8.348,1.483,19.197-3.057,27.428-12.307c2.023-2.274,3.745-4.672,5.156-7.116c1.411,2.444,3.133,4.843,5.156,7.116
			c8.231,9.249,19.08,13.79,27.428,12.307l-0.65-12.11l11.953,2.052c2.443-8.12-0.808-19.422-9.039-28.671
			c-0.341-0.383-0.687-0.758-1.036-1.125c1.379-0.354,2.766-0.779,4.151-1.283C116.598,75.056,124.823,66.65,126.527,58.344z"/>
		<path class="st3" d="M121.527,53.344l-11.495-3.867l6.32-10.351c-6.644-5.268-18.348-6.42-29.983-2.185
			c-1.607,0.585-3.144,1.253-4.613,1.986c0.076-1.053,0.117-2.122,0.117-3.205c0-12.381-5.086-22.986-12.308-27.427L62,17.774
			l-7.565-9.479c-7.222,4.442-12.308,15.046-12.308,27.427c0,1.083,0.041,2.152,0.117,3.205c-1.469-0.733-3.006-1.401-4.613-1.986
			c-11.635-4.235-23.339-3.083-29.983,2.185l6.32,10.351L2.473,53.344c1.704,8.306,9.929,16.712,21.564,20.947
			c1.386,0.504,2.772,0.93,4.151,1.283c-0.35,0.367-0.695,0.742-1.036,1.125c-8.231,9.249-11.482,20.552-9.039,28.671l11.953-2.052
			l-0.65,12.11c8.348,1.483,19.197-3.057,27.428-12.307c2.023-2.274,3.745-4.672,5.156-7.116c1.411,2.444,3.133,4.843,5.156,7.116
			c8.231,9.249,19.08,13.79,27.428,12.307l-0.65-12.11l11.953,2.052c2.443-8.12-0.808-19.422-9.039-28.671
			c-0.341-0.383-0.687-0.758-1.036-1.125c1.379-0.354,2.766-0.779,4.151-1.283C111.598,70.056,119.823,61.65,121.527,53.344z"/>
		<path class="st5" d="M121.527,56.344l-11.495-3.867l6.32-10.351c-6.644-5.268-18.348-6.42-29.983-2.185
			c-1.607,0.585-3.144,1.253-4.613,1.986c0.076-1.053,0.117-2.122,0.117-3.205c0-12.381-5.086-22.986-12.308-27.427L62,20.774
			l-7.565-9.479c-7.222,4.442-12.308,15.046-12.308,27.427c0,1.083,0.041,2.152,0.117,3.205c-1.469-0.733-3.006-1.401-4.613-1.986
			c-11.635-4.235-23.339-3.083-29.983,2.185l6.32,10.351L2.473,56.344c1.704,8.306,9.929,16.712,21.564,20.947
			c1.386,0.504,2.772,0.93,4.151,1.283c-0.35,0.367-0.695,0.742-1.036,1.125c-8.231,9.249-11.482,20.552-9.039,28.671l11.953-2.052
			l-0.65,12.11c8.348,1.483,19.197-3.057,27.428-12.307c2.023-2.274,3.745-4.672,5.156-7.116c1.411,2.444,3.133,4.843,5.156,7.116
			c8.231,9.249,19.08,13.79,27.428,12.307l-0.65-12.11l11.953,2.052c2.443-8.12-0.808-19.422-9.039-28.671
			c-0.341-0.383-0.687-0.758-1.036-1.125c1.379-0.354,2.766-0.779,4.151-1.283C111.598,73.056,119.823,64.65,121.527,56.344z"/>
		<g>
			<path class="st0" d="M55.694,102.904c-1.527,1.67-3.178,3.213-4.906,4.587c-0.433,0.344-0.504,0.973-0.161,1.405
				c0.197,0.249,0.489,0.378,0.783,0.378c0.218,0,0.438-0.071,0.622-0.217c1.811-1.439,3.539-3.055,5.137-4.803
				c0.373-0.408,0.345-1.04-0.063-1.413C56.698,102.467,56.066,102.497,55.694,102.904z"/>
			<path class="st0" d="M121.846,52.396l-10.308-3.468l5.667-9.281c0.263-0.431,0.164-0.991-0.232-1.305
				c-7.144-5.664-19.291-6.583-30.946-2.341c-1.065,0.388-2.13,0.823-3.183,1.3c0.019-0.53,0.028-1.058,0.028-1.579
				c0-12.403-5.018-23.503-12.784-28.28c-0.43-0.263-0.989-0.166-1.306,0.229L62,16.17l-6.784-8.5
				c-0.315-0.395-0.875-0.492-1.306-0.228c-7.766,4.776-12.784,15.876-12.784,28.279c0,0.52,0.01,1.047,0.028,1.579
				c-1.052-0.477-2.117-0.912-3.182-1.299c-11.655-4.243-23.803-3.324-30.946,2.341c-0.396,0.314-0.496,0.874-0.232,1.305
				l5.667,9.281L2.154,52.396c-0.479,0.161-0.762,0.654-0.661,1.148C3.325,62.476,12.04,70.988,23.695,75.23
				c0.866,0.315,1.752,0.607,2.649,0.872c-8.203,9.254-11.81,20.847-9.189,29.556c0.146,0.483,0.626,0.784,1.127,0.697L29,104.516
				l-0.583,10.859c-0.027,0.504,0.326,0.95,0.824,1.038c5.829,1.038,12.896-0.758,19.39-4.921c0.465-0.298,0.601-0.917,0.302-1.381
				c-0.298-0.465-0.916-0.603-1.381-0.302c-5.749,3.684-11.923,5.395-17.088,4.766l0.582-10.852l5.173-5.812
				c0.367-0.413,0.33-1.045-0.082-1.412c-0.414-0.367-1.045-0.33-1.412,0.082l-5.173,5.813l-10.712,1.839
				c-1.953-7.981,1.537-18.414,9.061-26.867c0.273-0.307,0.551-0.605,0.83-0.902l7.564-2.063c0.533-0.146,0.847-0.695,0.702-1.228
				c-0.146-0.533-0.696-0.849-1.228-0.702l-7.576,2.066c-1.293-0.34-2.575-0.735-3.813-1.185
				C13.745,69.48,5.722,61.954,3.653,54.002l10.302-3.466l7.312,2.661c0.113,0.042,0.228,0.061,0.342,0.061
				c0.408,0,0.792-0.252,0.94-0.659c0.188-0.519-0.079-1.093-0.598-1.281l-7.31-2.661L8.975,39.38
				c6.696-4.762,17.679-5.37,28.315-1.499c1.451,0.528,2.903,1.154,4.32,1.853l5.668,5.663c0.195,0.195,0.451,0.292,0.707,0.292
				s0.512-0.098,0.708-0.293c0.39-0.391,0.39-1.024,0-1.415l-5.468-5.463c-0.061-0.943-0.097-1.883-0.097-2.797
				c0-11.316,4.328-21.43,11.093-26.094L61,18.124v7.78c0,0.552,0.448,1,1,1s1-0.448,1-1v-7.781l6.78-8.496
				c6.765,4.665,11.093,14.777,11.093,26.094c0,0.908-0.035,1.836-0.095,2.765l-5.48,5.476c-0.391,0.391-0.391,1.023,0,1.415
				c0.195,0.195,0.452,0.293,0.708,0.293s0.512-0.098,0.707-0.292l5.622-5.617c1.435-0.71,2.906-1.345,4.377-1.88
				c10.634-3.87,21.618-3.262,28.314,1.5l-5.665,9.278l-7.31,2.661c-0.519,0.188-0.787,0.763-0.598,1.281
				c0.148,0.406,0.532,0.659,0.94,0.659c0.114,0,0.229-0.02,0.342-0.061l7.312-2.661l10.302,3.466
				c-2.069,7.952-10.092,15.478-20.726,19.349c-1.237,0.45-2.52,0.845-3.814,1.185l-7.576-2.067
				c-0.532-0.145-1.083,0.169-1.228,0.702c-0.145,0.533,0.169,1.083,0.702,1.228l7.566,2.064c0.279,0.296,0.557,0.594,0.829,0.901
				c7.523,8.454,11.014,18.886,9.061,26.867l-10.712-1.839l-5.173-5.813c-0.367-0.412-0.998-0.449-1.412-0.082
				c-0.412,0.367-0.449,1-0.082,1.412l5.173,5.812l0.582,10.854c-8.151,1.012-18.11-3.664-25.633-12.119
				c-1.876-2.107-3.521-4.373-4.903-6.733v-7.845c0-0.552-0.448-1-1-1s-1,0.448-1,1v7.842c-0.827,1.413-1.752,2.805-2.765,4.138
				c-0.334,0.439-0.249,1.067,0.191,1.401c0.441,0.334,1.068,0.248,1.401-0.191c0.771-1.016,1.499-2.063,2.172-3.129
				c1.288,2.041,2.767,4.001,4.409,5.847c7.22,8.114,16.649,12.923,24.91,12.922c1.173,0,2.324-0.097,3.44-0.295
				c0.498-0.088,0.851-0.534,0.824-1.038L95,104.516l10.717,1.839c0.499,0.091,0.981-0.214,1.127-0.697
				c2.621-8.709-0.986-20.301-9.189-29.556c0.897-0.265,1.783-0.557,2.649-0.872c11.655-4.243,20.37-12.754,22.202-21.686
				C122.608,53.05,122.325,52.557,121.846,52.396z"/>
		</g>
	</g>
	<path class="st2" d="M84.303,57.982c-0.513-1.915-2.482-3.052-4.397-2.538c-1.578,0.423-2.61,1.835-2.644,3.39L66.454,61.73
		c-0.678-1.35-1.931-2.362-3.454-2.671V46.89c1.493-0.435,2.59-1.798,2.59-3.431c0-1.983-1.607-3.59-3.59-3.59
		s-3.59,1.607-3.59,3.59c0,1.633,1.097,2.996,2.59,3.431v12.169c-1.523,0.309-2.776,1.32-3.454,2.671l-10.809-2.896
		c-0.034-1.554-1.066-2.967-2.644-3.39c-1.915-0.513-3.884,0.623-4.397,2.538c-0.513,1.915,0.623,3.884,2.538,4.397
		c1.578,0.423,3.178-0.285,3.985-1.614l10.81,2.896c-0.006,0.1-0.03,0.195-0.03,0.297c0,1.27,0.488,2.415,1.268,3.297l-6.727,8.942
		c-1.454-0.549-3.15-0.12-4.132,1.185c-1.192,1.584-0.874,3.835,0.711,5.027c1.584,1.192,3.835,0.874,5.027-0.711
		c0.982-1.305,0.924-3.054-0.007-4.299l6.724-8.938c0.65,0.309,1.369,0.496,2.137,0.496s1.487-0.187,2.137-0.496l6.724,8.938
		c-0.931,1.245-0.989,2.994-0.007,4.299c1.192,1.584,3.443,1.903,5.027,0.711c1.584-1.192,1.902-3.443,0.711-5.027
		c-0.982-1.305-2.678-1.734-4.132-1.185l-6.727-8.942C66.512,66.374,67,65.228,67,63.958c0-0.102-0.024-0.197-0.03-0.297
		l10.81-2.896c0.807,1.329,2.407,2.036,3.985,1.614C83.68,61.866,84.816,59.898,84.303,57.982z"/>
</g>
</svg>
