<?xml version="1.0" encoding="utf-8"?>
<!-- Generator: Adobe Illustrator 22.0.1, SVG Export Plug-In . SVG Version: 6.00 Build 0)  -->
<svg version="1.1" id="Layer_1" xmlns="http://www.w3.org/2000/svg" xmlns:xlink="http://www.w3.org/1999/xlink" x="0px" y="0px"
	 viewBox="0 0 128 128" style="enable-background:new 0 0 128 128;" xml:space="preserve">
<style type="text/css">
	.st0{fill:#3A2C60;}
	.st1{fill:#E6E7E8;}
	.st2{fill:#FA759E;}
	.st3{fill:#FFFFFF;}
	.st4{fill:#6DC9F7;}
	.st5{fill:#FFD7E5;}
	.st6{fill:#0089EF;}
	.st7{fill:#D4FBFF;}
	.st8{fill:#F5F6F9;}
	.st9{fill:#D0D2D3;}
</style>
<g>
	<g>
		<path class="st1" d="M126.617,90.236l-4.411-1.484l2.425-3.972c-1.098-0.87-2.568-1.427-4.229-1.673
			C121.888,77.993,122.7,72.593,122.7,67c0-31.844-25.815-57.658-57.658-57.658S7.383,35.156,7.383,67
			c0,31.844,25.815,57.658,57.658,57.658c15.55,0,29.652-6.167,40.023-16.175c0.224,0.287,0.44,0.577,0.688,0.856
			c3.159,3.549,7.322,5.292,10.526,4.723l-0.25-4.647l4.587,0.787c0.937-3.116-0.31-7.453-3.469-11.003
			c-0.131-0.147-0.263-0.291-0.398-0.432c0.529-0.136,1.061-0.299,1.593-0.492C122.807,96.649,125.963,93.424,126.617,90.236z"/>
		<circle class="st3" cx="60.041" cy="62" r="57.658"/>
		<circle class="st2" cx="60.041" cy="65.894" r="57.658"/>
		<path class="st5" d="M122.617,86.236l-4.411-1.484l2.425-3.972c-2.55-2.022-7.041-2.464-11.506-0.839
			c-0.617,0.224-1.207,0.481-1.77,0.762c0.029-0.404,0.045-0.814,0.045-1.23c0-4.751-1.952-8.821-4.723-10.525l-2.903,3.638
			l-2.903-3.638c-2.772,1.704-4.723,5.774-4.723,10.525c0,0.416,0.016,0.826,0.045,1.23c-0.564-0.281-1.154-0.538-1.77-0.762
			c-4.465-1.625-8.956-1.183-11.506,0.839l2.425,3.972l-4.411,1.484c0.654,3.187,3.81,6.413,8.275,8.038
			c0.532,0.194,1.064,0.357,1.593,0.492c-0.134,0.141-0.267,0.285-0.398,0.432c-3.159,3.549-4.406,7.887-3.469,11.003l4.587-0.787
			l-0.25,4.647c3.204,0.569,7.367-1.173,10.526-4.723c0.776-0.873,1.437-1.793,1.979-2.731c0.542,0.938,1.202,1.858,1.979,2.731
			c3.159,3.549,7.322,5.292,10.526,4.723l-0.25-4.647l4.587,0.787c0.937-3.116-0.31-7.453-3.469-11.003
			c-0.131-0.147-0.263-0.291-0.398-0.432c0.529-0.136,1.061-0.299,1.593-0.492C118.807,92.649,121.963,89.424,122.617,86.236z"/>
	</g>
	<g>
		<g>
			<g>
				<path class="st6" d="M38.009,80.892H21.817v4.08h-5.74v4.76H9.486c1.023,1.862,2.154,3.655,3.37,5.384h19.088L38.009,80.892z"/>
			</g>
			<g>
				<path class="st7" d="M44.055,47.442h-0.018v0.008C44.043,47.448,44.048,47.445,44.055,47.442z"/>
				<path class="st7" d="M76.93,86.236l4.411-1.484l-2.425-3.972c1.778-1.41,4.506-2.029,7.505-1.738l-2.499-18.258h-0.094v-3.861
					h-3.03V50.15c-2.751-0.151-5.973-0.543-9.426-1.404c0,0-1.803,2.623-8.077,2.839c0.05,0.002,0.094,0.006,0.144,0.008h-0.288
					c0.05-0.001,0.094-0.006,0.144-0.008c-6.273-0.216-8.077-2.839-8.077-2.839c-4.218,1.052-8.099,1.408-11.182,1.473v6.704h-3.03
					v3.861h-0.094l-2.68,19.585l-8.611,20.195h53.62c0.609-1.823,1.661-3.682,3.159-5.365c0.131-0.147,0.263-0.291,0.398-0.432
					c-0.529-0.136-1.061-0.299-1.593-0.492C80.74,92.649,77.584,89.424,76.93,86.236z"/>
			</g>
			<g>
				<path class="st4" d="M62.417,69.404L62.417,69.404c-2.199,0-3.981,1.782-3.981,3.981v10.157h7.962V73.385
					C66.398,71.187,64.616,69.404,62.417,69.404z"/>
				<rect x="60.062" y="54.091" class="st4" width="4.304" height="5.492"/>
			</g>
			<g>
				<path class="st7" d="M65.177,32.084v-4.107c-0.481,0.547-1.179,0.9-1.965,0.9c-0.726,0-1.383-0.294-1.858-0.77v3.977H65.177z"/>
				<path class="st7" d="M63.212,23.623c-1.451,0-2.627,1.176-2.627,2.627c0,1.451,1.176,2.627,2.627,2.627
					c1.451,0,2.627-1.176,2.627-2.627C65.839,24.799,64.663,23.623,63.212,23.623z"/>
				<path class="st6" d="M76.04,41.732c1.263,3.962,7.063,6.336,13.434,8.12c0,0-8.135,1.379-18.102-1.107
					c0,0-1.826,2.668-8.221,2.847h0.288c-6.395-0.179-8.221-2.847-8.221-2.847c-9.967,2.485-18.102,1.107-18.102,1.107
					c6.371-1.785,12.171-4.158,13.434-8.12L76.04,41.732z"/>
				<path class="st6" d="M65.821,32.084c0.717,0.921,8.946,10.863,19.988,10.863c0,0-7,1.186-15.577-0.952
					c0,0-1.571,2.296-7.074,2.45h0.248c-5.503-0.154-7.074-2.45-7.074-2.45c-8.577,2.139-15.577,0.952-15.577,0.952
					c14.452-2.575,19.271-9.942,19.987-10.863H65.821z"/>
			</g>
		</g>
	</g>
	<g>
		<path class="st0" d="M122.936,85.289l-3.224-1.084l1.772-2.903c0.264-0.431,0.164-0.991-0.232-1.305
			c-1.279-1.014-2.956-1.634-4.818-1.892c1.466-5.121,2.266-10.52,2.266-16.105c0-32.344-26.313-58.658-58.658-58.658
			S1.383,29.656,1.383,62c0,10.169,2.604,19.74,7.176,28.087c0.016,0.043,0.028,0.088,0.05,0.129
			c0.358,0.652,0.757,1.306,1.152,1.959c0.053,0.089,0.104,0.18,0.157,0.268c0.362,0.592,0.745,1.179,1.134,1.768
			c0.183,0.277,0.364,0.556,0.551,0.83c0.148,0.217,0.281,0.436,0.433,0.652c0.043,0.06,0.093,0.113,0.146,0.162
			c10.637,14.992,28.117,24.804,47.858,24.804c13.084,0,25.167-4.322,34.932-11.594c0.892-0.572,1.755-1.253,2.567-2.029
			c0.86-0.718,1.699-1.458,2.517-2.223c0.303,0.405,0.609,0.809,0.949,1.191c2.887,3.244,6.682,5.165,10.029,5.165
			c0.483,0,0.958-0.04,1.418-0.122c0.497-0.088,0.851-0.534,0.824-1.038l-0.183-3.396l3.353,0.575
			c0.486,0.085,0.98-0.213,1.127-0.697c0.998-3.318-0.198-7.635-3.056-11.216c0.056-0.02,0.111-0.04,0.166-0.06
			c4.669-1.699,8.168-5.144,8.913-8.776C123.698,85.942,123.415,85.45,122.936,85.289z M60.041,5.342
			c31.241,0,56.658,25.417,56.658,56.658c0,5.545-0.813,10.902-2.305,15.971c-1.812,0.017-3.727,0.345-5.611,1.031
			c-0.129,0.047-0.258,0.096-0.387,0.146c-0.087-4.838-2.107-9.151-5.196-11.051c-0.43-0.265-0.991-0.165-1.305,0.228l-2.122,2.658
			l-2.122-2.658c-0.313-0.394-0.874-0.492-1.305-0.228c-3.09,1.9-5.11,6.213-5.197,11.051c-0.128-0.05-0.257-0.099-0.386-0.146
			c-1.151-0.419-2.315-0.708-3.459-0.876l-2.391-17.478c-0.014-0.094-0.043-0.184-0.085-0.268v-3.458c0-0.552-0.447-1-1-1h-2.03
			v-4.718c4.59,0.163,7.637-0.332,7.843-0.367c0.462-0.078,0.807-0.466,0.832-0.933c0.024-0.467-0.278-0.89-0.729-1.016
			c-3.54-0.992-7.987-2.457-10.639-4.641c4.022,0.151,6.693-0.286,6.871-0.316c0.513-0.087,0.873-0.552,0.829-1.07
			c-0.043-0.518-0.477-0.916-0.996-0.916c-10.928,0-19.116-10.372-19.198-10.477c-0.113-0.145-0.267-0.239-0.434-0.304v-2.839
			c0.414-0.589,0.662-1.303,0.662-2.077c0-2-1.627-3.627-3.627-3.627s-3.627,1.627-3.627,3.627c0,0.834,0.294,1.593,0.769,2.206
			c0,0,0,0,0,0v2.718c-0.155,0.066-0.296,0.16-0.401,0.296l-0.15,0.2c-3.787,5.104-10.613,8.759-19.224,10.293
			c-0.479,0.085-0.826,0.502-0.824,0.989c0.002,0.486,0.354,0.9,0.833,0.981c0.179,0.031,2.862,0.47,6.9,0.315
			c-2.652,2.185-7.099,3.65-10.64,4.642c-0.451,0.126-0.754,0.548-0.729,1.016c0.025,0.467,0.37,0.855,0.832,0.933
			c0.178,0.03,2.494,0.403,6.086,0.398v4.686h-2.03c-0.553,0-1,0.448-1,1v3.438c-0.042,0.089-0.07,0.186-0.085,0.288l-2.634,19.244
			H21.817c-0.553,0-1,0.448-1,1v3.08h-4.74c-0.553,0-1,0.448-1,1v3.761h-4.974C5.82,80.765,3.383,71.663,3.383,62
			C3.383,30.759,28.8,5.342,60.041,5.342z M82.529,99.564h-7.936l-0.415-2.766h9.77C83.375,97.7,82.896,98.629,82.529,99.564z
			 M31.135,99.564l1.179-2.766H50.27l-0.415,2.766H31.135z M11.238,90.733h3.23c0.028,0.002,0.052,0.016,0.08,0.016h18.171
			l-0.147,0.344c-0.001,0.002-0.002,0.004-0.002,0.006l-1.287,3.018H13.401C12.641,93.017,11.921,91.888,11.238,90.733z
			 M84.235,49.225c-3.141,0.032-7.482-0.219-12.244-1.363c-0.713-0.581-2.236-2.126-2.706-3.85c0.575-0.322,1.002-0.645,1.282-0.907
			c1.977,0.464,3.854,0.754,5.582,0.932C77.838,46.328,80.909,47.977,84.235,49.225z M82.828,59.784H71.648v-1.861h9.15h2.03V59.784
			z M62.712,33.084h1.024c0.539,1.539,2.188,5.763,5.004,8.911c-0.823,0.56-2.483,1.338-5.459,1.445
			c-3.072-0.111-4.739-0.935-5.53-1.493C60.542,38.804,62.176,34.615,62.712,33.084z M62.983,45.43
			c0.057,0.01,0.115,0.015,0.175,0.015h0.248c0.06,0,0.118-0.005,0.175-0.015c1.569-0.073,2.83-0.315,3.842-0.629
			c0.538,1.695,1.712,3.091,2.546,3.919c-0.874,0.667-2.852,1.732-6.673,1.869c-3.709-0.134-5.688-1.155-6.6-1.823
			c0.83-0.816,2.027-2.217,2.58-3.925C60.265,45.134,61.482,45.359,62.983,45.43z M70.603,41.053
			c-2.009-2.08-3.447-4.906-4.285-6.869c1.903,2.054,5.797,5.738,10.981,7.946C75.277,41.969,72.999,41.642,70.603,41.053z
			 M63.212,27.876c-0.897,0-1.627-0.729-1.627-1.626s0.729-1.627,1.627-1.627s1.627,0.73,1.627,1.627S64.11,27.876,63.212,27.876z
			 M63.212,29.876c0.336,0,0.656-0.061,0.965-0.147v1.354h-1.823v-1.321c0,0,0,0,0,0C62.63,29.83,62.915,29.876,63.212,29.876z
			 M55.817,41.084c-3.036,0.734-5.877,1.051-8.243,1.149c5.114-1.749,9.348-4.351,12.37-7.617
			C59.083,36.556,57.696,39.15,55.817,41.084z M50.444,44.033c1.719-0.178,3.586-0.467,5.552-0.928
			c0.304,0.283,0.769,0.639,1.422,0.987c-0.519,1.803-2.143,3.298-2.653,3.732c-4.828,1.179-9.227,1.44-12.408,1.4
			C45.684,47.977,48.757,46.326,50.444,44.033z M54.886,49.856c0.925,0.871,3.274,2.494,8.081,2.72
			c0.06,0.011,0.121,0.017,0.185,0.017h0.288c0.063,0,0.125-0.006,0.185-0.017c4.807-0.226,7.156-1.849,8.081-2.72
			c2.925,0.692,5.667,1.059,8.093,1.238v4.829h-9.15c-0.553,0-1,0.448-1,1v23.064c0,0.026,0.013,0.047,0.015,0.072
			c0.002,0.026-0.008,0.05-0.004,0.076l0.361,2.407H54.43l0.361-2.407c0.002-0.016-0.004-0.03-0.002-0.045
			c0.002-0.023,0.013-0.042,0.013-0.065v-3.61v-1.479V56.923c0-0.552-0.447-1-1-1h-8.766v-4.725
			C47.854,51.084,51.232,50.721,54.886,49.856z M51.607,84.542h0.501l-0.279,1.858H36.747l0.792-1.858H51.607z M51.216,90.486
			H35.005l0.889-2.085h15.635L51.216,90.486z M34.153,92.486h16.764l-0.347,2.312H33.167L34.153,92.486z M44.036,57.923h8.766v1.861
			H42.006v-1.861H44.036z M41.785,61.784h11.017v13.152v1.479v3.495l-0.395,2.632h-0.801H38.392l0.76-1.782
			c0.035-0.082,0.059-0.168,0.071-0.256L41.785,61.784z M35.608,83.973H22.817v-2.08h13.678L35.608,83.973z M21.817,85.973h12.939
			l-0.443,1.039c0,0,0,0,0,0.001l-0.741,1.737H17.076v-2.777H21.817z M54.13,84.542h16.188l2.251,15.021H51.878L54.13,84.542z
			 M73.879,94.798l-0.347-2.312h6.459c1.115,0.902,2.411,1.69,3.839,2.312H73.879z M73.233,90.486l-0.312-2.085h3.707
			c0.348,0.72,0.802,1.418,1.343,2.085H73.233z M76.612,85.289c-0.468,0.157-0.742,0.63-0.662,1.112H72.62l-0.279-1.858h6.487
			L76.612,85.289z M78.063,81.301l0.758,1.241h-6.778l-0.395-2.632V61.784h11.402l2.214,16.183
			c-2.724-0.046-5.213,0.636-6.969,2.029C77.899,80.311,77.8,80.87,78.063,81.301z M14.842,96.117H30.43l-1.729,4.055
			c-0.132,0.309-0.1,0.663,0.086,0.943c0.185,0.28,0.498,0.449,0.834,0.449h52.31c-0.39,1.738-0.407,3.434,0.042,4.926
			c0.146,0.484,0.635,0.782,1.127,0.697l3.353-0.575l-0.184,3.396c-0.026,0.504,0.327,0.95,0.824,1.038
			c0.349,0.062,0.707,0.093,1.069,0.108c-8.293,4.765-17.89,7.505-28.122,7.505C41.601,118.658,25.195,109.799,14.842,96.117z
			 M114,93.335c-0.411,0.149-0.838,0.274-1.267,0.391l-2.732-0.745c-0.528-0.144-1.082,0.167-1.228,0.702
			c-0.146,0.533,0.169,1.083,0.702,1.228l2.733,0.745c0.064,0.069,0.129,0.137,0.191,0.207c2.537,2.851,3.851,6.423,3.447,9.192
			l-3.304-0.567l-1.842-2.07c-0.367-0.413-1.001-0.448-1.412-0.082c-0.412,0.367-0.449,1-0.082,1.412l1.841,2.069l0.18,3.348
			c-2.782,0.084-6.191-1.641-8.729-4.491c-0.66-0.742-1.232-1.537-1.726-2.36v-2.825c0-0.552-0.447-1-1-1s-1,0.448-1,1v2.824
			c-0.495,0.826-1.068,1.622-1.726,2.36c-2.538,2.851-5.979,4.556-8.729,4.491l0.18-3.348l1.841-2.069
			c0.367-0.413,0.33-1.045-0.082-1.412c-0.411-0.366-1.045-0.331-1.412,0.082l-1.842,2.07l-3.304,0.567
			c-0.403-2.77,0.91-6.341,3.447-9.191c0.063-0.071,0.128-0.139,0.192-0.208l2.731-0.745c0.533-0.146,0.848-0.695,0.702-1.228
			c-0.146-0.534-0.699-0.845-1.228-0.702l-2.732,0.745c-0.429-0.117-0.856-0.242-1.266-0.391c-3.586-1.306-6.438-3.826-7.396-6.454
			l3.177-1.069l2.603,0.947c0.112,0.041,0.229,0.061,0.342,0.061c0.408,0,0.792-0.252,0.939-0.659
			c0.189-0.519-0.078-1.093-0.598-1.282l-2.603-0.947l-1.746-2.861c2.424-1.397,6.229-1.495,9.813-0.19
			c0.512,0.187,1.02,0.411,1.519,0.654l2.09,2.088c0.195,0.195,0.451,0.292,0.707,0.292s0.512-0.098,0.707-0.293
			c0.391-0.391,0.391-1.024,0-1.415l-1.926-1.924c-0.014-0.268-0.029-0.536-0.029-0.81c0-3.816,1.394-7.357,3.536-9.157l2.091,2.62
			v2.771c0,0.552,0.447,1,1,1s1-0.448,1-1v-2.771l2.091-2.62c2.143,1.8,3.535,5.341,3.535,9.157c0,0.27-0.016,0.534-0.029,0.798
			l-1.93,1.928c-0.391,0.391-0.391,1.023,0,1.415c0.195,0.195,0.451,0.293,0.707,0.293s0.512-0.098,0.707-0.292l2.074-2.072
			c0.505-0.246,1.021-0.474,1.538-0.662c3.586-1.305,7.391-1.207,9.814,0.19l-1.747,2.861l-2.603,0.947
			c-0.52,0.189-0.787,0.763-0.598,1.282c0.147,0.406,0.531,0.659,0.939,0.659c0.113,0,0.229-0.02,0.342-0.061l2.603-0.947
			l3.178,1.069C120.437,89.51,117.585,92.03,114,93.335z"/>
		<path class="st2" d="M108.332,88.016c-0.197-0.735-0.952-1.171-1.687-0.974c-0.353,0.095-0.635,0.32-0.813,0.609l-4.644,1.244
			c-0.122-0.122-0.264-0.221-0.414-0.308v-5.202c0.232-0.247,0.377-0.577,0.377-0.943c0-0.761-0.617-1.378-1.378-1.378
			c-0.761,0-1.378,0.617-1.378,1.378c0,0.366,0.145,0.696,0.378,0.943v5.201c-0.15,0.087-0.292,0.187-0.414,0.309l-4.644-1.244
			c-0.178-0.289-0.46-0.514-0.813-0.609c-0.735-0.197-1.49,0.239-1.687,0.974c-0.197,0.735,0.239,1.49,0.974,1.687
			c0.353,0.095,0.71,0.04,1.008-0.121l4.653,1.247c0.024,0.089,0.047,0.18,0.083,0.263l-2.895,3.847
			c-0.332,0.058-0.646,0.23-0.865,0.521c-0.457,0.608-0.335,1.472,0.273,1.929c0.608,0.457,1.472,0.335,1.929-0.273
			c0.219-0.291,0.297-0.64,0.261-0.975l2.901-3.856c0.078,0.009,0.155,0.024,0.236,0.024s0.158-0.014,0.236-0.024l2.901,3.857
			c-0.036,0.335,0.042,0.684,0.261,0.975c0.457,0.608,1.321,0.73,1.929,0.273c0.608-0.457,0.73-1.321,0.273-1.929
			c-0.219-0.291-0.533-0.463-0.865-0.521l-2.894-3.847c0.036-0.084,0.059-0.174,0.083-0.263l4.653-1.247
			c0.299,0.161,0.655,0.216,1.008,0.121C108.093,89.507,108.529,88.751,108.332,88.016z"/>
	</g>
</g>
</svg>
