<?xml version="1.0" encoding="utf-8"?>
<!-- Generator: Adobe Illustrator 22.0.1, SVG Export Plug-In . SVG Version: 6.00 Build 0)  -->
<svg version="1.1" id="Layer_1" xmlns="http://www.w3.org/2000/svg" xmlns:xlink="http://www.w3.org/1999/xlink" x="0px" y="0px"
	 viewBox="0 0 128 128" style="enable-background:new 0 0 128 128;" xml:space="preserve">
<style type="text/css">
	.st0{fill:#3A2C60;}
	.st1{fill:#E6E7E8;}
	.st2{fill:#FA759E;}
	.st3{fill:#FFFFFF;}
	.st4{fill:#6DC9F7;}
	.st5{fill:#FFD7E5;}
	.st6{fill:#0089EF;}
	.st7{fill:#D4FBFF;}
	.st8{fill:#F5F6F9;}
	.st9{fill:#D0D2D3;}
</style>
<g>
	<g>
		<path class="st1" d="M98.262,72.894c-0.044,1.27,0.568,3.002,1.822,3.856c0.86,0.585,2.007,0.615,2.923,0.075
			c0.883-0.52,1.355-1.435,1.264-2.449c-0.047-0.521-0.505-0.898-1.03-0.859c-0.522,0.047-0.906,0.508-0.859,1.03
			c0.032,0.35-0.165,0.544-0.336,0.644c-0.219,0.128-0.583,0.201-0.895-0.009c-0.566-0.385-1.021-1.403-0.992-2.222
			c0.035-1.021,0.331-1.667,0.989-2.16c0.861-0.643,1.99-0.854,3.099-0.582c1.156,0.285,2.102,1.041,2.596,2.075
			c1.496,3.13-0.484,5.175-2.776,7.543c-1.22,1.26-2.482,2.564-3.115,4.064c-0.795,1.884-0.885,4.22-0.27,6.943
			c0.1,0.441,0.491,0.739,0.924,0.739c0.069,0,0.139-0.007,0.21-0.023c0.511-0.116,0.832-0.623,0.716-1.134
			c-0.526-2.329-0.47-4.276,0.168-5.788c0.495-1.172,1.58-2.294,2.73-3.482c2.312-2.388,5.188-5.359,3.125-9.68
			c-0.739-1.548-2.144-2.678-3.854-3.099c-1.663-0.411-3.371-0.081-4.689,0.904C98.889,70.12,98.317,71.303,98.262,72.894z"/>
		<path class="st1" d="M20.725,90.62c0.488,1.183,0.517,2.712,0.088,4.543c-0.119,0.51,0.197,1.021,0.707,1.14
			c0.073,0.017,0.146,0.025,0.218,0.025c0.43,0,0.82-0.294,0.922-0.732c0.522-2.225,0.461-4.143-0.181-5.7
			c-0.512-1.242-1.531-2.312-2.516-3.346c-2.065-2.168-3.24-3.645-2.151-5.877c0.38-0.778,1.101-1.345,1.979-1.554
			c0.84-0.197,1.69-0.034,2.332,0.456c0.484,0.368,0.689,0.832,0.709,1.602c0.016,0.593-0.326,1.351-0.731,1.622
			c-0.169,0.113-0.384,0.08-0.521-0.003c-0.2-0.12-0.183-0.288-0.178-0.344c0.051-0.521-0.33-0.985-0.851-1.036
			c-0.517-0.049-0.985,0.33-1.036,0.851c-0.086,0.875,0.332,1.701,1.09,2.156c0.793,0.476,1.795,0.457,2.55-0.047
			c1.07-0.715,1.601-2.176,1.573-3.249c-0.035-1.341-0.511-2.342-1.457-3.062c-1.097-0.834-2.526-1.121-3.92-0.791
			c-1.432,0.341-2.615,1.276-3.245,2.567c-1.745,3.578,0.599,6.039,2.483,8.017C19.493,88.809,20.347,89.706,20.725,90.62z"/>
		<path class="st1" d="M112.889,118.284H101.01v-1.334c0.394,0.067,0.796,0.11,1.208,0.11c3.957,0,7.176-3.219,7.176-7.176
			c0-3.957-3.219-7.176-7.176-7.176c-0.413,0-0.814,0.043-1.208,0.11v-2.251c0-6.994-2.536-13.405-6.732-18.37
			c-0.004-0.008-0.004-0.016-0.009-0.024c-0.039-0.063-0.096-0.106-0.147-0.156c-3.141-3.656-7.185-6.513-11.79-8.21
			c-0.011-0.005-0.018-0.014-0.03-0.018c-0.871-0.319-1.756-0.589-2.65-0.821c-0.045-0.012-0.09-0.022-0.135-0.033
			c-0.386-0.098-0.773-0.188-1.163-0.269c-0.1-0.021-0.201-0.04-0.302-0.06c-0.338-0.067-0.677-0.128-1.018-0.182
			c-0.13-0.021-0.259-0.041-0.389-0.06c-0.091-0.013-0.181-0.03-0.272-0.042c3.872-1.865,7.126-4.813,9.373-8.447
			c8.683-4.462,14.362-11.83,14.362-20.171c0-7.771-4.929-14.698-12.624-19.217l3-2.903c0.61,0.43,1.302,0.736,2.06,0.864
			c0.285,0.049,0.571,0.072,0.854,0.072c1.042,0,2.057-0.322,2.924-0.938c1.103-0.783,1.834-1.95,2.059-3.284
			c0.465-2.753-1.396-5.372-4.15-5.837c-2.753-0.466-5.372,1.396-5.837,4.15c-0.215,1.269,0.068,2.54,0.77,3.611l-3.421,3.31
			c-1.15-0.591-2.351-1.132-3.601-1.617l2.925-7.805c0.28,0.048,0.563,0.081,0.848,0.081c0.463,0,0.929-0.064,1.387-0.194
			c1.302-0.369,2.382-1.222,3.042-2.403c0.66-1.181,0.82-2.548,0.452-3.85c-0.369-1.302-1.222-2.382-2.403-3.042
			c-1.181-0.659-2.548-0.818-3.85-0.452c-1.302,0.369-2.382,1.222-3.042,2.403c-0.66,1.181-0.821,2.548-0.452,3.85
			c0.351,1.239,1.151,2.266,2.245,2.932l-2.487,6.637c-2.925-3.768-8.037-6.272-13.87-6.272c-6.446,0-12.011,3.058-14.714,7.501
			c-11.606,3.902-19.668,12.462-19.668,22.402c0,8.674,6.141,16.296,15.416,20.691c2.23,3.395,5.354,6.152,9.039,7.927
			c-0.091,0.012-0.182,0.029-0.272,0.042c-0.13,0.019-0.26,0.039-0.389,0.06c-0.341,0.055-0.68,0.116-1.018,0.182
			c-0.101,0.02-0.201,0.039-0.302,0.06c-0.39,0.081-0.777,0.171-1.163,0.269c-0.045,0.011-0.09,0.021-0.135,0.033
			c-0.894,0.231-1.779,0.502-2.65,0.821c-0.011,0.004-0.019,0.014-0.03,0.018c-4.603,1.697-8.647,4.553-11.787,8.207
			c-0.052,0.051-0.109,0.094-0.149,0.159c-0.005,0.008-0.004,0.016-0.009,0.024c-3.904,4.62-6.371,10.491-6.695,16.92
			c-0.342,1.636-0.299,2.83-0.28,3.12v16.049h-8.199c-1.543,0-2.798,1.255-2.798,2.798v2.111c0,1.543,1.255,2.798,2.798,2.798
			h88.953c1.543,0,2.799-1.255,2.799-2.798v-2.111C115.687,119.54,114.432,118.284,112.889,118.284z M102.929,107.714
			c0.916,0.301,1.583,1.154,1.583,2.169c0,1.017-0.67,1.872-1.589,2.171c0.157-0.704,0.243-1.43,0.243-2.171
			C103.167,109.14,103.08,108.415,102.929,107.714z"/>
	</g>
	<g>
		<g>
			<g>
				<g>
					<g>
						<path class="st3" d="M83.688,45.302c-0.593,0-1.141,0.243-1.616,0.64c0.228,1.379,0.355,2.78,0.355,4.194l0,0
							c0,1.223-0.108,2.42-0.304,3.587c0.464,0.372,0.994,0.601,1.566,0.601c1.765,0,3.195-2.02,3.195-4.511
							C86.883,47.322,85.453,45.302,83.688,45.302z"/>
						<path class="st3" d="M39.547,50.136L39.547,50.136c0-1.413,0.127-2.814,0.355-4.194c-0.476-0.397-1.024-0.64-1.616-0.64
							c-1.765,0-3.195,2.02-3.195,4.511c0,2.491,1.43,4.511,3.195,4.511c0.572,0,1.101-0.229,1.566-0.601
							C39.655,52.556,39.547,51.359,39.547,50.136z"/>
					</g>
					<g>
						<path class="st3" d="M69.292,71.124c-0.971,5.105-8.306,15.09-8.306,15.09s-7.335-9.985-8.306-15.09
							c-14.05,1.263-25.063,13.064-25.063,27.442v18.666h49.737c-3.165-1.451-5.367-4.639-5.367-8.349
							c0-4.363,3.043-8.009,7.121-8.949v-0.757c0-0.755,0.612-1.368,1.367-1.368h8.547c0.755,0,1.368,0.612,1.368,1.368v0.757
							c1.494,0.345,2.847,1.055,3.964,2.028v-3.397C94.355,84.188,83.342,72.387,69.292,71.124z"/>
					</g>
					<path class="st7" d="M68.325,74.05c-2.268,5.261-7.338,12.164-7.338,12.164s-5.07-6.902-7.338-12.164
						c-14.509,0.794-26.03,12.808-26.03,27.516v15.666h49.737c-3.165-1.451-5.367-4.639-5.367-8.349
						c0-4.363,3.043-8.009,7.121-8.949v-0.757c0-0.755,0.612-1.368,1.367-1.368h8.547c0.755,0,1.368,0.612,1.368,1.368v0.757
						c1.494,0.345,2.847,1.055,3.964,2.028v-0.397C94.355,86.859,82.834,74.845,68.325,74.05z"/>
					<g>
						<path class="st4" d="M76.271,72.678c-2.207-0.808-4.547-1.341-6.977-1.559c-0.967,5.104-8.307,15.095-8.307,15.095
							s-7.34-9.991-8.307-15.095c-2.43,0.218-4.77,0.751-6.977,1.559c1.468,3.531,3.514,7.48,5.649,11.267h2.184
							c3.826,0,6.928,3.102,6.928,6.928c0,1.886-0.756,3.594-1.979,4.844c1.85,2.873,3.108,4.709,3.108,4.709l9.973,0.149
							l-5.975-8.302C65.591,92.274,73.801,78.616,76.271,72.678z"/>
					</g>
					<path class="st3" d="M60.987,71.576L60.987,71.576c-2.987,0-5.83-0.612-8.413-1.716v0.255c0,4.647,8.413,16.098,8.413,16.098
						S69.4,74.762,69.4,70.116V69.86C66.817,70.964,63.974,71.576,60.987,71.576z"/>
					<path class="st3" d="M76.444,33.655c-0.367-0.439-0.772-0.835-1.194-1.211c-2.897,3.879-8.083,6.474-14.019,6.474
						c-6.066,0-11.352-2.709-14.209-6.732c-0.534,0.445-1.041,0.927-1.494,1.468c-3.865,4.622-5.983,10.455-5.983,16.481
						c0,11.841,9.599,21.44,21.44,21.44h0c11.841,0,21.44-9.599,21.44-21.44C82.427,44.111,80.309,38.277,76.444,33.655z"/>
					<g>
						<g>
							<ellipse class="st5" cx="73.214" cy="56.86" rx="1.904" ry="1.2"/>
							<ellipse class="st5" cx="48.759" cy="56.594" rx="1.904" ry="1.2"/>
						</g>
						<path class="st2" d="M60.987,63.064c-2.623,0-3.968-1.823-4.024-1.9c-0.33-0.457-0.227-1.095,0.231-1.425
							c0.454-0.327,1.088-0.228,1.419,0.223c0.045,0.059,0.836,1.061,2.374,1.061c1.527,0,2.374-1.061,2.381-1.072
							c0.34-0.45,0.979-0.54,1.43-0.198c0.45,0.34,0.538,0.981,0.198,1.43C64.938,61.26,63.542,63.064,60.987,63.064z"/>
					</g>
				</g>
			</g>
			<circle class="st2" cx="80.217" cy="7.124" r="4.116"/>
			<circle class="st2" cx="87.682" cy="15.453" r="4.116"/>
			<g>
				<polygon class="st4" points="52.664,100.499 46.482,100.499 46.482,108.758 50.796,108.758 52.664,102.104 				"/>
				<path class="st4" d="M71.988,108.884c0-3.743,2.243-6.952,5.454-8.384H56.927v1.605l1.868,6.654H64.4
					c0,2.464-0.41,6.069-2.74,8.474h15.695C74.19,115.781,71.988,112.594,71.988,108.884z"/>
			</g>
		</g>
		<g>
			<g>
				<path class="st6" d="M53.536,97.802h-0.872v4.302h4.263v-5.192C55.924,97.476,54.769,97.802,53.536,97.802z"/>
				<polygon class="st7" points="58.795,108.758 56.927,102.104 52.664,102.104 50.796,108.758 				"/>
			</g>
			<path class="st3" d="M53.536,97.802h-2.053c-2.693,0-4.875-2.183-4.875-4.875v-8.893c0-0.049,0.039-0.088,0.088-0.088h6.84
				c3.826,0,6.928,3.102,6.928,6.928v0C60.465,94.7,57.363,97.802,53.536,97.802z"/>
		</g>
		<path class="st7" d="M46.482,83.98c-20.53,2.663-19.107,16.223-19.107,16.223v8.555h13.78c0,2.464-0.41,6.069-2.74,8.474h8.067
			v-1.626c-1.239-2.224-1.453-4.892-1.453-6.849h1.453V83.98z"/>
		<path class="st2" d="M61.66,117.232c2.329-2.406,2.74-6.01,2.74-8.474H45.03c0,2.464,0.31,6.069,2.624,8.474H61.66z"/>
		<path class="st2" d="M38.416,117.232c2.329-2.406,2.74-6.01,2.74-8.474h-19.37c0,2.464,0.31,6.069,2.624,8.474H38.416z"/>
		<g>
			<path class="st2" d="M97.511,102.656c-0.743,0-1.453,0.137-2.114,0.376c0.655,0.789,1.18,1.688,1.543,2.668
				c0.186-0.033,0.375-0.057,0.571-0.057c1.79,0,3.242,1.451,3.242,3.242c0,1.79-1.451,3.242-3.242,3.242
				c-0.197,0-0.387-0.024-0.574-0.058c-0.363,0.979-0.888,1.878-1.542,2.667c0.662,0.239,1.372,0.377,2.116,0.377
				c3.44,0,6.228-2.788,6.228-6.228C103.74,105.444,100.951,102.656,97.511,102.656z"/>
			<path class="st2" d="M71.988,108.884c0-0.895,0.134-1.756,0.373-2.573l-4.955-3.282c-0.36-0.239-0.84-0.162-1.086,0.163
				l-0.55,0.725c-0.246,0.324-0.19,0.807,0.137,1.09l6.202,5.354C72.03,109.879,71.988,109.386,71.988,108.884z"/>
			<path class="st2" d="M86.732,97.81c0.108-0.256,0.168-0.538,0.168-0.834c0-1.187-0.963-2.15-2.15-2.15
				c-1.187,0-2.15,0.963-2.15,2.15c0,0.296,0.06,0.577,0.168,0.834H86.732z"/>
			<path class="st2" d="M77.355,117.232h14.789c3.165-1.451,5.367-4.639,5.367-8.349c0-4.363-3.043-8.009-7.121-8.949v-0.757
				c0-0.755-0.612-1.368-1.368-1.368h-8.547c-0.755,0-1.367,0.612-1.367,1.368v0.757c-4.078,0.941-7.121,4.586-7.121,8.949
				C71.988,112.594,74.19,115.781,77.355,117.232z"/>
		</g>
		<path class="st2" d="M107.182,123.043H18.228c-1.022,0-1.85-0.828-1.85-1.85v-2.111c0-1.022,0.828-1.85,1.85-1.85h88.953
			c1.022,0,1.85,0.828,1.85,1.85v2.111C109.032,122.215,108.203,123.043,107.182,123.043z"/>
		<path class="st2" d="M45.703,123.043h-7.156H45.703z"/>
	</g>
	<g>
		<path class="st0" d="M60.987,57.678c1.896,0,3.438-1.542,3.438-3.438V52.81c0-0.552-0.448-1-1-1s-1,0.448-1,1v1.429
			c0,0.793-0.645,1.438-1.438,1.438s-1.438-0.646-1.438-1.438V52.81c0-0.552-0.448-1-1-1s-1,0.448-1,1v1.429
			C57.548,56.136,59.091,57.678,60.987,57.678z"/>
		<path class="st0" d="M55.267,47.47c0-0.552-0.448-1-1-1s-1,0.448-1,1c0,1.553-1.264,2.817-2.817,2.817s-2.817-1.264-2.817-2.817
			c0-0.552-0.448-1-1-1s-1,0.448-1,1c0,2.656,2.161,4.817,4.817,4.817S55.267,50.126,55.267,47.47z"/>
		<path class="st0" d="M72.114,52.286c2.656,0,4.817-2.161,4.817-4.817c0-0.552-0.448-1-1-1s-1,0.448-1,1
			c0,1.553-1.264,2.817-2.817,2.817s-2.817-1.264-2.817-2.817c0-0.552-0.448-1-1-1s-1,0.448-1,1
			C67.298,50.126,69.458,52.286,72.114,52.286z"/>
		<path class="st0" d="M107.182,116.232H95.355v-0.021c0.122-0.117,0.242-0.237,0.358-0.36c0.594,0.155,1.194,0.26,1.799,0.26
			c3.985,0,7.228-3.243,7.228-7.228s-3.243-7.228-7.228-7.228c-0.593,0-1.18,0.101-1.761,0.25c-0.129-0.136-0.259-0.271-0.396-0.4
			v-2.939c0-7.004-2.537-13.422-6.738-18.392c-0.005-0.009-0.005-0.02-0.011-0.029c-0.057-0.091-0.134-0.159-0.212-0.225
			c-3.116-3.599-7.114-6.413-11.656-8.104c-0.043-0.023-0.077-0.059-0.124-0.076c-1.879-0.688-3.818-1.16-5.793-1.438
			c3.848-1.884,7.081-4.837,9.309-8.47c8.635-4.466,14.273-11.815,14.273-20.128c0-7.755-4.909-14.67-12.578-19.19l2.957-2.862
			c0.608,0.421,1.296,0.72,2.047,0.847c0.287,0.049,0.573,0.072,0.855,0.072c2.449,0,4.62-1.77,5.042-4.264
			c0.47-2.781-1.41-5.427-4.192-5.897c-2.777-0.473-5.427,1.411-5.897,4.192c-0.215,1.268,0.064,2.536,0.756,3.611l-3.404,3.294
			c-1.121-0.574-2.289-1.101-3.504-1.573l2.908-7.759c0.271,0.045,0.547,0.068,0.826,0.068c0.46,0,0.928-0.063,1.392-0.194
			c1.315-0.373,2.406-1.234,3.073-2.427c0.667-1.193,0.829-2.574,0.457-3.889c-0.769-2.714-3.603-4.295-6.316-3.529
			c-2.714,0.769-4.297,3.602-3.529,6.316c0.361,1.275,1.186,2.287,2.232,2.936l-2.462,6.569c-2.931-3.74-8.026-6.223-13.833-6.223
			c-6.446,0-12.011,3.057-14.714,7.501C34.911,23.203,26.85,31.764,26.85,41.703c0,8.645,6.101,16.244,15.325,20.646
			c2.212,3.396,5.314,6.159,8.977,7.953c-1.976,0.278-3.915,0.75-5.793,1.438c-0.047,0.017-0.081,0.053-0.124,0.076
			c-4.534,1.689-8.525,4.495-11.639,8.085c-0.086,0.069-0.168,0.145-0.23,0.244c-0.006,0.01-0.006,0.021-0.011,0.03
			c-3.906,4.622-6.372,10.497-6.698,16.93c-0.343,1.637-0.301,2.834-0.282,3.131v7.522h-4.59c-0.552,0-1,0.448-1,1
			c0,3.112,0.538,5.578,1.635,7.474h-4.192c-1.572,0-2.85,1.278-2.85,2.85v2.111c0,1.572,1.278,2.85,2.85,2.85h15.988
			c0.552,0,1-0.448,1-1s-0.448-1-1-1H18.228c-0.469,0-0.85-0.381-0.85-0.85v-2.111c0-0.469,0.381-0.85,0.85-0.85h6.182h14.006h9.238
			H61.66h15.695h14.789h15.038c0.469,0,0.85,0.381,0.85,0.85v2.111c0,0.469-0.381,0.85-0.85,0.85H50.143c-0.552,0-1,0.448-1,1
			s0.448,1,1,1h57.039c1.572,0,2.85-1.278,2.85-2.85v-2.111C110.032,117.511,108.754,116.232,107.182,116.232z M84.61,14.934
			c0.257-1.519,1.579-2.597,3.071-2.597c0.172,0,0.346,0.015,0.521,0.044c1.694,0.287,2.839,1.898,2.553,3.592
			c-0.287,1.694-1.894,2.839-3.592,2.553C85.469,18.24,84.323,16.628,84.61,14.934z M79.369,4.126
			c0.283-0.08,0.567-0.118,0.848-0.118c1.359,0,2.611,0.897,2.999,2.268c0.227,0.801,0.128,1.642-0.278,2.369
			c-0.406,0.727-1.071,1.251-1.872,1.478c-1.657,0.469-3.379-0.497-3.847-2.149C76.751,6.32,77.715,4.594,79.369,4.126z
			 M98.29,106.789c0.852,0.318,1.463,1.133,1.463,2.094c0,0.971-0.624,1.791-1.489,2.102c0.147-0.686,0.248-1.385,0.248-2.102
			C98.511,108.166,98.43,107.468,98.29,106.789z M102.739,108.884c0,2.883-2.345,5.228-5.228,5.228c-0.146,0-0.293-0.006-0.439-0.02
			c0.187-0.313,0.357-0.636,0.51-0.967c2.307-0.038,4.171-1.926,4.171-4.241c0-2.313-1.861-4.199-4.163-4.241
			c-0.151-0.333-0.319-0.656-0.505-0.969C100.111,103.42,102.739,105.859,102.739,108.884z M93.355,100.029
			c-0.616-0.347-1.27-0.64-1.964-0.858c-0.004-1.302-1.064-2.36-2.368-2.36h-1.14c-0.089-1.659-1.453-2.984-3.133-2.984
			c-1.113,0-2.088,0.584-2.648,1.459V92.66c0-4.263,2.037-8.158,5.46-10.62c3.622,4.538,5.794,10.281,5.794,16.527V100.029z
			 M85.887,96.81h-2.275c0.081-0.556,0.56-0.984,1.138-0.984S85.807,96.255,85.887,96.81z M86.241,80.5
			c-3.863,2.843-6.139,7.303-6.139,12.16v4.188c-1.125,0.181-1.989,1.149-1.993,2.323c-0.304,0.095-0.599,0.208-0.889,0.329h-5.196
			l-5.237-7.276c1.509-2.531,7.495-12.66,10.008-18.248C80.406,75.448,83.625,77.689,86.241,80.5z M71.019,108.097
			c0,0.001,0,0.001,0,0.002l-4.331-3.739l0.306-0.404l4.222,2.798C71.124,107.192,71.054,107.639,71.019,108.097z M71.849,104.773
			l-3.891-2.578c-0.797-0.529-1.867-0.356-2.435,0.392l-0.549,0.725c-0.568,0.748-0.445,1.824,0.28,2.451l5.967,5.151
			c0.42,2.038,1.451,3.891,2.945,5.319H63.666c1.151-1.936,1.734-4.438,1.734-7.474c0-0.552-0.448-1-1-1h-4.846l-1.626-5.793v-0.466
			h8.54l5.084,0.076c0.005,0,0.01,0,0.015,0c0.127,0,0.246-0.031,0.36-0.076h2.224C73.176,102.424,72.392,103.534,71.849,104.773z
			 M47.483,107.758v-6.259h4.182v0.466l-1.626,5.793H47.483z M41.155,107.758H28.619v-9.192c0-0.526,0.02-1.047,0.051-1.565
			c0.916-3.792,4.351-9.928,16.813-11.868v22.625H45.03c-0.552,0-1,0.448-1,1c0,2.925,0.485,5.269,1.453,7.116v0.358h-5.061
			c1.151-1.936,1.734-4.438,1.734-7.474C42.155,108.206,41.708,107.758,41.155,107.758z M49.133,72.709
			c0.041-0.009,0.082-0.019,0.122-0.028c0.359-0.082,0.721-0.157,1.085-0.224c0.104-0.019,0.208-0.035,0.312-0.053
			c0.322-0.056,0.645-0.109,0.971-0.153c0.099-0.013,0.2-0.021,0.299-0.033c1.174,4.114,5.038,9.999,7.068,12.916
			c-1.423-1.353-3.341-2.189-5.454-2.189h-1.588c-1.82-3.252-3.56-6.592-4.897-9.655C47.735,73.071,48.428,72.874,49.133,72.709z
			 M55.453,71.878c4.105,1.04,8.5,0.9,12.526-0.424c0.079-0.026,0.16-0.043,0.238-0.07c-0.899,3.593-4.904,9.804-7.23,13.114
			c-2.327-3.31-6.332-9.521-7.231-13.114c0.079,0.027,0.161,0.045,0.241,0.071C54.478,71.613,54.963,71.754,55.453,71.878z
			 M71.309,72.403c0.109,0.018,0.218,0.035,0.326,0.055c0.361,0.067,0.719,0.141,1.075,0.222c0.045,0.01,0.09,0.02,0.135,0.031
			c0.701,0.164,1.389,0.359,2.068,0.577c-2.284,5.026-7.477,13.912-9.423,17.2l-3.258-4.289c1.593-2.221,6.472-9.26,7.819-13.981
			c0.1,0.012,0.202,0.02,0.302,0.034C70.674,72.295,70.992,72.348,71.309,72.403z M66.497,99.499l-4.368-0.065
			c-0.421-0.625-1.279-1.907-2.394-3.631c1.08-1.355,1.73-3.066,1.73-4.929c0-1.219-0.284-2.369-0.778-3.402l4.107,5.406
			l4.766,6.621H66.497z M53.664,98.801c0.047-0.001,0.094-0.011,0.141-0.013c0.296-0.01,0.588-0.037,0.875-0.078
			c0.075-0.011,0.15-0.021,0.225-0.034c0.348-0.061,0.691-0.139,1.022-0.244v2.672h-2.263V98.801z M57.927,97.47
			c0.118-0.079,0.23-0.166,0.343-0.251c0.59,0.908,1.095,1.675,1.497,2.281h-1.84V97.47z M53.536,84.946
			c3.269,0,5.928,2.659,5.928,5.928c0,2.222-1.23,4.16-3.044,5.175c-0.212,0.119-0.431,0.224-0.655,0.315
			c-0.019,0.008-0.038,0.013-0.057,0.021c-0.198,0.078-0.4,0.144-0.605,0.201c-0.051,0.014-0.102,0.027-0.154,0.04
			c-0.18,0.044-0.363,0.079-0.547,0.107c-0.055,0.008-0.11,0.019-0.166,0.025c-0.233,0.028-0.467,0.045-0.702,0.045h-0.872h-1.181
			c-2.137,0-3.875-1.739-3.875-3.875v-7.981H53.536z M51.484,98.802h0.181v0.697h-4.182v-2.282
			C48.533,98.197,49.937,98.802,51.484,98.802z M53.422,103.104h2.747l1.307,4.654h-5.36L53.422,103.104z M83.357,51.827
			c0.007-0.086,0.014-0.172,0.02-0.258c0.03-0.474,0.051-0.951,0.051-1.433c0-0.67-0.034-1.354-0.09-2.045
			c-0.027-0.346-0.071-0.689-0.111-1.034c-0.025-0.212-0.038-0.421-0.068-0.634c1.378-0.632,2.726,1.205,2.726,3.389
			c0,2.154-1.296,3.977-2.672,3.411c0.003-0.025,0.004-0.05,0.008-0.075C83.278,52.712,83.323,52.271,83.357,51.827z M75.251,32.445
			L75.251,32.445c0.001,0.001,0.003,0.002,0.004,0.004c-0.024,0.032-0.051,0.061-0.075,0.093
			C75.204,32.509,75.227,32.477,75.251,32.445z M38.636,48.093c-0.055,0.689-0.09,1.373-0.09,2.043c0,0.482,0.021,0.959,0.051,1.433
			c0.006,0.085,0.013,0.171,0.02,0.256c0.034,0.451,0.08,0.899,0.14,1.343c0.003,0.018,0.003,0.036,0.006,0.055
			c-1.376,0.567-2.672-1.256-2.672-3.411c0-1.903,1.005-3.511,2.195-3.511c0.176,0,0.353,0.041,0.53,0.121
			c-0.03,0.213-0.043,0.423-0.068,0.635C38.708,47.403,38.663,47.746,38.636,48.093z M47.024,32.187
			c0.086,0.121,0.175,0.241,0.266,0.36c-0.089-0.119-0.185-0.235-0.27-0.357C47.021,32.189,47.022,32.188,47.024,32.187
			C47.024,32.187,47.024,32.187,47.024,32.187z M40.745,52.826c-0.036-0.271-0.078-0.542-0.103-0.812
			c-0.057-0.619-0.095-1.244-0.095-1.878c0-0.673,0.034-1.344,0.089-2.011c0.053-0.624,0.135-1.255,0.237-1.888
			c0.702-4.371,2.559-8.513,5.425-11.94c0.403-0.482,0.853-0.911,1.325-1.309c3.525,3.525,7.829,5.754,12.908,5.947
			c4.549,0.173,9.404-1.354,12.819-4.418c0.026-0.023,0.052-0.047,0.078-0.07c0.427-0.388,0.829-0.794,1.199-1.222
			c0.37,0.334,0.726,0.685,1.05,1.072c2.867,3.428,4.724,7.571,5.425,11.944c0.101,0.632,0.183,1.261,0.236,1.883
			c0.055,0.668,0.089,1.339,0.089,2.012c0,0.634-0.038,1.258-0.095,1.877c-0.025,0.27-0.067,0.541-0.103,0.812
			c-1.054,7.96-6.684,14.496-14.169,16.829c-3.938,1.217-8.211,1.217-12.149-0.001C47.428,67.32,41.798,60.785,40.745,52.826z
			 M45.182,73.974c1.239,2.854,2.805,5.931,4.482,8.972h-2.968c-0.089,0-0.168,0.031-0.251,0.051
			c-0.031,0.001-0.06-0.012-0.091-0.008c-2.63,0.341-4.909,0.863-6.894,1.512c-0.981-1.527-2.239-2.875-3.744-3.982
			C38.335,77.697,41.562,75.45,45.182,73.974z M34.413,82.039c1.232,0.889,2.276,1.962,3.114,3.177
			c-3.574,1.466-6.015,3.379-7.67,5.353C30.849,87.435,32.408,84.552,34.413,82.039z M24.854,116.232
			c-1.25-1.478-1.923-3.606-2.047-6.474h17.324c-0.142,2.759-0.878,4.975-2.156,6.474H24.854z M48.098,116.232
			c-1.25-1.478-1.923-3.606-2.047-6.474h4.745h7.999h4.58c-0.142,2.759-0.878,4.975-2.156,6.474H48.098z M77.58,116.232
			c-2.42-1.186-4.085-3.49-4.491-6.108c-0.063-0.415-0.101-0.832-0.101-1.24c0-0.365,0.029-0.732,0.08-1.098
			c0.004-0.028,0.007-0.056,0.011-0.083c0.055-0.372,0.135-0.743,0.242-1.111c0.002-0.007,0.001-0.014,0.003-0.021
			c0.812-2.784,3.056-4.98,6.011-5.661c0.454-0.105,0.775-0.509,0.775-0.975v-0.756c0-0.203,0.165-0.368,0.368-0.368h2.292h3.964
			h2.292c0.203,0,0.368,0.165,0.368,0.368v0.756c0,0.466,0.321,0.87,0.775,0.975c1.786,0.412,3.31,1.381,4.42,2.695
			c0.015,0.022,0.026,0.046,0.043,0.066c0.593,0.714,1.055,1.514,1.375,2.376c0.003,0.01,0.011,0.016,0.015,0.025
			c0.319,0.88,0.494,1.827,0.494,2.812c0,1.063-0.223,2.089-0.609,3.043c-0.104,0.258-0.225,0.508-0.354,0.754
			c-0.07,0.132-0.134,0.266-0.21,0.394c-0.196,0.326-0.414,0.641-0.656,0.94c-0.739,0.916-1.672,1.682-2.763,2.217H77.58z"/>
		<path class="st0" d="M45.703,122.043h-7.157c-0.552,0-1,0.448-1,1s0.448,1,1,1h7.157c0.552,0,1-0.448,1-1
			S46.256,122.043,45.703,122.043z"/>
		<path class="st0" d="M96.927,73.962c0.877,0.596,2.047,0.626,2.979,0.078c0.9-0.53,1.382-1.464,1.289-2.499
			c-0.05-0.55-0.53-0.943-1.086-0.906c-0.55,0.05-0.956,0.536-0.906,1.086c0.029,0.323-0.153,0.501-0.311,0.595
			c-0.22,0.13-0.566,0.179-0.839-0.008c-0.554-0.376-0.998-1.373-0.97-2.176c0.035-1.004,0.325-1.639,0.969-2.122
			c0.847-0.633,1.96-0.843,3.054-0.573c1.141,0.281,2.076,1.028,2.563,2.048c1.38,2.89-0.124,4.755-2.767,7.484
			c-1.224,1.264-2.489,2.571-3.125,4.08c-0.799,1.895-0.891,4.241-0.273,6.975c0.105,0.464,0.518,0.779,0.975,0.779
			c0.073,0,0.147-0.008,0.222-0.024c0.539-0.122,0.876-0.657,0.755-1.196c-0.524-2.317-0.469-4.254,0.165-5.756
			c0.491-1.164,1.574-2.282,2.72-3.466c2.323-2.399,5.213-5.385,3.134-9.738c-0.747-1.563-2.164-2.703-3.889-3.127
			c-1.675-0.413-3.4-0.081-4.731,0.914c-1.135,0.851-1.714,2.046-1.77,3.654C95.039,71.347,95.658,73.099,96.927,73.962z"/>
		<path class="st0" d="M17.55,87.81c0.484,1.173,0.513,2.691,0.085,4.512c-0.126,0.538,0.208,1.076,0.745,1.202
			c0.077,0.018,0.154,0.026,0.229,0.026c0.454,0,0.864-0.311,0.973-0.771c0.525-2.235,0.463-4.164-0.184-5.731
			c-0.516-1.252-1.538-2.325-2.526-3.363c-2.042-2.144-3.237-3.572-2.142-5.818c0.373-0.765,1.082-1.321,1.944-1.526
			c0.822-0.196,1.658-0.034,2.289,0.446c0.47,0.358,0.67,0.811,0.689,1.563c0.015,0.578-0.315,1.315-0.708,1.577
			c-0.15,0.101-0.342,0.07-0.466-0.004c-0.171-0.103-0.158-0.236-0.152-0.293c0.054-0.55-0.347-1.039-0.897-1.093
			c-0.546-0.056-1.039,0.348-1.093,0.897c-0.088,0.895,0.338,1.74,1.114,2.205c0.811,0.487,1.834,0.468,2.605-0.048
			c1.086-0.725,1.625-2.205,1.596-3.292c-0.035-1.357-0.519-2.372-1.478-3.102c-1.109-0.843-2.554-1.135-3.962-0.8
			c-1.447,0.344-2.643,1.29-3.279,2.595c-1.761,3.61,0.597,6.085,2.491,8.074C16.325,86.011,17.176,86.905,17.55,87.81z"/>
	</g>
</g>
</svg>
