<?xml version="1.0" encoding="utf-8"?>
<!-- Generator: Adobe Illustrator 22.0.1, SVG Export Plug-In . SVG Version: 6.00 Build 0)  -->
<svg version="1.1" id="Layer_1" xmlns="http://www.w3.org/2000/svg" xmlns:xlink="http://www.w3.org/1999/xlink" x="0px" y="0px"
	 viewBox="0 0 128 128" style="enable-background:new 0 0 128 128;" xml:space="preserve">
<style type="text/css">
	.st0{fill:#3A2C60;}
	.st1{fill:#E6E7E8;}
	.st2{fill:#FA759E;}
	.st3{fill:#FFFFFF;}
	.st4{fill:#6DC9F7;}
	.st5{fill:#FFD7E5;}
	.st6{fill:#0089EF;}
	.st7{fill:#D4FBFF;}
	.st8{fill:#F5F6F9;}
	.st9{fill:#D0D2D3;}
</style>
<g>
	<g>
		<path class="st1" d="M66.121,9.357c1.566-0.443,2.476-2.072,2.033-3.638c-0.443-1.566-2.072-2.476-3.638-2.033
			c-1.566,0.443-2.476,2.072-2.033,3.638C62.926,8.89,64.555,9.8,66.121,9.357z"/>
		<path class="st1" d="M70.172,15.39c1.605,0.271,3.126-0.81,3.397-2.415c0.271-1.605-0.81-3.126-2.415-3.397
			s-3.126,0.81-3.397,2.415C67.486,13.598,68.567,15.119,70.172,15.39z"/>
		<path class="st1" d="M122.214,58.172l-2.168,0.632c-0.169-1.301-0.425-2.593-0.794-3.86l-14.331,4.179
			c0.047,0.177,0.07,0.359,0.109,0.538l-8.806,2.568c-0.407-2.33-2.428-4.104-4.874-4.104h-1.904
			c-0.909-0.713-2.242-0.851-3.315-0.085l-11.115,7.932l-0.326-0.793c0,0,0.035,0.176,0.094,0.458
			c-2.428-7.766-9.472-13.478-17.924-13.934c2.876-1.062,5.342-2.953,7.111-5.393c6.902-3.109,11.504-8.677,11.504-15.032
			c0-6.799-5.268-12.696-12.984-15.645c-1.837-3.394-5.961-5.764-10.765-5.764c-4.615,0-8.599,2.189-10.535,5.37
			c-8.31,2.794-14.081,8.922-14.081,16.038c0,6.585,4.942,12.323,12.263,15.358c1.751,2.284,4.124,4.055,6.873,5.069
			c-3.269,0.183-6.323,1.151-8.984,2.723c-0.72-5.076-2.946-9.831-6.376-13.616L19.827,50.84c0.12,0.139-7.219,7.284-7.219,7.284
			h-0.014c-2.135,0-4.089,1.347-4.718,3.387c-0.862,2.797,0.675,5.365,3.034,6.22l-0.25,1.958c0.769,0.099,1.533,0.106,2.287,0.047
			c-0.002,0.043-0.003,0.085-0.005,0.128c-0.822,0.054-1.66,0.028-2.507-0.106L8.697,83.38c1.317,0.169,2.629,0.216,3.93,0.18
			c0.004,1.164,0.02,2.309,0.06,3.418c0.901,25.254,10.984,26.216,23.371,26.478v10.88c0,1.1,0.892,1.992,1.992,1.992h27.028
			c1.106,0,2-0.901,1.992-2.007c-0.004-0.523-0.009-1.122-0.013-1.764l0.633-9.103c11.777-0.06,21.729-2.024,23.407-23.408
			c8.699,2.3,18.348-0.048,25.027-7.008C122.671,76.203,124.686,66.666,122.214,58.172z"/>
	</g>
	<g>
		<path class="st3" d="M87.374,56.223h-1.903c0.569,0.446,0.973,1.114,1.038,1.937c0.185,2.352,0.34,5.137,0.467,7.984h0.398
			c2.739,0,4.96-2.221,4.96-4.96S90.114,56.223,87.374,56.223z"/>
		<g>
			<g>
				<path class="st2" d="M86.509,58.159c-0.168-2.137-2.609-3.267-4.354-2.022l-11.212,8.001
					c-2.306-7.973-9.459-13.873-18.059-14.337c-1.657,0.612-3.44,0.962-5.309,0.962c-1.867,0-3.649-0.35-5.304-0.961
					c-8.583,0.48-15.719,6.376-18.02,14.338l-10.348-7.815c-1.739-1.313-4.235-0.181-4.403,1.992
					c-0.557,7.199-0.853,18.3-0.853,23.007c0,1.284,0.022,2.535,0.066,3.753c0.901,25.254,10.984,26.217,23.371,26.478v9.845
					c0,1.672,1.355,3.027,3.027,3.027h25.639c1.301,0,2.353-1.052,2.343-2.354c-0.029-3.714-0.07-10.518,0.02-10.518
					c13.195,0,24.263-1.983,24.263-30.233C87.374,76.582,87.074,65.353,86.509,58.159z"/>
				<path class="st5" d="M60.361,61.503l0.505,0.173c0.024,0.008,0.113,0.037,0.145,0.027c0.614-0.171,1.069-0.565,1.187-0.976
					l-0.424-0.156c-0.043-0.016-0.093-0.021-0.133,0.002c-0.005,0.003-0.011,0.005-0.017,0.007l-0.468,0.117
					c-0.006,0.001-0.012,0.002-0.017,0.002c-0.032,0-0.061-0.022-0.069-0.054c-0.01-0.038,0.014-0.077,0.052-0.087l0.468-0.117
					c0.003-0.001,0.005-0.001,0.008-0.002c0.047-0.006,0.09-0.029,0.12-0.066l0.284-0.354c-0.313-0.291-0.907-0.392-1.521-0.221
					c-0.118,0.033-0.341,0.176-0.356,0.198l-0.262,0.372c-0.014,0.02-0.036,0.03-0.059,0.03c-0.014,0-0.029-0.004-0.041-0.013
					c-0.032-0.023-0.04-0.068-0.017-0.1l0.262-0.372c0.003-0.005,0.007-0.009,0.011-0.012c0.038-0.033,0.07-0.072,0.077-0.122
					c0.015-0.109,0.023-0.218,0.023-0.326c0-0.637-0.274-1.182-0.661-1.405l-0.284,0.372c-0.029,0.038-0.041,0.085-0.036,0.132
					c0,0.003,0,0.006,0,0.009l-0.004,0.502c0,0.039-0.032,0.071-0.072,0.071h0c-0.04,0-0.072-0.033-0.071-0.072l0.004-0.502
					c0-0.002,0-0.003,0-0.005c0.004-0.048-0.006-0.096-0.036-0.134l-0.284-0.371c-0.387,0.224-0.66,0.769-0.659,1.406
					c0,0.172,0.109,0.522,0.127,0.542l0.344,0.391c0.026,0.03,0.023,0.075-0.006,0.101c-0.014,0.012-0.031,0.018-0.047,0.018
					c-0.02,0-0.04-0.008-0.054-0.024l-0.344-0.391c-0.004-0.004-0.007-0.009-0.01-0.014c-0.024-0.046-0.055-0.088-0.103-0.108
					c-0.104-0.043-0.21-0.081-0.316-0.111c-0.614-0.171-1.204-0.084-1.51,0.186l0.287,0.337c0.031,0.037,0.077,0.054,0.125,0.062
					c0.005,0.001,0.011,0.002,0.016,0.005l0.435,0.185c0.036,0.016,0.053,0.058,0.038,0.094c-0.012,0.027-0.038,0.044-0.066,0.044
					c-0.009,0-0.019-0.002-0.028-0.006l-0.435-0.185c-0.02-0.008-0.557,0.13-0.557,0.13c0.124,0.389,0.584,0.768,1.198,0.938
					c0.036,0.01,0.133-0.02,0.159-0.027l0.434-0.118c0.038-0.01,0.078,0.012,0.088,0.051c0.01,0.038-0.012,0.078-0.05,0.088
					l-0.434,0.118c-0.006,0.002-0.013,0.003-0.019,0.003c-0.02,0-0.139,0.067-0.18,0.113c-0.418,0.481-0.568,1.072-0.421,1.496
					l0.459-0.094c0.044-0.009,0.089-0.031,0.111-0.071c0.003-0.005,0.006-0.01,0.01-0.014l0.343-0.358
					c0.027-0.029,0.073-0.03,0.101-0.002c0.029,0.027,0.029,0.073,0.002,0.101l-0.36,0.415c-0.014,0.015-0.074,0.537-0.074,0.537
					c0.44,0.086,1.004-0.145,1.422-0.626c0.105-0.121,0.243-0.434,0.243-0.461l0.005-0.551c0-0.04,0.034-0.073,0.072-0.071
					c0.04,0,0.071,0.033,0.071,0.072l-0.005,0.551c0,0.027,0.14,0.347,0.248,0.471c0.418,0.481,0.986,0.708,1.431,0.618
					c0,0-0.078-0.586-0.092-0.605l-0.237-0.316c-0.024-0.032-0.017-0.077,0.014-0.1c0.032-0.024,0.077-0.017,0.1,0.014l0.237,0.316
					c0.013,0.017,0.579,0.167,0.579,0.167c0.151-0.428,0.004-1.022-0.414-1.503c-0.02-0.023-0.092-0.046-0.111-0.046
					c-0.008,0-0.016-0.001-0.023-0.004l-0.505-0.173c-0.037-0.013-0.058-0.054-0.045-0.091C60.283,61.51,60.324,61.49,60.361,61.503
					z"/>
				<path class="st3" d="M97.691,64.243c1.729-3.775,1.245-8.16-0.914-11.595l12.444-8.246c4.883,7.376,5.791,17.081,1.567,25.553
					c-5.602,11.214-18.303,16.513-29.921,13.183l3.773-13.204C89.825,71.589,95.361,69.316,97.691,64.243z"/>
				<g>
					<path class="st7" d="M58.322,51.701c-1.451-0.531-2.985-0.883-4.572-1.064c-0.258,3.459-5.999,11.282-5.999,11.282
						s-5.838-7.953-6.008-11.368c-1.928,0.127-3.785,0.514-5.525,1.151c2.176,5.232,6.104,11.737,8.754,15.896h6.87l-1.242-1.726
						C50.599,65.871,56.536,55.995,58.322,51.701z"/>
				</g>
				<path class="st5" d="M41.6,50.695v0.185c0,3.36,6.084,11.641,6.084,11.641s6.084-8.281,6.084-11.641v-0.185
					C51.47,50.492,43.77,50.3,41.6,50.695z"/>
				<path class="st7" d="M47.683,62.52l3.594,4.293L47.683,62.52z"/>
				<path class="st6" d="M32.938,67.597c-0.177,0.358-0.355,0.714-0.548,1.061v19.558H62.96V67.597H32.938z"/>
				<path class="st5" d="M27.617,78.708l0.505,0.173c0.024,0.008,0.113,0.037,0.145,0.027c0.614-0.171,1.069-0.565,1.187-0.976
					l-0.424-0.156c-0.043-0.016-0.093-0.021-0.133,0.002c-0.005,0.003-0.011,0.005-0.017,0.007l-0.468,0.117
					c-0.006,0.001-0.012,0.002-0.017,0.002c-0.032,0-0.061-0.022-0.07-0.054c-0.01-0.038,0.014-0.077,0.052-0.087l0.468-0.117
					c0.003-0.001,0.005-0.001,0.008-0.002c0.047-0.006,0.09-0.029,0.12-0.066l0.284-0.354c-0.313-0.291-0.907-0.392-1.521-0.221
					c-0.118,0.033-0.341,0.176-0.356,0.198l-0.262,0.372c-0.014,0.02-0.036,0.03-0.059,0.03c-0.014,0-0.029-0.004-0.041-0.013
					c-0.032-0.023-0.04-0.068-0.017-0.1l0.262-0.372c0.003-0.005,0.007-0.009,0.011-0.012c0.038-0.033,0.07-0.072,0.077-0.122
					c0.015-0.109,0.023-0.218,0.023-0.326c0-0.637-0.274-1.182-0.661-1.405l-0.284,0.372c-0.029,0.038-0.041,0.085-0.036,0.132
					c0,0.003,0,0.006,0,0.009l-0.004,0.502c0,0.039-0.032,0.071-0.072,0.071h-0.001c-0.04,0-0.071-0.033-0.071-0.072l0.004-0.502
					c0-0.002,0-0.003,0-0.005c0.004-0.048-0.006-0.096-0.036-0.134l-0.284-0.371c-0.387,0.224-0.66,0.769-0.659,1.406
					c0,0.172,0.109,0.522,0.127,0.542l0.344,0.391c0.026,0.03,0.023,0.075-0.006,0.101c-0.014,0.012-0.031,0.018-0.047,0.018
					c-0.02,0-0.04-0.008-0.054-0.024l-0.344-0.391c-0.004-0.004-0.007-0.009-0.01-0.014c-0.024-0.046-0.055-0.088-0.103-0.108
					c-0.104-0.043-0.21-0.081-0.316-0.111c-0.614-0.171-1.204-0.084-1.51,0.186l0.287,0.337c0.031,0.037,0.077,0.054,0.125,0.062
					c0.005,0.001,0.011,0.002,0.016,0.005l0.435,0.185c0.036,0.016,0.053,0.058,0.038,0.094c-0.012,0.027-0.038,0.044-0.066,0.044
					c-0.009,0-0.019-0.002-0.028-0.006l-0.435-0.185c-0.02-0.008-0.557,0.13-0.557,0.13c0.124,0.389,0.584,0.768,1.198,0.938
					c0.036,0.01,0.133-0.02,0.159-0.027l0.434-0.118c0.038-0.01,0.078,0.012,0.088,0.051c0.01,0.038-0.012,0.078-0.05,0.088
					l-0.434,0.118c-0.006,0.002-0.013,0.003-0.019,0.003c-0.02,0-0.139,0.067-0.18,0.113c-0.418,0.481-0.568,1.072-0.421,1.496
					l0.459-0.094c0.044-0.009,0.089-0.031,0.111-0.071c0.003-0.005,0.006-0.01,0.01-0.014l0.343-0.358
					c0.027-0.029,0.073-0.03,0.101-0.002c0.029,0.027,0.029,0.073,0.002,0.101l-0.36,0.415c-0.014,0.015-0.074,0.537-0.074,0.537
					c0.44,0.086,1.004-0.145,1.422-0.626c0.105-0.121,0.243-0.434,0.243-0.461l0.005-0.551c0-0.04,0.034-0.073,0.072-0.071
					c0.04,0,0.071,0.033,0.071,0.072l-0.005,0.551c0,0.027,0.14,0.347,0.248,0.471c0.418,0.481,0.986,0.708,1.431,0.618
					c0,0-0.078-0.586-0.092-0.605l-0.237-0.316c-0.024-0.032-0.017-0.077,0.014-0.1c0.032-0.024,0.077-0.017,0.1,0.014l0.237,0.316
					c0.013,0.017,0.579,0.167,0.579,0.167c0.151-0.428,0.004-1.022-0.414-1.503c-0.02-0.023-0.092-0.046-0.111-0.046
					c-0.008,0-0.016-0.001-0.023-0.004l-0.505-0.173c-0.037-0.013-0.058-0.054-0.045-0.091
					C27.538,78.715,27.579,78.695,27.617,78.708z"/>
				<path class="st5" d="M71.859,81.131l0.505,0.173c0.024,0.008,0.113,0.037,0.145,0.027c0.614-0.171,1.069-0.565,1.187-0.976
					l-0.424-0.156c-0.043-0.016-0.093-0.021-0.133,0.002c-0.005,0.003-0.011,0.005-0.017,0.007l-0.468,0.117
					c-0.006,0.001-0.012,0.002-0.017,0.002c-0.032,0-0.061-0.022-0.069-0.054c-0.01-0.038,0.014-0.077,0.052-0.087l0.468-0.117
					c0.003-0.001,0.005-0.001,0.008-0.002c0.047-0.006,0.09-0.029,0.12-0.066l0.284-0.354c-0.313-0.291-0.907-0.392-1.521-0.221
					c-0.118,0.033-0.341,0.176-0.356,0.198l-0.262,0.372c-0.014,0.02-0.036,0.03-0.059,0.03c-0.014,0-0.029-0.004-0.041-0.013
					c-0.032-0.023-0.04-0.068-0.017-0.1l0.262-0.372c0.003-0.005,0.007-0.009,0.011-0.012c0.038-0.033,0.07-0.072,0.077-0.122
					c0.015-0.109,0.023-0.218,0.023-0.326c0-0.637-0.274-1.182-0.661-1.405l-0.284,0.372c-0.029,0.038-0.041,0.085-0.036,0.132
					c0,0.003,0.001,0.006,0,0.009l-0.004,0.502c0,0.039-0.032,0.071-0.072,0.071h0c-0.04,0-0.072-0.033-0.071-0.072l0.004-0.502
					c0-0.002,0-0.003,0-0.005c0.004-0.048-0.006-0.096-0.036-0.134l-0.284-0.371c-0.387,0.224-0.66,0.769-0.659,1.406
					c0,0.172,0.109,0.522,0.127,0.542l0.344,0.391c0.026,0.03,0.023,0.075-0.006,0.101c-0.014,0.012-0.031,0.018-0.047,0.018
					c-0.02,0-0.04-0.008-0.054-0.024l-0.344-0.391c-0.004-0.004-0.007-0.009-0.01-0.014c-0.024-0.046-0.055-0.088-0.103-0.108
					c-0.104-0.043-0.21-0.081-0.316-0.111c-0.614-0.171-1.204-0.084-1.51,0.186l0.287,0.337c0.031,0.037,0.077,0.054,0.125,0.062
					c0.005,0.001,0.011,0.002,0.016,0.005l0.435,0.185c0.036,0.016,0.053,0.058,0.038,0.094c-0.012,0.027-0.038,0.044-0.066,0.044
					c-0.009,0-0.019-0.002-0.028-0.006l-0.435-0.185c-0.02-0.008-0.557,0.13-0.557,0.13c0.124,0.389,0.584,0.768,1.198,0.938
					c0.036,0.01,0.133-0.02,0.159-0.027l0.434-0.118c0.038-0.01,0.078,0.012,0.088,0.051c0.01,0.038-0.012,0.078-0.05,0.088
					l-0.434,0.118c-0.006,0.002-0.013,0.003-0.019,0.003c-0.02,0-0.139,0.067-0.18,0.113c-0.418,0.481-0.568,1.072-0.421,1.496
					l0.459-0.094c0.044-0.009,0.089-0.031,0.111-0.071c0.003-0.005,0.006-0.01,0.01-0.014l0.343-0.358
					c0.027-0.029,0.073-0.03,0.101-0.002c0.029,0.027,0.03,0.073,0.002,0.101l-0.36,0.415c-0.014,0.015-0.074,0.537-0.074,0.537
					c0.44,0.086,1.004-0.145,1.422-0.626c0.105-0.121,0.243-0.434,0.243-0.461l0.005-0.551c0-0.04,0.034-0.073,0.072-0.071
					c0.04,0,0.071,0.033,0.071,0.072l-0.005,0.551c0,0.027,0.14,0.347,0.248,0.471c0.418,0.481,0.986,0.708,1.431,0.618
					c0,0-0.078-0.586-0.092-0.605l-0.237-0.316c-0.024-0.032-0.017-0.077,0.014-0.1c0.032-0.024,0.077-0.017,0.1,0.014l0.237,0.316
					c0.013,0.017,0.579,0.167,0.579,0.167c0.151-0.428,0.004-1.022-0.414-1.503c-0.02-0.023-0.092-0.046-0.111-0.046
					c-0.008,0-0.016-0.001-0.023-0.004l-0.505-0.173c-0.037-0.013-0.058-0.054-0.045-0.091
					C71.781,81.138,71.822,81.118,71.859,81.131z"/>
				<path class="st5" d="M76.793,99.88l0.505,0.173c0.024,0.008,0.113,0.037,0.145,0.027c0.614-0.171,1.069-0.565,1.187-0.976
					l-0.424-0.156c-0.043-0.016-0.093-0.021-0.133,0.002c-0.005,0.003-0.011,0.005-0.017,0.007l-0.468,0.117
					c-0.006,0.001-0.012,0.002-0.017,0.002c-0.032,0-0.061-0.022-0.07-0.054c-0.01-0.038,0.014-0.077,0.052-0.087l0.468-0.117
					c0.003-0.001,0.005-0.001,0.008-0.002c0.047-0.006,0.09-0.029,0.12-0.066l0.284-0.354c-0.313-0.291-0.907-0.392-1.521-0.221
					c-0.118,0.033-0.341,0.176-0.356,0.198l-0.262,0.372c-0.014,0.02-0.036,0.03-0.059,0.03c-0.014,0-0.029-0.004-0.041-0.013
					c-0.032-0.023-0.04-0.068-0.017-0.1l0.262-0.372c0.003-0.005,0.007-0.009,0.011-0.012c0.038-0.033,0.07-0.072,0.077-0.122
					c0.015-0.109,0.023-0.218,0.023-0.326c0-0.637-0.274-1.182-0.661-1.405l-0.284,0.372c-0.029,0.038-0.041,0.085-0.036,0.132
					c0,0.003,0.001,0.006,0,0.009l-0.004,0.502c0,0.039-0.032,0.071-0.072,0.071c0,0,0,0,0,0c-0.04,0-0.072-0.033-0.071-0.072
					l0.004-0.502c0-0.002,0-0.003,0-0.005c0.004-0.048-0.006-0.096-0.036-0.134l-0.284-0.371c-0.387,0.224-0.66,0.769-0.659,1.406
					c0,0.172,0.109,0.522,0.127,0.542l0.344,0.391c0.026,0.03,0.023,0.075-0.006,0.101c-0.014,0.012-0.031,0.018-0.047,0.018
					c-0.02,0-0.04-0.008-0.054-0.024l-0.344-0.391c-0.004-0.004-0.007-0.009-0.01-0.014c-0.024-0.046-0.055-0.088-0.103-0.108
					c-0.104-0.043-0.21-0.081-0.316-0.111c-0.614-0.171-1.204-0.084-1.51,0.186l0.287,0.337c0.031,0.037,0.077,0.054,0.125,0.062
					c0.005,0.001,0.011,0.002,0.016,0.005l0.435,0.185c0.036,0.016,0.053,0.058,0.038,0.094c-0.012,0.027-0.038,0.044-0.066,0.044
					c-0.009,0-0.019-0.002-0.028-0.006L72.9,98.956c-0.02-0.008-0.557,0.13-0.557,0.13c0.124,0.389,0.584,0.768,1.198,0.938
					c0.036,0.01,0.133-0.02,0.159-0.027l0.434-0.118c0.038-0.01,0.078,0.012,0.088,0.051c0.01,0.038-0.012,0.078-0.05,0.088
					l-0.434,0.118c-0.006,0.002-0.013,0.003-0.019,0.003c-0.02,0-0.139,0.067-0.18,0.113c-0.418,0.481-0.568,1.072-0.421,1.496
					l0.459-0.094c0.044-0.009,0.089-0.031,0.111-0.071c0.003-0.005,0.006-0.01,0.01-0.014l0.343-0.358
					c0.027-0.029,0.073-0.03,0.101-0.002c0.029,0.027,0.029,0.073,0.002,0.101l-0.36,0.415c-0.014,0.015-0.074,0.537-0.074,0.537
					c0.44,0.086,1.004-0.145,1.422-0.626c0.105-0.121,0.243-0.434,0.243-0.461l0.005-0.551c0-0.04,0.034-0.073,0.072-0.071
					c0.04,0,0.071,0.033,0.071,0.072l-0.005,0.551c0,0.027,0.14,0.347,0.248,0.471c0.418,0.481,0.986,0.708,1.431,0.618
					c0,0-0.078-0.586-0.092-0.605l-0.237-0.316c-0.024-0.032-0.017-0.077,0.014-0.1c0.032-0.024,0.077-0.017,0.1,0.014l0.237,0.316
					c0.013,0.017,0.579,0.167,0.579,0.167c0.151-0.428,0.004-1.022-0.414-1.503c-0.02-0.023-0.092-0.046-0.111-0.046
					c-0.008,0-0.016-0.001-0.023-0.004l-0.505-0.173c-0.037-0.013-0.058-0.054-0.045-0.091
					C76.715,99.887,76.756,99.867,76.793,99.88z"/>
				<path class="st5" d="M24.985,103.883l0.505,0.173c0.024,0.008,0.113,0.037,0.145,0.027c0.614-0.171,1.069-0.565,1.187-0.976
					l-0.424-0.156c-0.043-0.016-0.093-0.021-0.133,0.002c-0.005,0.003-0.011,0.005-0.017,0.007l-0.468,0.117
					c-0.006,0.001-0.012,0.002-0.017,0.002c-0.032,0-0.061-0.022-0.069-0.054c-0.01-0.038,0.014-0.077,0.052-0.087l0.468-0.117
					c0.003-0.001,0.005-0.001,0.008-0.002c0.047-0.006,0.09-0.029,0.12-0.066l0.284-0.354c-0.313-0.291-0.907-0.392-1.521-0.221
					c-0.118,0.033-0.341,0.176-0.356,0.198l-0.262,0.372c-0.014,0.02-0.036,0.03-0.059,0.03c-0.014,0-0.029-0.004-0.041-0.013
					c-0.032-0.023-0.04-0.068-0.017-0.1l0.262-0.372c0.003-0.005,0.007-0.009,0.011-0.012c0.038-0.033,0.07-0.072,0.077-0.122
					c0.015-0.109,0.023-0.218,0.023-0.326c0-0.637-0.274-1.182-0.661-1.405l-0.284,0.372c-0.029,0.038-0.041,0.085-0.036,0.132
					c0,0.003,0,0.006,0,0.009l-0.004,0.502c0,0.039-0.032,0.071-0.072,0.071h0c-0.04,0-0.072-0.033-0.071-0.072l0.004-0.502
					c0-0.002,0-0.003,0-0.005c0.004-0.048-0.006-0.096-0.036-0.134l-0.284-0.371c-0.387,0.224-0.66,0.769-0.659,1.406
					c0,0.172,0.109,0.522,0.127,0.542l0.344,0.391c0.026,0.03,0.023,0.075-0.006,0.101c-0.014,0.012-0.031,0.018-0.047,0.018
					c-0.02,0-0.04-0.008-0.054-0.024l-0.344-0.391c-0.004-0.004-0.007-0.009-0.01-0.014c-0.024-0.046-0.055-0.088-0.103-0.108
					c-0.104-0.043-0.21-0.081-0.316-0.111c-0.614-0.171-1.204-0.084-1.51,0.186l0.287,0.337c0.031,0.037,0.077,0.054,0.125,0.062
					c0.005,0.001,0.011,0.002,0.016,0.005l0.435,0.185c0.036,0.016,0.053,0.058,0.038,0.094c-0.012,0.027-0.038,0.044-0.066,0.044
					c-0.009,0-0.019-0.002-0.028-0.006l-0.435-0.185c-0.02-0.008-0.557,0.13-0.557,0.13c0.124,0.389,0.584,0.768,1.198,0.938
					c0.036,0.01,0.133-0.02,0.159-0.027l0.434-0.118c0.038-0.01,0.078,0.012,0.088,0.051c0.01,0.038-0.012,0.078-0.05,0.088
					l-0.434,0.118c-0.006,0.002-0.013,0.003-0.019,0.003c-0.02,0-0.139,0.067-0.18,0.113c-0.418,0.481-0.568,1.072-0.421,1.496
					l0.459-0.094c0.044-0.009,0.089-0.031,0.111-0.071c0.003-0.005,0.006-0.01,0.01-0.014l0.343-0.358
					c0.027-0.029,0.073-0.03,0.101-0.002c0.029,0.027,0.029,0.073,0.002,0.101l-0.36,0.415c-0.014,0.015-0.074,0.537-0.074,0.537
					c0.44,0.086,1.004-0.145,1.422-0.626c0.105-0.121,0.243-0.434,0.243-0.461l0.005-0.551c0-0.04,0.034-0.073,0.072-0.071
					c0.04,0,0.071,0.033,0.071,0.072l-0.005,0.551c0,0.027,0.14,0.347,0.248,0.471c0.418,0.481,0.986,0.708,1.431,0.618
					c0,0-0.078-0.586-0.092-0.605l-0.237-0.316c-0.024-0.032-0.017-0.077,0.014-0.1c0.032-0.024,0.077-0.017,0.1,0.014l0.237,0.316
					c0.013,0.017,0.579,0.167,0.579,0.167c0.151-0.428,0.004-1.022-0.414-1.503c-0.02-0.023-0.092-0.046-0.111-0.046
					c-0.008,0-0.016-0.001-0.023-0.004l-0.505-0.173c-0.037-0.013-0.058-0.054-0.045-0.091
					C24.907,103.89,24.948,103.87,24.985,103.883z"/>
				<path class="st5" d="M42.035,118.41l0.505,0.173c0.024,0.008,0.113,0.037,0.145,0.027c0.614-0.171,1.069-0.565,1.187-0.976
					l-0.424-0.156c-0.043-0.016-0.093-0.021-0.133,0.002c-0.005,0.003-0.011,0.005-0.017,0.007l-0.468,0.117
					c-0.006,0.001-0.012,0.002-0.017,0.002c-0.032,0-0.061-0.022-0.069-0.054c-0.01-0.038,0.014-0.077,0.052-0.087l0.468-0.117
					c0.003-0.001,0.005-0.001,0.008-0.002c0.047-0.006,0.09-0.029,0.12-0.066l0.284-0.354c-0.313-0.291-0.907-0.392-1.521-0.221
					c-0.118,0.033-0.341,0.176-0.356,0.198l-0.262,0.372c-0.014,0.02-0.036,0.03-0.059,0.03c-0.014,0-0.029-0.004-0.041-0.013
					c-0.032-0.023-0.04-0.068-0.017-0.1l0.262-0.372c0.003-0.005,0.007-0.009,0.011-0.012c0.038-0.033,0.07-0.072,0.077-0.122
					c0.015-0.109,0.023-0.218,0.023-0.326c0-0.637-0.274-1.182-0.661-1.405l-0.284,0.372c-0.029,0.038-0.041,0.085-0.036,0.132
					c0,0.003,0,0.006,0,0.009l-0.004,0.502c0,0.039-0.032,0.071-0.072,0.071h-0.001c-0.04,0-0.071-0.033-0.071-0.072l0.004-0.502
					c0-0.002,0-0.003,0-0.005c0.004-0.048-0.006-0.096-0.036-0.134l-0.284-0.371c-0.387,0.224-0.66,0.769-0.659,1.406
					c0,0.172,0.109,0.522,0.127,0.542l0.344,0.391c0.026,0.03,0.023,0.075-0.006,0.101c-0.014,0.012-0.031,0.018-0.047,0.018
					c-0.02,0-0.04-0.008-0.054-0.024l-0.344-0.391c-0.004-0.004-0.007-0.009-0.01-0.014c-0.024-0.046-0.055-0.088-0.103-0.108
					c-0.104-0.043-0.21-0.081-0.316-0.111c-0.614-0.171-1.204-0.084-1.51,0.186l0.287,0.337c0.031,0.037,0.077,0.054,0.125,0.062
					c0.005,0.001,0.011,0.002,0.016,0.005l0.435,0.185c0.036,0.016,0.053,0.058,0.038,0.094c-0.012,0.027-0.038,0.044-0.066,0.044
					c-0.009,0-0.019-0.002-0.028-0.006l-0.435-0.185c-0.02-0.008-0.557,0.13-0.557,0.13c0.124,0.389,0.584,0.768,1.198,0.938
					c0.036,0.01,0.133-0.02,0.159-0.027l0.434-0.118c0.038-0.01,0.078,0.012,0.088,0.051c0.01,0.038-0.012,0.078-0.05,0.088
					l-0.434,0.118c-0.006,0.002-0.013,0.003-0.019,0.003c-0.02,0-0.139,0.067-0.18,0.113c-0.418,0.481-0.568,1.072-0.421,1.496
					l0.459-0.094c0.044-0.009,0.089-0.031,0.111-0.071c0.003-0.005,0.006-0.01,0.01-0.014l0.343-0.358
					c0.027-0.029,0.073-0.03,0.101-0.002c0.029,0.027,0.029,0.073,0.002,0.101l-0.36,0.415c-0.014,0.015-0.074,0.537-0.074,0.537
					c0.44,0.086,1.004-0.145,1.422-0.626c0.105-0.121,0.243-0.434,0.243-0.461l0.005-0.551c0-0.04,0.034-0.073,0.072-0.071
					c0.04,0,0.071,0.033,0.071,0.072l-0.005,0.551c0,0.027,0.14,0.347,0.248,0.471c0.418,0.481,0.986,0.708,1.431,0.618
					c0,0-0.078-0.586-0.092-0.605l-0.237-0.316c-0.024-0.032-0.017-0.077,0.014-0.1c0.032-0.024,0.077-0.017,0.1,0.014l0.237,0.316
					c0.013,0.017,0.579,0.167,0.579,0.167c0.151-0.428,0.004-1.022-0.414-1.503c-0.02-0.023-0.092-0.046-0.111-0.046
					c-0.008,0-0.016-0.001-0.023-0.004l-0.505-0.173c-0.037-0.013-0.058-0.054-0.045-0.091
					C41.957,118.417,41.998,118.397,42.035,118.41z"/>
				<path class="st5" d="M58.217,95.131l0.505,0.173c0.024,0.008,0.113,0.037,0.145,0.027c0.614-0.171,1.069-0.565,1.187-0.976
					l-0.424-0.156c-0.043-0.016-0.093-0.021-0.133,0.002c-0.005,0.003-0.011,0.005-0.017,0.007l-0.468,0.117
					c-0.006,0.001-0.012,0.002-0.017,0.002c-0.032,0-0.061-0.022-0.069-0.054c-0.01-0.038,0.014-0.077,0.052-0.087l0.468-0.117
					c0.003-0.001,0.005-0.001,0.008-0.002c0.047-0.006,0.09-0.029,0.12-0.066l0.284-0.354c-0.313-0.291-0.907-0.392-1.521-0.221
					c-0.118,0.033-0.341,0.176-0.356,0.198l-0.262,0.372c-0.014,0.02-0.036,0.03-0.059,0.03c-0.014,0-0.029-0.004-0.041-0.013
					c-0.032-0.023-0.04-0.068-0.017-0.1l0.262-0.372c0.003-0.005,0.007-0.009,0.011-0.012c0.038-0.033,0.07-0.072,0.077-0.122
					c0.015-0.109,0.023-0.218,0.023-0.326c0-0.637-0.274-1.182-0.661-1.405l-0.284,0.372c-0.029,0.038-0.041,0.085-0.036,0.132
					c0,0.003,0.001,0.006,0,0.009l-0.004,0.502c0,0.039-0.032,0.071-0.072,0.071h-0.001c-0.04,0-0.071-0.033-0.071-0.072
					l0.004-0.502c0-0.002,0-0.003,0-0.005c0.004-0.048-0.006-0.096-0.036-0.134l-0.284-0.371c-0.387,0.224-0.66,0.769-0.659,1.406
					c0,0.172,0.109,0.522,0.127,0.542l0.344,0.391c0.026,0.03,0.023,0.075-0.006,0.101c-0.014,0.012-0.031,0.018-0.047,0.018
					c-0.02,0-0.04-0.008-0.054-0.024l-0.344-0.391c-0.004-0.004-0.007-0.009-0.01-0.014c-0.024-0.046-0.055-0.088-0.103-0.108
					c-0.104-0.043-0.21-0.081-0.316-0.111c-0.614-0.171-1.204-0.084-1.51,0.186l0.287,0.337c0.031,0.037,0.077,0.054,0.125,0.062
					c0.005,0.001,0.011,0.002,0.016,0.005l0.435,0.185c0.036,0.016,0.053,0.058,0.038,0.094c-0.012,0.027-0.038,0.044-0.066,0.044
					c-0.009,0-0.019-0.002-0.028-0.006l-0.435-0.185c-0.02-0.008-0.557,0.13-0.557,0.13c0.124,0.389,0.584,0.768,1.198,0.938
					c0.036,0.01,0.133-0.02,0.159-0.027l0.434-0.118c0.038-0.01,0.078,0.012,0.088,0.051c0.01,0.038-0.012,0.078-0.05,0.088
					l-0.434,0.118c-0.006,0.002-0.013,0.003-0.019,0.003c-0.02,0-0.139,0.067-0.18,0.113c-0.418,0.481-0.568,1.072-0.421,1.496
					l0.459-0.094c0.044-0.009,0.089-0.031,0.111-0.071c0.003-0.005,0.006-0.01,0.01-0.014l0.343-0.358
					c0.027-0.029,0.073-0.03,0.101-0.002c0.029,0.027,0.029,0.073,0.002,0.101l-0.36,0.415c-0.014,0.015-0.074,0.537-0.074,0.537
					c0.44,0.086,1.004-0.145,1.422-0.626c0.105-0.121,0.243-0.434,0.243-0.461l0.005-0.551c0-0.04,0.034-0.073,0.072-0.071
					c0.04,0,0.071,0.033,0.071,0.072l-0.005,0.551c0,0.027,0.14,0.347,0.248,0.471c0.418,0.481,0.986,0.708,1.431,0.618
					c0,0-0.078-0.586-0.092-0.605l-0.237-0.316c-0.024-0.032-0.017-0.077,0.014-0.1c0.032-0.024,0.077-0.017,0.1,0.014l0.237,0.316
					c0.013,0.017,0.579,0.167,0.579,0.167c0.151-0.428,0.004-1.022-0.414-1.503c-0.02-0.023-0.092-0.046-0.111-0.046
					c-0.008,0-0.016-0.001-0.023-0.004l-0.505-0.173c-0.037-0.013-0.058-0.054-0.045-0.091
					C58.139,95.138,58.18,95.118,58.217,95.131z"/>
				<path class="st5" d="M50.787,106.757l0.505,0.173c0.024,0.008,0.113,0.037,0.145,0.027c0.614-0.171,1.069-0.565,1.187-0.976
					l-0.424-0.156c-0.043-0.016-0.093-0.021-0.133,0.002c-0.005,0.003-0.011,0.005-0.017,0.007l-0.468,0.117
					c-0.006,0.001-0.012,0.002-0.017,0.002c-0.032,0-0.061-0.022-0.069-0.054c-0.01-0.038,0.014-0.077,0.052-0.087l0.468-0.117
					c0.003-0.001,0.005-0.001,0.008-0.001c0.047-0.006,0.09-0.029,0.12-0.066l0.284-0.354c-0.313-0.291-0.907-0.392-1.521-0.221
					c-0.118,0.033-0.341,0.176-0.356,0.198l-0.262,0.372c-0.014,0.02-0.036,0.03-0.059,0.03c-0.014,0-0.029-0.004-0.041-0.013
					c-0.032-0.023-0.04-0.068-0.017-0.1l0.262-0.372c0.003-0.005,0.007-0.009,0.011-0.012c0.038-0.033,0.07-0.072,0.077-0.122
					c0.015-0.109,0.023-0.218,0.023-0.326c0-0.637-0.274-1.182-0.661-1.405l-0.284,0.372c-0.029,0.038-0.041,0.085-0.036,0.132
					c0,0.003,0,0.006,0,0.009l-0.004,0.502c0,0.039-0.032,0.071-0.072,0.071h-0.001c-0.04,0-0.071-0.033-0.071-0.072l0.004-0.502
					c0-0.002,0-0.003,0-0.005c0.004-0.048-0.006-0.096-0.036-0.134l-0.284-0.371c-0.387,0.224-0.66,0.769-0.659,1.406
					c0,0.172,0.109,0.522,0.127,0.542l0.344,0.391c0.026,0.03,0.023,0.075-0.006,0.101c-0.014,0.012-0.031,0.018-0.047,0.018
					c-0.02,0-0.04-0.008-0.054-0.024l-0.344-0.391c-0.004-0.004-0.007-0.009-0.01-0.014c-0.024-0.046-0.055-0.088-0.103-0.108
					c-0.104-0.043-0.21-0.081-0.316-0.111c-0.614-0.171-1.204-0.084-1.51,0.186l0.287,0.337c0.031,0.037,0.077,0.054,0.125,0.062
					c0.005,0.001,0.011,0.002,0.016,0.005l0.435,0.185c0.036,0.016,0.053,0.058,0.038,0.094c-0.012,0.027-0.038,0.044-0.066,0.044
					c-0.009,0-0.019-0.002-0.028-0.006l-0.435-0.185c-0.02-0.008-0.557,0.13-0.557,0.13c0.124,0.389,0.584,0.768,1.198,0.938
					c0.036,0.01,0.133-0.02,0.159-0.027l0.434-0.118c0.038-0.01,0.078,0.012,0.088,0.051c0.01,0.038-0.012,0.078-0.05,0.088
					l-0.434,0.118c-0.006,0.002-0.013,0.003-0.019,0.003c-0.02,0-0.139,0.067-0.18,0.113c-0.418,0.481-0.568,1.072-0.421,1.496
					l0.459-0.094c0.044-0.009,0.089-0.031,0.111-0.071c0.003-0.005,0.006-0.01,0.01-0.014l0.343-0.358
					c0.027-0.029,0.073-0.03,0.101-0.002c0.029,0.027,0.029,0.073,0.002,0.101l-0.36,0.415c-0.014,0.015-0.074,0.537-0.074,0.537
					c0.44,0.086,1.004-0.145,1.422-0.626c0.105-0.121,0.243-0.434,0.243-0.461l0.005-0.551c0-0.04,0.034-0.073,0.072-0.071
					c0.04,0,0.071,0.033,0.071,0.072l-0.005,0.551c0,0.027,0.14,0.347,0.248,0.471c0.418,0.481,0.986,0.708,1.431,0.618
					c0,0-0.078-0.586-0.092-0.605l-0.237-0.316c-0.024-0.032-0.017-0.077,0.014-0.1c0.032-0.024,0.077-0.017,0.1,0.014l0.237,0.316
					c0.013,0.017,0.579,0.167,0.579,0.167c0.151-0.428,0.004-1.022-0.414-1.503c-0.02-0.023-0.092-0.046-0.111-0.046
					c-0.008,0-0.016-0.001-0.023-0.004l-0.505-0.173c-0.037-0.013-0.058-0.054-0.045-0.091
					C50.709,106.764,50.75,106.744,50.787,106.757z"/>
				<path class="st5" d="M58.257,118.296l0.505,0.173c0.024,0.008,0.113,0.037,0.145,0.027c0.614-0.171,1.069-0.565,1.187-0.976
					l-0.424-0.156c-0.043-0.016-0.093-0.021-0.133,0.002c-0.005,0.003-0.011,0.005-0.017,0.007l-0.468,0.117
					c-0.006,0.001-0.012,0.002-0.017,0.002c-0.032,0-0.061-0.022-0.069-0.054c-0.01-0.038,0.014-0.077,0.052-0.087l0.468-0.117
					c0.003-0.001,0.005-0.001,0.008-0.001c0.047-0.006,0.09-0.029,0.12-0.066l0.284-0.354c-0.313-0.291-0.907-0.392-1.521-0.221
					c-0.118,0.033-0.341,0.176-0.356,0.198l-0.262,0.372c-0.014,0.02-0.036,0.03-0.059,0.03c-0.014,0-0.703,2.411-0.716,2.403
					c-0.032-0.023,0.634-2.483,0.657-2.516l0.262-0.372c0.003-0.005,0.007-0.009,0.011-0.012c0.038-0.033,0.07-0.072,0.077-0.122
					c0.015-0.109,0.023-0.218,0.023-0.326c0-0.637-0.274-1.182-0.661-1.405l-0.284,0.372c-0.029,0.038-0.041,0.085-0.036,0.132
					c0,0.003,0,0.006,0,0.009l-0.004,0.502c0,0.039-0.032,0.071-0.072,0.071h-0.001c-0.04,0-0.071-0.033-0.071-0.072l0.004-0.502
					c0-0.002,0-0.003,0-0.005c0.004-0.048-0.006-0.096-0.036-0.134l-0.284-0.371c-0.387,0.224-0.66,0.769-0.659,1.406
					c0,0.172,0.109,0.522,0.127,0.542l0.344,0.391c0.026,0.03,0.023,0.075-0.006,0.101c-0.014,0.012-0.031,0.018-0.047,0.018
					c-0.02,0-0.04-0.008-0.054-0.024l-0.344-0.391c-0.004-0.004-0.007-0.009-0.01-0.014c-0.024-0.046-0.055-0.088-0.103-0.108
					c-0.104-0.043-0.21-0.081-0.316-0.111c-0.614-0.171-1.204-0.084-1.51,0.186l0.287,0.337c0.031,0.037,0.077,0.054,0.125,0.062
					c0.005,0.001,0.011,0.002,0.016,0.005l0.435,0.185c0.036,0.016,0.053,0.058,0.038,0.094c-0.012,0.027-0.038,0.044-0.066,0.044
					c-0.009,0-0.019-0.002-0.028-0.006l-0.435-0.185c-0.02-0.008-0.557,0.13-0.557,0.13c0.124,0.389,0.584,0.768,1.198,0.938
					c0.036,0.01,0.133-0.02,0.159-0.027l0.434-0.118c0.038-0.01,0.078,0.012,0.088,0.051c0.01,0.038-0.012,0.078-0.05,0.088
					l-0.434,0.118c-0.006,0.002-0.013,0.003-0.019,0.003c-0.02,0-0.139,0.067-0.18,0.113c-0.418,0.481-0.568,1.072-0.421,1.496
					l0.459-0.094c0.044-0.009,0.089-0.031,0.111-0.071c0.003-0.005,0.006-0.01,0.01-0.014l0.343-0.358
					c0.027-0.029,0.073-0.03,0.101-0.002c0.029,0.027,0.029,0.073,0.002,0.101l-0.36,0.415c-0.014,0.015-0.074,0.537-0.074,0.537
					c0.44,0.086,1.004-0.145,1.422-0.626c0.105-0.121,0.243-0.434,0.243-0.461l0.005-0.551c0-0.04,0.034-0.073,0.072-0.071
					c0.04,0,0.071,0.033,0.071,0.072l-0.005,0.551c0,0.027,0.14,0.347,0.248,0.471c0.418,0.481,0.986,0.708,1.431,0.618
					c0,0-0.078-0.586-0.092-0.605l-0.237-0.316c-0.024-0.032-0.017-0.077,0.014-0.1c0.032-0.024,0.077-0.017,0.1,0.014l0.237,0.316
					c0.013,0.017,0.579,0.167,0.579,0.167c0.151-0.428,0.004-1.022-0.414-1.503c-0.02-0.023-0.092-0.046-0.111-0.046
					c-0.008,0-0.016-0.001-0.023-0.004l-0.505-0.173c-0.037-0.013-0.058-0.054-0.045-0.091
					C58.179,118.303,58.22,118.283,58.257,118.296z"/>
				<path class="st5" d="M83.081,68.123l0.505,0.173c0.024,0.008,0.113,0.037,0.145,0.027c0.614-0.171,1.069-0.565,1.187-0.976
					l-0.424-0.156c-0.043-0.016-0.093-0.021-0.133,0.002c-0.005,0.003-0.011,0.005-0.017,0.007l-0.468,0.117
					c-0.006,0.001-0.012,0.002-0.017,0.002c-0.032,0-0.061-0.022-0.07-0.054c-0.01-0.038,0.014-0.077,0.052-0.087l0.468-0.117
					c0.003-0.001,0.005-0.001,0.008-0.002c0.047-0.006,0.09-0.029,0.12-0.066l0.284-0.354c-0.313-0.291-0.907-0.392-1.521-0.221
					c-0.118,0.033-0.341,0.176-0.356,0.198l-0.262,0.372c-0.014,0.02-0.036,0.03-0.059,0.03c-0.014,0-0.029-0.004-0.041-0.013
					c-0.032-0.023-0.04-0.068-0.017-0.1l0.262-0.372c0.003-0.005,0.007-0.009,0.011-0.012c0.038-0.033,0.07-0.072,0.077-0.122
					c0.015-0.109,0.023-0.218,0.023-0.326c0-0.637-0.274-1.182-0.661-1.405l-0.284,0.372c-0.029,0.038-0.041,0.085-0.036,0.132
					c0,0.003,0.001,0.006,0,0.009l-0.004,0.502c0,0.039-0.032,0.071-0.072,0.071h0c-0.04,0-0.072-0.033-0.071-0.072l0.004-0.502
					c0-0.002,0-0.003,0-0.005c0.004-0.048-0.006-0.096-0.036-0.134l-0.284-0.371c-0.387,0.224-0.66,0.769-0.659,1.406
					c0,0.172,0.109,0.522,0.127,0.542l0.344,0.391c0.026,0.03,0.023,0.075-0.006,0.101c-0.014,0.012-0.031,0.018-0.047,0.018
					c-0.02,0-0.04-0.008-0.054-0.024l-0.344-0.391c-0.004-0.004-0.007-0.009-0.01-0.014c-0.024-0.046-0.055-0.088-0.103-0.108
					c-0.104-0.043-0.21-0.081-0.316-0.111c-0.614-0.171-1.204-0.084-1.51,0.186L79.103,67c0.031,0.037,0.077,0.054,0.125,0.062
					c0.005,0.001,0.011,0.002,0.016,0.005l0.435,0.185c0.036,0.016,0.053,0.058,0.038,0.094c-0.012,0.027-0.038,0.044-0.066,0.044
					c-0.009,0-0.019-0.002-0.028-0.006l-0.435-0.185c-0.02-0.008-0.557,0.13-0.557,0.13c0.124,0.389,0.584,0.768,1.198,0.938
					c0.036,0.01,0.133-0.02,0.159-0.027l0.434-0.118c0.038-0.01,0.078,0.012,0.088,0.051c0.01,0.038-0.012,0.078-0.05,0.088
					l-0.434,0.118c-0.006,0.002-0.013,0.003-0.019,0.003c-0.02,0-0.139,0.067-0.18,0.113c-0.418,0.481-0.568,1.072-0.421,1.496
					l0.459-0.094c0.044-0.009,0.089-0.031,0.111-0.071c0.003-0.005,0.006-0.01,0.01-0.014l0.343-0.358
					c0.027-0.029,0.073-0.03,0.101-0.002c0.029,0.027,0.029,0.073,0.002,0.101l-0.36,0.415c-0.014,0.015-0.074,0.537-0.074,0.537
					c0.44,0.086,1.004-0.145,1.422-0.626c0.105-0.121,0.243-0.434,0.243-0.461l0.005-0.551c0-0.04,0.034-0.073,0.072-0.071
					c0.04,0,0.071,0.033,0.071,0.072l-0.005,0.551c0,0.027,0.14,0.347,0.248,0.471c0.418,0.481,0.986,0.708,1.431,0.618
					c0,0-0.078-0.586-0.092-0.605l-0.237-0.316c-0.024-0.032-0.017-0.077,0.014-0.1c0.032-0.024,0.077-0.017,0.1,0.014l0.237,0.316
					c0.013,0.017,0.579,0.167,0.579,0.167c0.151-0.428,0.004-1.022-0.414-1.503c-0.02-0.023-0.092-0.046-0.111-0.046
					c-0.008,0-0.016-0.001-0.023-0.004l-0.505-0.173c-0.037-0.013-0.058-0.054-0.045-0.091C83.003,68.13,83.044,68.11,83.081,68.123
					z"/>
				<path class="st5" d="M42.035,96.028l0.505,0.173c0.024,0.008,0.113,0.037,0.145,0.027c0.614-0.171,1.069-0.565,1.187-0.976
					l-0.424-0.156c-0.043-0.016-0.093-0.021-0.133,0.002c-0.005,0.003-0.011,0.005-0.017,0.007l-0.468,0.117
					c-0.006,0.001-0.012,0.002-0.017,0.002c-0.032,0-0.061-0.022-0.069-0.054c-0.01-0.038,0.014-0.077,0.052-0.087l0.468-0.117
					c0.003-0.001,0.005-0.001,0.008-0.002c0.047-0.006,0.09-0.029,0.12-0.066l0.284-0.354c-0.313-0.291-0.907-0.392-1.521-0.221
					c-0.118,0.033-0.341,0.176-0.356,0.198l-0.262,0.372c-0.014,0.02-0.036,0.03-0.059,0.03c-0.014,0-0.029-0.004-0.041-0.013
					c-0.032-0.023-0.04-0.068-0.017-0.1l0.262-0.372c0.003-0.005,0.007-0.009,0.011-0.012c0.038-0.033,0.07-0.072,0.077-0.122
					c0.015-0.109,0.023-0.218,0.023-0.326c0-0.637-0.274-1.182-0.661-1.405l-0.284,0.372c-0.029,0.038-0.041,0.085-0.036,0.132
					c0,0.003,0,0.006,0,0.009l-0.004,0.502c0,0.039-0.032,0.071-0.072,0.071h0c-0.04,0-0.072-0.033-0.071-0.072l0.004-0.502
					c0-0.002,0-0.003,0-0.005c0.004-0.048-0.006-0.096-0.036-0.134l-0.284-0.371c-0.387,0.224-0.66,0.769-0.659,1.406
					c0,0.172,0.109,0.522,0.127,0.542l0.344,0.391c0.026,0.03,0.023,0.075-0.006,0.101c-0.014,0.012-0.031,0.018-0.047,0.018
					c-0.02,0-0.04-0.008-0.054-0.024l-0.344-0.391c-0.004-0.004-0.007-0.009-0.01-0.014c-0.024-0.046-0.055-0.088-0.103-0.108
					c-0.104-0.043-0.21-0.081-0.316-0.111c-0.614-0.171-1.204-0.084-1.51,0.186l0.287,0.337c0.031,0.037,0.077,0.054,0.125,0.062
					c0.005,0.001,0.011,0.002,0.016,0.005l0.435,0.185c0.036,0.016,0.053,0.058,0.038,0.094c-0.012,0.027-0.038,0.044-0.066,0.044
					c-0.009,0-0.019-0.002-0.028-0.006l-0.435-0.185c-0.02-0.008-0.557,0.13-0.557,0.13c0.124,0.389,0.584,0.768,1.198,0.938
					c0.036,0.01,0.133-0.02,0.159-0.027l0.434-0.118c0.038-0.01,0.078,0.012,0.088,0.051c0.01,0.038-0.012,0.078-0.05,0.088
					l-0.434,0.118c-0.006,0.002-0.013,0.003-0.019,0.003c-0.02,0-0.139,0.067-0.18,0.113c-0.418,0.481-0.568,1.072-0.421,1.496
					l0.459-0.094c0.044-0.009,0.089-0.031,0.111-0.071c0.003-0.005,0.006-0.01,0.01-0.014l0.343-0.358
					c0.027-0.029,0.073-0.03,0.101-0.002c0.029,0.027,0.029,0.073,0.002,0.101l-0.36,0.415c-0.014,0.015-0.074,0.537-0.074,0.537
					c0.44,0.086,1.004-0.145,1.422-0.626c0.105-0.121,0.243-0.434,0.243-0.461l0.005-0.551c0-0.04,0.034-0.073,0.072-0.071
					c0.04,0,0.071,0.033,0.071,0.072l-0.005,0.551c0,0.027,0.14,0.347,0.248,0.471c0.418,0.481,0.986,0.708,1.431,0.618
					c0,0-0.078-0.586-0.092-0.605l-0.237-0.316c-0.024-0.032-0.017-0.077,0.014-0.1c0.032-0.024,0.077-0.017,0.1,0.014l0.237,0.316
					c0.013,0.017,0.579,0.167,0.579,0.167c0.151-0.428,0.004-1.022-0.414-1.503c-0.02-0.023-0.092-0.046-0.111-0.046
					c-0.008,0-0.016-0.001-0.023-0.004l-0.505-0.173c-0.037-0.013-0.058-0.054-0.045-0.091
					C41.957,96.035,41.998,96.015,42.035,96.028z"/>
				<path class="st5" d="M17.298,85.773l0.505,0.173c0.024,0.008,0.113,0.037,0.145,0.027c0.614-0.171,1.069-0.565,1.187-0.976
					l-0.424-0.156c-0.043-0.016-0.093-0.021-0.133,0.002c-0.005,0.003-0.011,0.005-0.017,0.007l-0.468,0.117
					c-0.006,0.001-0.012,0.002-0.017,0.002c-0.032,0-0.061-0.022-0.069-0.054c-0.01-0.038,0.014-0.077,0.052-0.087l0.468-0.117
					c0.003-0.001,0.005-0.001,0.008-0.001c0.047-0.006,0.09-0.029,0.12-0.066l0.284-0.354c-0.313-0.291-0.907-0.392-1.521-0.221
					c-0.118,0.033-0.341,0.176-0.356,0.198l-0.262,0.372c-0.014,0.02-0.036,0.03-0.059,0.03c-0.014,0-0.029-0.004-0.041-0.013
					c-0.032-0.023-0.04-0.068-0.017-0.1l0.262-0.372c0.003-0.005,0.007-0.009,0.011-0.012c0.038-0.033,0.07-0.072,0.077-0.122
					c0.015-0.109,0.023-0.218,0.023-0.326c0-0.637-0.274-1.182-0.661-1.405l-0.284,0.372c-0.029,0.038-0.041,0.085-0.036,0.132
					c0,0.003,0,0.006,0,0.009l-0.004,0.502c0,0.039-0.032,0.071-0.072,0.071h-0.001c-0.04,0-0.071-0.033-0.071-0.072l0.004-0.502
					c0-0.002,0-0.003,0-0.005c0.004-0.048-0.006-0.096-0.036-0.134l-0.284-0.371c-0.387,0.224-0.66,0.769-0.659,1.406
					c0,0.172,0.109,0.522,0.127,0.542l0.344,0.391c0.026,0.03,0.023,0.075-0.006,0.101c-0.014,0.012-0.031,0.018-0.047,0.018
					c-0.02,0-0.04-0.008-0.054-0.024l-0.344-0.391c-0.004-0.004-0.007-0.009-0.01-0.014c-0.024-0.046-0.055-0.088-0.103-0.108
					c-0.104-0.043-0.21-0.081-0.316-0.111c-0.614-0.171-1.204-0.084-1.51,0.186l0.287,0.337c0.031,0.037,0.077,0.054,0.125,0.062
					c0.005,0.001,0.011,0.002,0.016,0.005l0.435,0.185c0.036,0.016,0.053,0.058,0.038,0.094c-0.012,0.027-0.038,0.044-0.066,0.044
					c-0.009,0-0.019-0.002-0.028-0.006l-0.435-0.185c-0.02-0.008-0.557,0.13-0.557,0.13c0.124,0.389,0.584,0.768,1.198,0.938
					c0.036,0.01,0.133-0.02,0.159-0.027l0.434-0.118c0.038-0.01,0.078,0.012,0.088,0.051c0.01,0.038-0.012,0.078-0.05,0.088
					l-0.434,0.118c-0.006,0.002-0.013,0.003-0.019,0.003c-0.02,0-0.139,0.067-0.18,0.113c-0.418,0.481-0.568,1.072-0.421,1.496
					l0.459-0.094c0.044-0.009,0.089-0.031,0.111-0.071c0.003-0.005,0.006-0.01,0.01-0.014l0.343-0.358
					c0.027-0.029,0.073-0.03,0.101-0.002c0.029,0.027,0.029,0.073,0.002,0.101l-0.36,0.415c-0.014,0.015-0.074,0.537-0.074,0.537
					c0.44,0.086,1.004-0.145,1.422-0.626c0.105-0.121,0.243-0.434,0.243-0.461l0.005-0.551c0-0.04,0.034-0.073,0.072-0.071
					c0.04,0,0.071,0.033,0.071,0.072l-0.005,0.551c0,0.027,0.14,0.347,0.248,0.471c0.418,0.481,0.986,0.708,1.431,0.618
					c0,0-0.078-0.586-0.092-0.605l-0.237-0.316c-0.024-0.032-0.017-0.077,0.014-0.1c0.032-0.024,0.077-0.017,0.1,0.014l0.237,0.316
					c0.013,0.017,0.579,0.167,0.579,0.167c0.151-0.428,0.004-1.022-0.414-1.503c-0.02-0.023-0.092-0.046-0.111-0.046
					c-0.008,0-0.016-0.001-0.023-0.004l-0.505-0.173c-0.037-0.013-0.058-0.054-0.045-0.091C17.22,85.78,17.261,85.76,17.298,85.773z
					"/>
				<path class="st5" d="M83.081,88.742l0.505,0.173c0.024,0.008,0.113,0.037,0.145,0.027c0.614-0.171,1.069-0.565,1.187-0.976
					l-0.424-0.156c-0.043-0.016-0.093-0.021-0.133,0.002c-0.005,0.003-0.011,0.005-0.017,0.007l-0.468,0.117
					c-0.006,0.001-0.012,0.002-0.017,0.002c-0.032,0-0.061-0.022-0.07-0.054c-0.01-0.038,0.014-0.077,0.052-0.087l0.468-0.117
					c0.003-0.001,0.005-0.001,0.008-0.002c0.047-0.006,0.09-0.029,0.12-0.066l0.284-0.354c-0.313-0.291-0.907-0.392-1.521-0.221
					c-0.118,0.033-0.341,0.176-0.356,0.198l-0.262,0.372c-0.014,0.02-0.036,0.03-0.059,0.03c-0.014,0-0.029-0.004-0.041-0.013
					c-0.032-0.023-0.04-0.068-0.017-0.1l0.262-0.372c0.003-0.005,0.007-0.009,0.011-0.012c0.038-0.033,0.07-0.072,0.077-0.122
					c0.015-0.109,0.023-0.218,0.023-0.326c0-0.637-0.274-1.182-0.661-1.405l-0.284,0.372c-0.029,0.038-0.041,0.085-0.036,0.132
					c0,0.003,0.001,0.006,0,0.009l-0.004,0.502c0,0.039-0.032,0.071-0.072,0.071h-0.001c-0.04,0-0.071-0.033-0.071-0.072
					l0.004-0.502c0-0.002,0-0.003,0-0.005c0.004-0.048-0.006-0.096-0.036-0.134l-0.284-0.371c-0.387,0.224-0.66,0.769-0.659,1.406
					c0,0.172,0.109,0.522,0.127,0.542l0.344,0.391c0.026,0.03,0.023,0.075-0.006,0.101c-0.014,0.012-0.031,0.018-0.047,0.018
					c-0.02,0-0.04-0.008-0.054-0.024l-0.344-0.391c-0.004-0.004-0.007-0.009-0.01-0.014c-0.024-0.046-0.055-0.088-0.103-0.108
					c-0.104-0.043-0.21-0.081-0.316-0.111c-0.614-0.171-1.204-0.084-1.51,0.186l0.287,0.337c0.031,0.037,0.077,0.054,0.125,0.062
					c0.005,0.001,0.011,0.002,0.016,0.005l0.435,0.185c0.036,0.016,0.053,0.058,0.038,0.094c-0.012,0.027-0.038,0.044-0.066,0.044
					c-0.009,0-0.019-0.002-0.028-0.006l-0.435-0.185c-0.02-0.008-0.557,0.13-0.557,0.13c0.124,0.389,0.584,0.768,1.198,0.938
					c0.036,0.01,0.133-0.02,0.159-0.027l0.434-0.118c0.038-0.01,0.078,0.012,0.088,0.051c0.01,0.038-0.012,0.078-0.05,0.088
					l-0.434,0.118C80.019,89,80.013,89,80.007,89c-0.02,0-0.139,0.067-0.18,0.113c-0.418,0.481-0.568,1.072-0.421,1.496l0.459-0.094
					c0.044-0.009,0.089-0.031,0.111-0.071c0.003-0.005,0.006-0.01,0.01-0.014l0.343-0.358c0.027-0.029,0.073-0.03,0.101-0.002
					c0.029,0.027,0.029,0.073,0.002,0.101l-0.36,0.415c-0.014,0.015-0.074,0.537-0.074,0.537c0.44,0.086,1.004-0.145,1.422-0.626
					c0.105-0.121,0.243-0.434,0.243-0.461l0.005-0.551c0-0.04,0.034-0.073,0.072-0.071c0.04,0,0.071,0.033,0.071,0.072l-0.005,0.551
					c0,0.027,0.14,0.347,0.248,0.471c0.418,0.481,0.986,0.708,1.431,0.618c0,0-0.078-0.586-0.092-0.605l-0.237-0.316
					c-0.024-0.032-0.017-0.077,0.014-0.1c0.032-0.024,0.077-0.017,0.1,0.014l0.237,0.316c0.013,0.017,0.579,0.167,0.579,0.167
					c0.151-0.428,0.004-1.022-0.414-1.503c-0.02-0.023-0.092-0.046-0.111-0.046c-0.008,0-0.016-0.001-0.023-0.004l-0.505-0.173
					c-0.037-0.013-0.058-0.054-0.045-0.091C83.003,88.749,83.044,88.729,83.081,88.742z"/>
				<rect x="32.391" y="75.502" class="st7" width="30.569" height="4.345"/>
			</g>
		</g>
		<g>
			<path class="st3" d="M47.751,51.439L47.751,51.439c-2.138,0-4.174-0.438-6.024-1.228v0.183c0,3.327,6.024,11.525,6.024,11.525
				s6.024-8.199,6.024-11.525v-0.183C51.925,51.001,49.889,51.439,47.751,51.439z"/>
			<g>
				<g>
					<path class="st3" d="M63.828,31.953c-0.424,0-0.817,0.174-1.157,0.458c0.163,0.987,0.254,1.99,0.254,3.002l0,0
						c0,0.875-0.077,1.732-0.218,2.568c0.333,0.266,0.711,0.43,1.121,0.43c1.263,0,2.287-1.446,2.287-3.23
						C66.116,33.399,65.092,31.953,63.828,31.953z"/>
					<path class="st3" d="M32.225,35.414L32.225,35.414c0-1.012,0.091-2.015,0.254-3.002c-0.341-0.284-0.733-0.458-1.157-0.458
						c-1.263,0-2.287,1.446-2.287,3.23c0,1.784,1.024,3.23,2.287,3.23c0.41,0,0.788-0.164,1.121-0.43
						C32.302,37.146,32.225,36.289,32.225,35.414z"/>
				</g>
				<path class="st3" d="M58.642,23.615c-0.263-0.314-0.553-0.598-0.855-0.867c-2.074,2.777-5.787,4.635-10.037,4.635
					c-4.343,0-8.128-1.94-10.173-4.82c-0.382,0.318-0.745,0.663-1.069,1.051c-2.767,3.309-4.283,7.486-4.283,11.799l0,0
					c0,8.478,6.872,15.35,15.35,15.35s15.35-6.873,15.35-15.35l0,0C62.925,31.1,61.409,26.924,58.642,23.615z"/>
				<g>
					<g>
						<ellipse class="st5" cx="56.33" cy="40.228" rx="1.363" ry="0.859"/>
						<ellipse class="st5" cx="38.821" cy="40.037" rx="1.363" ry="0.859"/>
					</g>
					<path class="st2" d="M47.575,44.959c-1.616,0-2.719-0.93-3.116-1.479c-0.33-0.457-0.227-1.096,0.23-1.426
						c0.454-0.325,1.085-0.228,1.417,0.219c0.034,0.044,0.527,0.646,1.469,0.646c0.938,0,1.47-0.646,1.475-0.652
						c0.34-0.45,0.983-0.537,1.43-0.197c0.45,0.341,0.538,0.98,0.197,1.43C50.266,44.041,49.149,44.959,47.575,44.959z"/>
				</g>
				<circle class="st2" cx="61.344" cy="4.619" r="2.947"/>
				<circle class="st2" cx="66.688" cy="10.583" r="2.947"/>
			</g>
		</g>
		<g>
			<path class="st3" d="M97.691,64.243c1.729-3.775,1.245-8.16-0.914-11.595l12.444-8.246c4.883,7.376,5.791,17.081,1.567,25.553
				c-5.602,11.214-18.303,16.513-29.921,13.183l3.773-13.204C89.825,71.589,95.361,69.316,97.691,64.243z"/>
			<path class="st4" d="M100.552,66.083c1.729-3.775,1.245-8.16-0.914-11.595l12.444-8.246c4.883,7.376,5.791,17.081,1.567,25.553
				c-5.602,11.214-18.303,16.513-29.921,13.183l3.773-13.204C92.687,73.429,98.223,71.157,100.552,66.083z"/>
		</g>
		<path class="st4" d="M20.589,60.39c1.14-3.992,0.001-8.255-2.652-11.325l11.058-10.028c5.939,6.555,8.3,16.013,5.402,25.025
			c-3.847,11.93-15.604,19.084-27.591,17.543l1.739-13.622C13.921,68.838,19.051,65.757,20.589,60.39z"/>
		<g>
			<path class="st3" d="M9.726,63.93h1.47c1.928,0,3.49-1.563,3.49-3.49v-1.47c0-2.739-2.221-4.96-4.96-4.96h0
				c-2.739,0-4.96,2.221-4.96,4.96v0C4.766,61.71,6.986,63.93,9.726,63.93z"/>
			<g>
				<path class="st0" d="M32.008,91.012c-0.553,0-1,0.447-1,1v5.734c0,0.553,0.447,1,1,1s1-0.447,1-1v-5.734
					C33.008,91.459,32.561,91.012,32.008,91.012z"/>
				<path class="st0" d="M49.321,36.328c-0.553,0-1,0.447-1,1v1.023c0,0.411-0.335,0.746-0.746,0.746s-0.745-0.335-0.745-0.746
					v-1.023c0-0.553-0.447-1-1-1s-1,0.447-1,1v1.023c0,1.515,1.231,2.746,2.745,2.746c1.515,0,2.746-1.231,2.746-2.746v-1.023
					C50.321,36.775,49.874,36.328,49.321,36.328z"/>
				<path class="st0" d="M42.765,32.505c-0.553,0-1,0.447-1,1c0,0.955-0.777,1.732-1.733,1.732c-0.955,0-1.732-0.777-1.732-1.732
					c0-0.553-0.447-1-1-1s-1,0.447-1,1c0,2.058,1.675,3.732,3.732,3.732c2.059,0,3.733-1.675,3.733-3.732
					C43.765,32.952,43.317,32.505,42.765,32.505z"/>
				<path class="st0" d="M58.275,32.505c-0.553,0-1,0.447-1,1c0,0.955-0.777,1.732-1.733,1.732c-0.955,0-1.732-0.777-1.732-1.732
					c0-0.553-0.447-1-1-1s-1,0.447-1,1c0,2.058,1.675,3.732,3.732,3.732c2.059,0,3.733-1.675,3.733-3.732
					C59.275,32.952,58.828,32.505,58.275,32.505z"/>
				<path class="st0" d="M110.055,43.851c-0.146-0.222-0.375-0.375-0.635-0.428c-0.261-0.052-0.53,0-0.752,0.146l-12.444,8.245
					c-0.322,0.213-0.471,0.582-0.432,0.943l-5.177,3.431c-0.934-0.608-2.045-0.964-3.24-0.964h-1.573
					c-0.143-0.091-0.292-0.174-0.449-0.247c-1.248-0.581-2.659-0.449-3.777,0.348l-10.104,7.21
					c-2.463-6.768-8.301-11.759-15.227-13.282c2.272-1.428,4.167-3.393,5.506-5.723c5.912-3.218,9.75-8.354,9.75-14.152
					c0-5.467-3.405-10.352-8.75-13.59l1.893-1.832c0.421,0.255,0.888,0.436,1.388,0.52c0.223,0.037,0.445,0.056,0.667,0.056
					c0.812,0,1.603-0.25,2.277-0.73c0.859-0.61,1.43-1.52,1.605-2.559c0.362-2.146-1.088-4.188-3.235-4.551
					c-2.133-0.356-4.185,1.089-4.549,3.234c-0.152,0.9,0.025,1.798,0.467,2.582l-2.347,2.271c-0.638-0.318-1.299-0.613-1.979-0.886
					l2.005-5.35c0.132,0.014,0.264,0.025,0.397,0.025c0.36,0,0.725-0.05,1.081-0.151c2.094-0.593,3.314-2.778,2.722-4.873
					c-0.287-1.014-0.952-1.855-1.872-2.37c-0.921-0.515-1.988-0.641-3-0.352c-1.015,0.287-1.856,0.952-2.371,1.872
					c-0.514,0.92-0.639,1.985-0.352,3c0.249,0.878,0.793,1.613,1.528,2.132l-1.625,4.337c-2.127-2.533-5.675-4.196-9.698-4.196
					c-4.615,0-8.599,2.189-10.535,5.37c-8.31,2.794-14.081,8.922-14.081,16.038c0,3.658,1.53,7.053,4.141,9.871l-10.011,9.077
					c-0.286,0.26-0.378,0.647-0.285,0.997l-4.707,4.268c-0.774-0.368-1.636-0.58-2.548-0.58c-3.286,0-5.96,2.674-5.96,5.96
					c0,2.727,1.843,5.027,4.347,5.733c-0.012,0.249-0.024,0.498-0.036,0.75L7.84,67.303c-0.148,0.154-0.259,0.34-0.287,0.554
					L5.815,81.479c-0.069,0.548,0.317,1.049,0.865,1.119c0.331,0.042,0.66,0.065,0.99,0.095c0.009,0.811,0.014,1.626,0.042,2.419
					c0,0,0,0,0,0.001c0.871,24.416,10.191,27.037,23.37,27.417v8.261c0,2.557,2.079,4.636,4.635,4.636h23.729
					c1.245,0,2.414-0.486,3.291-1.369c0.876-0.881,1.354-2.051,1.345-3.294c-0.035-4.937-0.028-7.187-0.015-8.212
					c12.76-0.114,23.265-2.77,24.226-27.438c9.712-0.147,18.857-5.638,23.39-14.713C115.909,61.925,115.285,51.751,110.055,43.851z
					 M64.769,10.259c0.16-0.949,0.987-1.623,1.919-1.623c0.107,0,0.216,0.009,0.324,0.027c1.06,0.179,1.775,1.186,1.596,2.244
					c-0.086,0.513-0.367,0.961-0.791,1.263c-0.423,0.301-0.934,0.42-1.453,0.332c-0.513-0.086-0.961-0.367-1.263-0.791
					C64.8,11.287,64.682,10.771,64.769,10.259z M90.438,58.704c0.552,0.681,0.897,1.536,0.897,2.478
					c0,1.993-1.486,3.631-3.405,3.905c-0.031-0.644-0.063-1.28-0.096-1.908l0.969-3.391L90.438,58.704z M96.675,54.571
					c1.375,2.989,1.437,6.35,0.106,9.255c-0.475,1.036-1.109,1.942-1.853,2.714c-1.841,1.743-4.278,2.741-6.821,2.783
					c-0.027-0.737-0.056-1.476-0.087-2.216c2.984-0.323,5.314-2.856,5.314-5.924c0-1.35-0.456-2.592-1.216-3.593L96.675,54.571z
					 M88.688,57.464l-1.169,0.775c-0.004-0.051-0.008-0.107-0.012-0.158c-0.023-0.298-0.086-0.584-0.173-0.858h0.04
					C87.837,57.223,88.275,57.317,88.688,57.464z M66.545,57.845c-3.033,2.025-4.585,4.919-4.585,8.628l0,0.124h-9.607l-0.559-0.776
					c1.279-2.149,5.739-9.725,7.371-13.553C62.042,53.492,64.581,55.414,66.545,57.845z M7.929,80.722l1.484-11.63
					c4.244,0.324,8.16-1.59,10.474-4.922c0.806-1.066,1.452-2.276,1.881-3.608c1.281-3.982,0.39-8.356-2.288-11.546l9.238-8.377
					c0.302,0.265,0.613,0.525,0.936,0.776c4.779,6.342,6.247,14.705,3.792,22.34C29.913,74.713,19.277,81.722,7.929,80.722z
					 M19.761,59.497L14.68,55.66c-0.214-0.32-0.459-0.618-0.729-0.89l4.177-3.788C19.817,53.547,20.403,56.602,19.761,59.497z
					 M15.687,60.44V58.97c0-0.015-0.002-0.03-0.002-0.045l3.42,2.582c-0.248,0.544-0.541,1.055-0.875,1.532
					c-1.947,2.514-5.001,4.026-8.22,3.963c0.019-0.453,0.039-0.904,0.06-1.353l0.092-0.718h1.035
					C13.672,64.931,15.687,62.916,15.687,60.44z M63.853,36.855c0.043-0.482,0.073-0.964,0.073-1.441
					c0-0.476-0.026-0.962-0.064-1.451c-0.016-0.214-0.04-0.427-0.063-0.64c-0.014-0.123-0.02-0.244-0.036-0.367
					c0.617-0.096,1.354,0.904,1.354,2.226c0,1.276-0.68,2.229-1.288,2.229c-0.009,0-0.018,0-0.027-0.001
					c0.007-0.055,0.009-0.109,0.015-0.164C63.831,37.117,63.841,36.986,63.853,36.855z M52.503,51.737
					c-0.758,2.29-2.955,5.876-4.752,8.46c-1.797-2.584-3.994-6.17-4.752-8.46C46.065,52.669,49.437,52.669,52.503,51.737z
					 M35.351,64.368c0.997-3.101,1.383-6.312,1.22-9.479c1.91,3.962,4.423,8.239,6.59,11.707h-8.647
					C34.821,65.871,35.105,65.13,35.351,64.368z M37.565,52.305c1.016-0.309,2.056-0.52,3.11-0.652
					c0.658,3.821,5.603,10.643,6.203,11.459c0.006,0.008,0.016,0.011,0.022,0.019c0.007,0.01,0.009,0.022,0.017,0.031l2.875,3.436
					h-4.27C42.946,62.532,39.65,57.006,37.565,52.305z M48.949,62.474c1.382-1.944,5.081-7.385,5.716-10.703
					c0.776,0.132,1.544,0.302,2.298,0.53c-1.655,3.561-5.099,9.471-6.549,11.924L48.949,62.474z M35.907,50.182
					c-0.509-2.18-1.288-4.296-2.332-6.294c0.021,0.011,0.042,0.022,0.063,0.033c1.326,2.164,3.134,3.993,5.282,5.34
					C37.889,49.49,36.884,49.803,35.907,50.182z M31.322,32.953c0.021,0,0.044,0.001,0.066,0.004
					c-0.016,0.122-0.022,0.242-0.036,0.363c-0.023,0.215-0.047,0.429-0.064,0.646c-0.038,0.488-0.064,0.973-0.064,1.448
					c0,0.48,0.03,0.966,0.074,1.452c0.011,0.123,0.02,0.245,0.034,0.367c0.007,0.059,0.009,0.118,0.016,0.177
					c-0.009,0.001-0.019,0.001-0.027,0.001c-0.607,0-1.287-0.953-1.287-2.229S30.715,32.953,31.322,32.953z M33.563,68.597h11.409
					h6.869H61.96v5.905H33.391v-5.599C33.447,68.8,33.509,68.701,33.563,68.597z M33.391,76.502H61.96v2.345H33.391V76.502z
					 M33.391,80.847H61.96v6.369H33.391V80.847z M50.329,49.492h-1.305c-1.425-0.028-2.926-0.036-4.256-0.008
					c-5.966-1.188-10.597-6.088-11.404-12.181c-0.025-0.19-0.055-0.38-0.072-0.57c-0.04-0.435-0.067-0.874-0.067-1.319
					c0-0.474,0.024-0.947,0.062-1.417c0.036-0.415,0.092-0.836,0.157-1.257c0.485-3.106,1.796-6.051,3.831-8.483
					c0.28-0.335,0.593-0.633,0.921-0.909c0,0,0,0,0,0c2.141,2.441,5.617,4.036,9.553,4.036c3.844,0,7.247-1.522,9.399-3.867
					c0.255,0.23,0.5,0.472,0.724,0.74c2.005,2.397,3.311,5.289,3.814,8.344c0.077,0.469,0.136,0.936,0.176,1.397
					c0.039,0.47,0.062,0.943,0.062,1.417c0,0.444-0.027,0.881-0.067,1.314c-0.019,0.202-0.05,0.403-0.077,0.605
					C60.962,43.43,56.311,48.324,50.329,49.492z M59.644,3.67c0.254-0.454,0.669-0.782,1.17-0.924
					c0.176-0.05,0.354-0.074,0.533-0.074c0.328,0,0.652,0.084,0.946,0.248c0.454,0.254,0.782,0.669,0.924,1.169
					c0.292,1.033-0.311,2.111-1.343,2.404c-0.502,0.141-1.026,0.079-1.48-0.174c-0.454-0.254-0.782-0.669-0.924-1.17
					C59.328,4.649,59.39,4.124,59.644,3.67z M5.766,58.97c0-2.184,1.776-3.96,3.96-3.96s3.961,1.776,3.961,3.96v1.471
					c0,1.373-1.117,2.49-2.491,2.49h-1.47C7.542,62.931,5.766,61.153,5.766,58.97z M61.318,122.648
					c-0.498,0.502-1.163,0.778-1.872,0.778H35.718c-1.453,0-2.635-1.183-2.635-2.636v-9.236c0-0.148-0.037-0.285-0.095-0.412
					c0.003-0.033,0.019-0.062,0.019-0.096v-9.849c0-0.553-0.447-1-1-1s-1,0.447-1,1v9.333c-11.065-0.257-20.431-1.226-21.297-25.49
					c-0.025-0.726-0.03-1.485-0.039-2.238c0.133,0.002,0.267,0.013,0.4,0.013c8.484,0,16.368-4.084,21.318-10.755v3.442v4.345v9.369
					h30.646l0.075,22.343c0,0.012,0.007,0.023,0.007,0.035c-0.095,0.895-0.08,3.088-0.036,9.184
					C62.087,121.483,61.815,122.147,61.318,122.648z M64.108,110.55L63.96,66.47c0-3.101,1.201-5.331,3.749-7.004
					c0.892,1.379,1.61,2.884,2.121,4.494c0.674,3.327,2.046,8.423,4.208,8.931c0.077,0.018,0.154,0.026,0.231,0.026
					c0.455,0,0.871-0.309,0.979-0.769c0.126-0.538-0.198-1.073-0.735-1.199c-0.658-0.289-1.736-3.093-2.495-6.349l10.717-7.649
					c0.523-0.373,1.184-0.435,1.771-0.163c0.58,0.271,0.956,0.813,1.006,1.449c0.113,1.433,0.214,3.036,0.306,4.714l-1.772,6.202
					c-0.17,0.13-0.308,0.298-0.369,0.507l-3.772,13.203c-0.151,0.53,0.156,1.084,0.687,1.235c1.892,0.543,3.803,0.858,5.702,0.974
					C85.402,107.957,76.164,110.435,64.108,110.55z M109.894,69.508c-5.145,10.3-16.7,15.622-27.785,12.925l3.221-11.272
					c4.159,0.958,8.317-0.344,11.105-3.292c0.955-0.931,1.773-2.027,2.396-3.276c1.867-3.744,1.647-8.202-0.521-11.761l10.613-7.031
					C113.262,52.978,113.652,61.969,109.894,69.508z"/>
			</g>
		</g>
	</g>
</g>
</svg>
